<svg width="1024" height="1024" viewBox="0 0 1024 1024" fill="none" xmlns="http://www.w3.org/2000/svg">
<rect width="1024" height="1024" fill="white"/>
<path d="M504.616 131.85C510.489 108.75 512.364 94.9187 514.043 69.2161C515.437 94.8039 517.715 108.507 524.141 131.897L514.452 141.636L504.616 131.85Z" fill="#333132"/>
<path d="M495.73 159.929L514.077 141.488L532.518 159.835L514.171 178.276L495.73 159.929Z" fill="#333132"/>
<path d="M488.044 203.741L513.567 178.087L539.221 203.61L513.698 229.264L488.044 203.741Z" fill="#333132"/>
<path d="M524.009 637.45C518.493 660.638 516.831 674.497 515.55 700.222C513.761 674.659 511.272 660.992 504.486 637.704L514.023 627.817L524.009 637.45Z" fill="#333132"/>
<path d="M532.46 609.238L514.401 627.959L495.679 609.899L513.739 591.178L532.46 609.238Z" fill="#333132"/>
<path d="M539.469 565.312L514.346 591.356L488.301 566.233L513.425 540.188L539.469 565.312Z" fill="#333132"/>
<path d="M440.161 302.903L513.791 229.273L587.422 302.904L513.792 376.534L440.161 302.903Z" fill="#333132"/>
<path d="M522.373 384.5L596.003 310.871L669.634 384.502L596.004 458.132L522.373 384.5Z" fill="#333132"/>
<path d="M358.049 384.5L431.679 310.871L505.308 384.5L431.679 458.13L358.049 384.5Z" fill="#333132"/>
<path d="M440.261 466.099L513.891 392.469L587.52 466.099L513.891 539.728L440.261 466.099Z" fill="#333132"/>
</svg>
