<svg width="853" height="744" viewBox="0 0 853 744" fill="none" xmlns="http://www.w3.org/2000/svg">
<g clip-path="url(#clip0_57_2)">
<path d="M444.526 514.195L419.688 539.16L394.724 514.323L419.561 489.358L444.526 514.195Z" fill="white"/>
<path d="M454.931 454.884L420.378 489.613L385.649 455.061L420.201 420.331L454.931 454.884Z" fill="white"/>
<path fill-rule="evenodd" clip-rule="evenodd" d="M569.878 54.1365C578.274 54.1365 587.432 56.996 597.354 62.7144C606.894 68.4327 613.954 74.533 618.533 81.0138C623.494 88.257 625.974 95.6918 625.974 103.316C625.974 112.465 623.303 119.138 617.961 123.331C618.342 124.475 618.533 125.619 618.533 126.762V130.193C618.533 133.243 618.151 136.484 617.388 139.915C616.625 143.346 615.48 146.396 613.954 149.065L611.664 153.068C625.784 145.825 639.331 140.868 652.305 138.199C664.898 135.15 676.728 133.625 687.794 133.625C710.691 133.625 731.297 137.437 749.614 145.062C767.55 152.305 781.86 163.743 792.545 179.373C802.848 195.003 808 215.02 808 239.418C808 258.479 804.184 275.827 796.552 291.457C788.92 307.469 779.189 321.385 767.359 333.203C765.451 336.253 764.306 339.493 763.925 342.924C763.161 346.737 762.78 349.978 762.78 352.646C762.78 359.127 764.497 365.037 767.931 370.374C771.366 376.092 775.182 378.38 779.38 377.236C779.761 377.236 780.143 377.045 780.524 376.664H781.097C783.005 376.664 783.959 377.427 783.959 378.951C783.959 381.62 782.242 383.717 778.807 385.242C774.991 387.91 770.984 389.245 766.787 389.245C761.444 389.245 757.056 386.767 753.621 381.811C750.187 377.236 748.47 371.136 748.47 363.511C749.233 357.031 750.95 350.93 753.621 345.212C737.594 358.174 720.231 368.087 701.532 374.949C682.834 381.81 665.852 385.242 650.588 385.242C624.257 385.242 605.177 378.379 593.347 364.655C581.517 351.312 575.603 336.062 575.603 318.906C575.603 305.183 579.991 291.457 588.768 277.733C597.163 264.39 608.611 253.333 623.112 244.565C637.232 235.797 652.687 231.412 669.477 231.412C679.399 231.412 689.321 233.128 699.243 236.559C699.624 236.94 700.006 237.131 700.387 237.131C700.769 237.131 701.151 237.321 701.532 237.703C707.638 239.609 713.362 243.803 718.704 250.284C723.665 256.764 726.146 265.152 726.146 275.445C726.146 284.595 724.238 294.317 720.422 304.61C716.224 315.284 710.691 321.956 703.822 324.625C701.532 325.387 700.006 325.769 699.243 325.769C697.716 325.769 696.571 325.387 695.808 324.625C694.663 324.244 693.9 323.863 693.518 323.481C697.716 321.575 699.815 317.762 699.815 312.044C699.815 308.994 699.052 305.563 697.525 301.751C695.617 298.32 693.709 295.651 691.801 293.745C689.13 291.076 686.459 288.026 683.788 284.595C680.735 281.164 678.254 276.398 676.346 270.299C675.965 268.774 675.774 267.249 675.774 265.724C675.392 264.58 675.201 263.246 675.201 261.721C675.201 257.146 676.155 252.761 678.063 248.568C679.972 244.375 683.024 241.134 687.222 238.846C684.932 238.465 682.834 238.084 680.926 237.703H674.057C658.792 237.703 644.864 241.897 632.271 250.284C619.678 258.67 609.565 269.155 601.933 281.736C593.92 294.316 589.913 306.898 589.913 319.478C589.913 334.727 594.301 347.881 603.078 358.937C611.473 370.373 627.31 376.092 650.588 376.092C671.195 376.092 689.893 371.708 706.684 362.939C723.093 354.553 737.403 343.305 749.614 329.2C761.826 315.095 771.175 299.463 777.662 282.308C784.15 265.534 787.393 248.949 787.393 232.556C787.393 216.926 784.15 202.437 777.662 189.095C770.794 175.371 760.299 164.314 746.18 155.927C731.679 147.54 712.98 143.156 690.084 142.774C696.19 144.68 701.341 147.731 705.539 151.924C709.355 155.736 711.263 160.121 711.263 165.077C711.263 170.414 709.546 174.227 706.111 176.514C702.295 178.801 698.67 179.945 695.236 179.945C692.946 179.945 691.42 179.564 690.656 178.801C689.893 177.658 690.847 176.323 693.518 174.798C696.19 173.273 697.525 170.414 697.525 166.221C697.525 162.408 696.381 158.786 694.091 155.355C692.564 152.687 690.084 150.208 686.65 147.921C682.834 145.253 678.254 143.918 672.912 143.918H671.767C653.45 143.918 634.942 148.303 616.243 157.071C597.545 165.839 578.846 177.468 560.148 191.954C541.449 206.44 522.941 222.454 504.624 239.99C486.307 257.526 468.562 275.256 451.39 293.173C455.206 292.029 473.505 313.528 478.847 313.528V312.956C483.045 305.713 490.868 302.091 502.316 302.091C509.185 302.091 516.244 303.997 523.495 307.809C531.127 312.003 538.568 319.247 545.819 329.54C552.688 339.833 556.122 349.365 556.122 358.133V361.564C555.741 363.089 555.359 364.423 554.977 365.567C553.833 368.998 552.497 371.095 550.97 371.858C549.444 373.001 548.299 373.573 547.536 373.573C549.062 366.711 546.582 361.564 540.095 358.133C533.226 355.083 527.311 353.558 522.35 353.558H518.916C517.389 353.939 516.054 354.13 514.909 354.13C511.856 354.13 508.612 353.749 505.178 352.986C501.362 352.605 497.355 351.461 493.157 349.555C487.815 346.887 483.426 342.693 479.992 336.974C476.176 331.637 474.84 325.918 475.985 319.818C467.208 319.818 445.475 300.607 438.225 306.326C419.144 326.53 401.018 346.166 383.846 365.227C366.292 384.669 350.456 401.636 336.336 416.122C321.835 431.371 305.999 446.813 288.826 462.443C271.654 478.073 253.337 491.608 233.875 503.045C241.126 507.238 247.804 511.051 253.909 514.482C260.015 518.294 264.976 521.153 268.792 523.06C279.095 528.778 293.024 534.878 310.578 541.359C328.132 548.221 347.021 553.94 367.246 558.515C387.471 563.471 406.933 565.949 425.632 565.949C452.344 565.949 475.05 560.039 493.748 548.221C512.065 536.785 525.994 522.296 535.534 504.76C544.693 487.224 549.272 469.304 549.272 451.006C549.272 436.519 546.219 422.793 540.113 409.832C533.626 396.87 524.086 386.385 511.493 378.38C498.518 370.755 482.491 366.942 463.411 366.942L458.259 366.942C456.351 366.942 454.634 367.133 453.107 367.514C449.291 369.42 446.238 372.089 443.949 375.52C441.278 379.333 439.56 382.573 438.797 385.242C438.034 388.292 437.652 390.961 437.652 393.248C437.652 395.916 438.225 398.395 439.37 400.682C440.133 402.969 441.468 404.304 443.376 404.685C444.903 405.066 445.666 405.829 445.666 406.973C445.666 409.26 442.995 410.404 437.652 410.404C432.691 410.404 429.066 408.879 426.777 405.829C424.105 403.16 422.77 399.729 422.77 395.535C422.77 390.961 424.105 386.576 426.777 382.383C430.974 375.902 436.889 371.136 444.521 368.086C426.967 370.755 412.276 376.093 400.446 384.098C388.616 392.104 379.839 401.445 374.115 412.119C368.009 422.793 364.957 433.278 364.957 443.571C364.957 456.914 368.963 469.877 376.977 482.458C384.991 495.038 397.775 502.473 415.328 504.76H420.48C422.006 504.76 423.724 504.379 425.632 503.616C429.066 502.092 432.119 499.613 434.79 496.182C437.08 493.133 438.225 490.082 438.225 487.033C438.225 483.602 436.889 481.123 434.218 479.598C433.455 479.217 433.073 478.455 433.073 477.311C433.073 475.786 434.027 475.024 435.935 475.024C439.37 475.024 442.804 477.692 446.238 483.03C447.002 485.317 447.383 487.223 447.383 488.748C447.383 489.892 447.002 491.608 446.238 493.895C447.765 493.132 448.719 492.37 449.1 491.607C452.153 488.939 457.496 486.461 465.128 484.173C472.76 481.886 480.392 480.742 488.024 480.742H493.176C494.702 481.123 496.419 481.505 498.327 481.886C503.288 483.029 507.677 485.317 511.493 488.748C514.927 492.56 516.645 497.136 516.645 502.473C516.645 503.998 516.263 504.76 515.5 504.76C515.118 504.76 513.21 503.426 509.776 500.757C507.868 499.613 505.387 499.042 502.334 499.042C494.321 499.042 487.452 501.901 481.728 507.619C475.24 514.481 467.799 520.391 459.404 525.347C451.008 530.303 443.376 532.781 436.507 532.781C427.349 532.781 420.289 530.303 415.328 525.347C409.986 520.772 406.361 515.435 404.453 509.335C388.425 505.523 376.405 497.516 368.391 485.317C359.996 473.499 355.798 459.583 355.798 443.571C355.798 430.229 359.996 416.884 368.391 403.541C376.786 390.199 388.998 379.142 405.025 370.374C420.671 361.987 440.133 357.793 463.411 357.793C487.833 357.793 508.058 362.177 524.086 370.945C540.113 380.095 552.134 391.724 560.148 405.829C568.161 420.315 572.168 435.757 572.168 452.149C572.168 465.492 569.497 479.218 564.154 493.323C566.826 492.179 569.497 491.226 572.168 490.464C574.458 489.701 577.32 489.129 580.754 488.748C580.373 480.361 584.57 471.973 593.347 463.586C602.124 455.199 613.954 451.006 628.836 451.006C639.903 451.006 651.351 453.103 663.181 457.296C675.011 461.489 682.643 467.59 686.077 475.595C687.222 478.645 687.794 480.933 687.794 482.458C687.794 485.126 687.031 486.842 685.505 487.604C682.834 483.03 678.636 480.742 672.912 480.742C668.714 480.742 664.516 481.886 660.319 484.173C655.74 486.461 652.114 488.939 649.443 491.607C646.39 494.657 642.956 497.898 639.14 501.329C634.942 505.141 629.218 508.382 621.968 511.051C618.533 512.194 614.526 512.766 609.947 512.766C603.841 512.766 598.117 511.241 592.775 508.191C587.051 505.523 583.235 500.948 581.327 494.467C576.366 495.229 572.168 496.373 568.734 497.898C565.299 499.423 561.674 502.473 557.858 507.048C547.173 527.252 530.573 544.41 508.058 558.515C485.162 572.62 456.733 579.673 422.77 579.673C413.993 579.673 405.025 578.911 395.867 577.386C386.326 575.861 376.786 573.955 367.246 571.667C371.825 576.242 374.115 581.199 374.115 586.536C374.115 591.873 372.589 595.304 369.536 596.829C366.483 598.735 363.621 599.688 360.95 599.688C363.239 599.688 364.384 596.829 364.384 591.111C364.384 587.298 363.43 582.914 361.522 577.958C359.614 573.002 356.752 569.571 352.936 567.664C335 562.709 318.21 556.608 302.564 549.365C286.537 542.503 273.753 536.403 264.213 531.066C261.16 529.541 256.008 526.681 248.758 522.488C241.126 518.294 232.73 513.719 223.572 508.763C210.597 516.006 197.241 521.535 183.503 525.347C169.384 529.54 155.074 531.637 140.573 531.637C125.69 531.637 114.051 527.825 105.656 520.2C97.2605 512.957 93.0629 504.95 93.0629 496.182C93.0629 487.414 97.6421 479.598 106.801 472.736C115.959 465.874 130.651 463.205 150.876 464.73C153.929 465.111 158.317 466.446 164.042 468.733C169.766 471.02 176.253 473.689 183.503 476.739L192.662 481.314C197.623 483.983 202.774 486.651 208.117 489.32C213.078 492.37 218.229 495.229 223.572 497.898C244.179 486.461 264.022 472.354 283.102 455.58C301.801 439.188 319.545 421.84 336.336 403.541C352.745 385.624 367.819 368.848 381.556 353.218L390.142 344.068C432.119 297.178 469.707 259.623 502.907 231.412C535.725 203.583 564.536 181.469 589.34 165.077V164.505H590.485V163.933C597.354 159.74 602.887 154.211 607.085 147.349C612.046 139.725 614.145 132.481 613.381 125.619C611.092 126.762 608.421 127.334 605.368 127.334C600.788 127.334 596.4 126 592.202 123.331C587.623 120.663 584.189 117.231 581.899 113.038C578.846 107.701 577.129 102.935 576.747 98.7413C575.984 94.1667 575.412 89.9727 575.03 86.1605C574.648 81.2046 572.55 75.8668 568.734 70.1485C564.918 64.4302 559.957 62.5238 553.851 64.4299C553.851 64.0486 554.233 63.0955 554.996 61.5706C555.377 59.6645 557.095 57.9488 560.148 56.4239C562.819 54.899 566.062 54.1365 569.878 54.1365ZM143.435 476.167C132.368 476.167 124.355 478.455 119.394 483.03C114.051 487.985 111.38 493.133 111.38 498.47C111.38 504.569 113.86 510.098 118.821 515.054C123.782 520.009 131.033 522.488 140.573 522.488C152.784 522.488 164.995 520.772 177.207 517.341C189.418 513.91 201.439 509.335 213.268 503.616C208.308 500.948 203.538 498.279 198.958 495.61C193.997 493.323 189.227 491.226 184.648 489.32L176.062 485.317C166.522 480.742 159.653 478.073 155.455 477.311L149.731 476.167H143.435Z" fill="url(#paint0_linear_57_2)"/>
<path d="M519.754 320.641L420.076 420.319L320.396 320.639L420.074 220.961L519.754 320.641Z" fill="white"/>
<path d="M408.457 210.176L308.779 309.854L209.1 210.174L308.777 110.496L408.457 210.176Z" fill="white"/>
<path d="M630.915 210.176L531.237 309.854L431.559 210.176L531.237 110.499L630.915 210.176Z" fill="white"/>
<path d="M519.618 99.7109L419.941 199.389L320.263 99.7109L419.941 0.0331788L519.618 99.7109Z" fill="white"/>
<path fill-rule="evenodd" clip-rule="evenodd" d="M185.692 84.0913C184.067 83.9402 182.221 84.7241 180.153 86.443C176.557 89.9312 174.707 95.22 174.603 102.31C173.958 109.349 174.667 116.514 176.729 123.805C178.791 131.096 181.42 136.665 184.617 140.512C189.043 145.838 194.454 149.345 200.852 151.033C206.708 152.669 211.656 152.311 215.694 149.956L216.137 149.587C220.317 154.618 226.27 158.175 233.997 160.259C214.402 165.536 195.299 172.906 176.686 182.369C157.531 191.782 139.68 203.365 123.131 217.116C119.88 219.817 116.752 222.666 113.748 225.663C110.497 228.364 107.517 231.09 104.808 233.842C89.5382 248.531 78.3784 263.057 71.3291 277.418C63.9843 292.026 60.2827 305.607 60.2244 318.161C59.9201 330.42 62.7186 340.1 68.6201 347.202C76.4888 356.672 89.2588 360.317 106.931 358.139C124.604 355.96 146.147 344.311 171.561 323.193L180.87 315.458C183.875 312.461 187.027 309.342 190.327 306.099C196.878 300.155 206.855 288.114 220.256 269.974C233.363 252.08 248.317 231.9 265.118 209.435C262.404 218.193 260.65 226.904 259.856 235.568C258.41 254.942 258.577 262.056 260 267.377C255.816 268.353 251.95 270.314 248.404 273.261C244.267 276.699 240.695 281.418 237.688 287.418C234.681 293.418 233.101 300.234 232.948 307.865C232.745 316.038 234.51 325.076 238.244 334.98C241.731 344.588 246.549 353.09 252.696 360.489C258.843 367.887 265.534 372.332 272.769 373.824C275.722 374.371 278.183 374.327 280.152 373.691C281.58 373.005 282.59 372.416 283.181 371.925L284.511 370.82C282.099 370.323 279.91 368.891 277.943 366.523C274.5 362.38 273.347 357.085 274.484 350.638C275.375 343.895 277.102 338.458 279.665 334.327C281.932 330.443 284.519 326.042 287.427 321.124C289.793 316.156 291.324 309.882 292.018 302.301C292.415 297.97 292.148 293.44 291.216 288.711C289.743 283.932 287.408 279.619 284.211 275.772C279.785 270.446 273.783 267.43 266.203 266.725C265.467 262.834 265.324 256.95 265.773 249.074C266.222 241.197 267.889 222.39 270.062 213.581C271.938 205.018 275.242 197.271 279.972 190.339L280.859 189.602C280.613 189.306 280.638 189.035 280.933 188.79C284.333 184.464 288.028 179.893 292.018 175.076C295.467 170.209 299.04 165.49 302.735 160.919C328.084 161.366 352.643 164.469 376.413 170.23L373.534 170.372C361.623 169.264 351.235 172.393 342.369 179.76C336.755 184.425 333.404 189.711 332.316 195.617C331.229 201.523 332.284 206.399 335.48 210.246C337.939 213.206 341.432 215.305 345.96 216.545C349.109 217.931 351.718 217.764 353.787 216.045C354.969 215.062 354.945 213.832 353.716 212.352L352.978 211.464C349.337 209.487 348.503 205.178 350.477 198.535C352.451 191.892 355.802 186.607 360.53 182.678C363.485 180.222 367.375 177.99 372.201 175.982C376.78 173.677 381.235 172.726 385.567 173.129C392.998 175.459 400.674 178.084 408.597 181.006C415.978 183.877 426.004 186.68 433.04 190.338L442.389 195.617C456.658 203.771 459.895 200.323 472.636 210.246C485.082 220.414 475.812 193.455 486.385 206.18L483.635 198.535C456.9 173.386 486.531 204.626 461.087 186.931L447.656 179.314C403.892 161.633 359.768 149.296 311.972 149.491C317.49 142.905 340.147 120.145 345.96 113.313C351.773 106.482 357.562 99.9212 363.325 93.6312C367.463 90.1934 372.583 87.9393 378.688 86.8689C384.251 85.7481 388.779 85.4866 392.274 86.0847C400.05 87.6272 405.659 90.4698 409.101 94.6127C411.069 96.9801 411.805 99.3695 411.311 101.781C410.817 104.192 411.234 105.596 412.563 105.993C413.646 106.094 414.926 105.53 416.404 104.302C417.881 103.075 418.94 101.944 419.581 100.912C424.657 93.1926 424.49 86.0781 419.08 79.5678C414.162 73.6493 406.485 71.024 396.05 71.6915C390.291 71.9749 384.678 73.6372 379.212 76.6783C384.335 71.4209 389.285 66.557 394.063 62.0866C398.841 57.6162 403.742 53.2938 408.766 49.1194C420.882 39.0516 432.652 31.2725 444.075 25.782C455.203 20.5371 465.197 18.736 474.055 20.3793C478.533 22.1611 481.879 24.3836 484.092 27.0469C486.797 30.3021 488.246 33.8499 488.44 37.6906C488.388 41.2354 486.639 43.9397 483.192 45.8034C481.469 46.7353 480.828 47.7678 481.27 48.9011C481.466 49.7385 482.524 50.1099 484.444 50.0155C487.151 50.2673 489.687 49.4109 492.051 47.4465C493.233 46.4643 493.997 45.5796 494.342 44.7926C496.46 42.5322 497.151 39.4566 496.416 35.5655L498.26 37.7848C501.211 41.3359 506.868 45.1386 515.233 49.1933C523.598 53.248 531.595 55.357 539.224 55.5206C545.23 55.5332 550.005 54.0661 553.551 51.1194C556.506 48.6639 558.305 45.4181 558.948 41.3822C559.393 39.5122 559.049 38.7976 557.916 39.2384L552.82 41.2218C549.669 42.8399 545.608 42.4623 540.639 40.0886C535.964 37.4694 532.448 34.1389 530.088 30.0967C527.924 26.8919 525.638 23.5393 523.229 20.0385C521.115 16.2923 518.706 12.7918 516.001 9.53663C510.345 2.7304 504.885 -1.73656 499.62 -3.86465C493.863 -6.58459 488.473 -7.35889 483.452 -6.18775C478.726 -5.26216 474.59 -3.32598 471.044 -0.379293C467.497 2.56739 465.034 5.61484 463.654 8.76299L459.444 10.0096C450.829 11.6656 441.77 15.1918 432.266 20.5878C422.762 25.9838 413.134 32.7334 403.382 40.8368L396.733 46.3618C394.369 48.3262 392.275 50.3159 390.453 52.3307C391.687 47.8037 392.527 43.1037 392.973 38.2304C393.42 33.3571 394.563 29.9932 395 26.5C395.5 22.5 396.733 18.5 396.733 14C396.733 2.69919 390.791 -1.56077 393.157 -6.52855C395.277 -11.7922 396.242 -17.846 396.05 -24.6901C395.759 -30.4511 394.164 -36.8794 391.265 -43.9753C388.366 -51.0712 384.581 -57.4301 379.909 -63.0526C377.204 -66.3078 374.326 -69.1693 371.276 -71.6374C367.931 -73.86 364.363 -75.1474 360.573 -75.5C356.784 -75.8525 354.002 -75.2921 352.229 -73.8188C351.934 -73.5732 351.909 -73.3025 352.155 -73.0066L351.268 -72.2699C353.68 -71.7725 355.746 -70.4882 357.467 -68.4167C360.172 -65.1616 361.301 -61.0975 360.855 -56.2241C360.112 -51.1052 358.903 -46.8491 357.227 -43.4554C355.551 -40.0617 353.85 -36.3972 352.125 -32.4621C350.104 -28.2813 349.091 -23.1877 349.086 -17.1811C348.933 -9.55002 351.192 -2.92337 355.864 2.69919C360.291 8.02582 367 22 382.5 25.782C386 27 388.618 36.5965 387.136 43.8309C385.359 51.3109 382.573 57.8778 378.779 63.5319C368.287 73.7508 357.844 84.9299 347.449 97.0692C337.054 109.208 309.52 137.522 298.83 149.907C292.234 150.386 285.76 151.012 279.41 151.787C272.518 152.511 265.75 153.383 259.104 154.403L257.037 154.62L255.338 155.282L247.806 157.038C237.37 157.706 228.144 154.117 220.126 146.272C222.935 142.438 224.169 137.911 223.828 132.691C222.946 127.421 221.029 123.011 218.079 119.46C214.882 115.613 211.734 112.726 208.634 110.8C205.239 109.118 202.115 107.463 199.261 105.832C197.686 105.139 196.137 104.176 194.612 102.942C193.087 101.708 191.709 100.351 190.48 98.8716C188.759 96.8001 187.604 94.5085 187.015 91.9963C186.18 89.1881 186.699 86.5058 188.571 83.9495C188.03 83.8992 187.07 83.9465 185.692 84.0913ZM118.912 231.877L126.89 225.247C151.122 205.112 177.369 189.805 205.63 179.328C233.35 168.8 261.337 162.802 289.592 161.335C277.521 176.868 265.746 192.155 254.266 207.197C242.245 222.188 230.864 236.147 220.124 249.074C215.249 251.624 210.646 252.697 206.315 252.294C200.31 252.282 195.586 250.204 192.144 246.061C190.668 244.286 190.005 242.586 190.154 240.961C190.551 236.63 189.567 235.446 187.203 237.41C185.43 238.884 183.927 241.884 182.693 246.411C181.213 250.642 181.948 254.533 184.899 258.084C187.604 261.339 191.393 263.193 196.265 263.647C200.597 264.05 205.027 263.369 209.557 261.606C204.63 267.701 199.876 273.403 195.294 278.71C190.467 283.722 185.812 288.341 181.33 292.566C179.211 294.826 177.118 296.815 175.05 298.534L168.844 303.691C149.931 319.407 133.73 327.866 120.243 329.069C106.755 330.271 96.8145 327.026 90.4212 319.332C83.5361 311.046 81.6006 299.399 84.6141 284.388C87.3817 269.082 96.13 254.059 110.858 239.32C113.272 236.814 115.956 234.333 118.912 231.877Z" fill="url(#paint1_linear_57_2)"/>
<path d="M464.1 367.443C483.18 367.443 499.207 371.256 512.182 378.88L524.775 371.446C508.747 362.678 488.522 358.293 464.1 358.293C440.822 358.293 421.36 362.487 405.714 370.874C400.004 373.998 390.929 379.767 386.187 383.472C377.62 390.166 374.484 395.453 369.08 404.042L372.988 414.27C378.712 403.595 393.884 390.889 405.714 382.883C417.544 374.877 432.236 369.54 449.789 366.871C442.157 369.921 431.663 376.402 427.466 382.883C424.794 387.077 423.459 391.461 423.459 396.036C423.459 400.229 424.794 403.661 427.466 406.329C429.755 409.379 433.38 410.904 438.341 410.904C443.684 410.904 446.355 409.76 446.355 407.473C446.355 406.329 445.458 405.302 443.932 404.92C442.024 404.539 440.822 403.47 440.059 401.183C438.914 398.895 438.341 396.417 438.341 393.748C438.341 391.461 438.723 388.792 439.486 385.742C440.249 383.074 441.967 379.833 444.638 376.021C446.927 372.59 449.98 369.921 453.796 368.015C455.323 367.634 457.04 367.443 458.948 367.443H464.1Z" fill="#D02A1E"/>
<path d="M448.002 567.993C432.074 633.059 427.131 671.914 423.002 744C418.532 672.432 411.849 634.202 393.34 569.112L420.249 541.219L448.002 567.993Z" fill="white"/>
</g>
<defs>
<linearGradient id="paint0_linear_57_2" x1="693.61" y1="503.362" x2="420.284" y2="213.537" gradientUnits="userSpaceOnUse">
<stop offset="0.140001" stop-color="white"/>
<stop offset="0.534626" stop-color="#D02A1E"/>
</linearGradient>
<linearGradient id="paint1_linear_57_2" x1="467.448" y1="169.409" x2="241.418" y2="-4.92612" gradientUnits="userSpaceOnUse">
<stop offset="0.0811113" stop-color="white"/>
<stop offset="0.535729" stop-color="#D02A1E"/>
</linearGradient>
<clipPath id="clip0_57_2">
<rect width="853" height="744" fill="white" transform="matrix(-1 0 0 -1 853 744)"/>
</clipPath>
</defs>
</svg>
