<svg width="853" height="634" viewBox="0 0 853 634" fill="none" xmlns="http://www.w3.org/2000/svg">
<g clip-path="url(#clip0_48_84)">
<path d="M444.526 404.195L419.689 429.16L394.724 404.323L419.561 379.358L444.526 404.195Z" fill="white"/>
<path d="M454.931 344.884L420.378 379.613L385.649 345.061L420.201 310.331L454.931 344.884Z" fill="white"/>
<path fill-rule="evenodd" clip-rule="evenodd" d="M551.816 -96.0003C560.211 -96.0003 569.369 -93.1407 579.291 -87.4224C588.831 -81.7041 595.891 -75.6038 600.47 -69.123C605.431 -61.8798 607.911 -54.4449 607.911 -46.8204C607.911 -37.6712 605.24 -30.9989 599.898 -26.8054C600.279 -25.6618 600.47 -24.5179 600.47 -23.3743V-19.9431C600.47 -16.8933 600.089 -13.6525 599.325 -10.2216C598.562 -6.79058 597.417 -3.74032 595.891 -1.07178L593.601 2.93121C607.721 -4.31198 621.268 -9.26859 634.242 -11.9371C646.835 -14.9869 658.665 -16.512 669.731 -16.512C692.628 -16.512 713.234 -12.6992 731.551 -5.07477C749.487 2.16842 763.797 13.6065 774.482 29.2366C784.785 44.8667 789.937 64.8834 789.937 89.2816C789.937 108.343 786.121 125.691 778.489 141.321C770.857 157.332 761.126 171.248 749.296 183.066C747.388 186.116 746.243 189.357 745.862 192.788C745.098 196.6 744.717 199.841 744.717 202.509C744.717 208.99 746.434 214.9 749.869 220.237C753.303 225.955 757.119 228.243 761.317 227.099C761.698 227.099 762.08 226.909 762.461 226.527H763.034C764.942 226.527 765.896 227.29 765.896 228.815C765.896 231.483 764.179 233.58 760.744 235.105C756.928 237.774 752.921 239.108 748.724 239.108C743.381 239.108 738.993 236.63 735.558 231.674C732.124 227.099 730.407 220.999 730.407 213.375C731.17 206.894 732.887 200.794 735.558 195.075C719.531 208.037 702.168 217.95 683.469 224.812C664.771 231.674 647.789 235.105 632.525 235.105C606.194 235.105 587.114 228.242 575.284 214.518C563.455 201.176 557.54 185.925 557.54 168.77C557.54 155.046 561.928 141.32 570.705 127.596C579.1 114.253 590.548 103.196 605.049 94.4283C619.169 85.6602 634.624 81.2756 651.414 81.2756C661.336 81.2756 671.258 82.9914 681.18 86.4224C681.561 86.8036 681.943 86.9942 682.324 86.9942C682.706 86.9942 683.088 87.1849 683.469 87.5661C689.575 89.4722 695.299 93.6661 700.641 100.147C705.602 106.628 708.083 115.016 708.083 125.309C708.083 134.458 706.175 144.18 702.359 154.473C698.161 165.148 692.628 171.82 685.759 174.488C683.469 175.251 681.943 175.632 681.18 175.632C679.653 175.632 678.508 175.251 677.745 174.488C676.6 174.107 675.837 173.726 675.456 173.345C679.653 171.439 681.752 167.626 681.752 161.908C681.752 158.858 680.989 155.426 679.462 151.614C677.554 148.183 675.646 145.514 673.738 143.608C671.067 140.94 668.396 137.889 665.725 134.458C662.672 131.027 660.191 126.262 658.283 120.162C657.902 118.637 657.711 117.112 657.711 115.587C657.329 114.443 657.139 113.109 657.139 111.584C657.139 107.009 658.093 102.625 660.001 98.4314C661.909 94.2379 664.961 90.9971 669.159 88.7098C666.869 88.3286 664.771 87.9473 662.863 87.5661C662.863 87.5661 658.676 87.5661 655.994 87.5661C640.73 87.5661 626.801 91.76 614.208 100.147C601.615 108.534 591.502 119.019 583.87 131.599C575.857 144.179 571.85 156.761 571.85 169.342C571.85 184.591 576.238 197.744 585.015 208.8C593.41 220.236 609.247 225.956 632.525 225.956C653.132 225.956 671.83 221.571 688.621 212.803C705.03 204.416 719.34 193.168 731.551 179.063C743.763 164.958 753.112 149.326 759.599 132.171C766.087 115.397 769.33 98.8119 769.33 82.4194C769.33 66.7893 766.087 52.3009 759.599 38.9582C752.731 25.2343 742.236 14.1774 728.117 5.79047C713.616 -2.59644 694.917 -6.98102 672.021 -7.36224C678.127 -5.45614 683.278 -2.40598 687.476 1.78748C691.292 5.59969 693.2 9.98433 693.2 14.9402C693.2 20.2773 691.483 24.0901 688.049 26.3774C684.232 28.6647 680.607 29.8085 677.173 29.8085C674.883 29.8085 673.357 29.4272 672.593 28.6647C671.83 27.5211 672.784 26.1866 675.456 24.6617C678.127 23.1369 679.462 20.2774 679.462 16.0839C679.462 12.2717 678.318 8.6496 676.028 5.21863C674.502 2.55008 672.021 0.0717897 668.587 -2.21552C664.771 -4.88406 660.191 -6.21857 654.849 -6.21857H653.704C635.387 -6.21857 616.879 -1.83393 598.181 6.9342C579.482 15.7023 560.783 27.3311 542.085 41.8175C523.386 56.3039 504.878 72.3172 486.561 89.8535C468.244 107.39 469.389 102.245 452.217 120.162C456.033 119.019 484.081 91.2588 489.423 91.2588V90.6869C493.621 83.4437 501.444 79.8216 512.892 79.8216C519.761 79.8216 526.82 81.728 534.071 85.5402C541.703 89.7336 549.144 96.9778 556.395 107.271C563.264 117.564 566.698 127.095 566.698 135.864V139.295C566.317 140.82 565.935 142.154 565.553 143.298C564.409 146.729 563.073 148.826 561.546 149.588C560.02 150.732 558.875 151.304 558.112 151.304C559.638 144.442 557.158 139.295 550.671 135.864C543.802 132.814 537.887 131.289 532.926 131.289H529.492C527.965 131.67 526.63 131.861 525.485 131.861C522.432 131.861 519.188 131.479 515.754 130.717C511.938 130.336 507.931 129.192 503.733 127.286C498.391 124.617 494.002 120.423 490.568 114.705C486.752 109.368 485.416 103.649 486.561 97.5492C477.784 97.5492 446.302 127.597 439.051 133.315C419.971 153.52 401.845 173.155 384.673 192.216C367.119 211.658 351.282 228.625 337.163 243.111C322.662 258.36 306.825 273.802 289.653 289.432C272.481 305.062 254.163 318.597 234.702 330.034C241.952 334.227 248.63 338.04 254.736 341.471C260.842 345.283 265.802 348.143 269.618 350.049C279.922 355.767 293.85 361.867 311.404 368.348C328.958 375.21 347.848 380.929 368.073 385.504C388.298 390.46 407.76 392.938 426.458 392.938C453.171 392.938 475.876 387.028 494.575 375.211C512.892 363.774 526.82 349.286 536.361 331.749C545.519 314.213 550.098 296.293 550.098 277.995C550.098 263.508 547.045 249.783 540.94 236.821C534.453 223.859 524.912 213.375 512.319 205.369C499.345 197.745 483.317 193.932 464.237 193.932H459.086C457.178 193.932 455.46 194.122 453.934 194.504C450.118 196.41 447.065 199.079 444.775 202.51C442.104 206.322 440.387 209.563 439.624 212.231C438.86 215.281 438.479 217.95 438.479 220.237C438.479 222.906 439.051 225.384 440.196 227.671C440.959 229.959 442.295 231.293 444.203 231.674C445.729 232.056 446.493 232.818 446.493 233.962C446.493 236.249 443.821 237.393 438.479 237.393C433.518 237.393 429.893 235.868 427.603 232.818C424.932 230.15 423.596 226.718 423.596 222.525C423.596 217.95 424.932 213.565 427.603 209.372C431.801 202.891 437.716 198.125 445.348 195.076C427.794 197.744 413.102 203.082 401.272 211.087C389.443 219.093 380.666 228.434 374.942 239.108C368.836 249.783 365.783 260.268 365.783 270.561C365.783 283.903 369.79 296.867 377.804 309.447C385.817 322.027 398.601 329.462 416.155 331.749H421.307C422.833 331.749 424.55 331.368 426.458 330.606C429.893 329.081 432.946 326.603 435.617 323.172C437.906 320.122 439.051 317.072 439.051 314.022C439.051 310.591 437.716 308.113 435.044 306.588C434.281 306.206 433.9 305.444 433.9 304.3C433.9 302.775 434.854 302.013 436.762 302.013C440.196 302.013 443.631 304.682 447.065 310.019C447.828 312.306 448.21 314.213 448.21 315.737C448.21 316.881 447.828 318.597 447.065 320.884C448.591 320.122 449.545 319.359 449.927 318.597C452.98 315.928 458.322 313.45 465.954 311.163C473.587 308.875 481.219 307.731 488.851 307.731H494.002C495.529 308.113 497.246 308.494 499.154 308.875C504.115 310.019 508.503 312.306 512.319 315.737C515.754 319.55 517.471 324.125 517.471 329.462C517.471 330.987 517.09 331.749 516.326 331.749C515.945 331.749 514.037 330.415 510.602 327.746C508.694 326.603 506.214 326.031 503.161 326.031C495.147 326.031 488.278 328.89 482.554 334.609C476.067 341.471 468.626 347.38 460.23 352.336C451.835 357.292 444.203 359.77 437.334 359.77C428.176 359.77 421.116 357.292 416.155 352.336C410.812 347.762 407.187 342.424 405.279 336.324C389.252 332.512 377.231 324.505 369.218 312.306C360.822 300.488 356.625 286.572 356.625 270.561C356.625 257.218 360.822 243.873 369.218 230.531C377.613 217.188 389.824 206.131 405.852 197.363C421.497 188.976 440.959 184.782 464.237 184.782C488.66 184.782 508.885 189.167 524.912 197.935C540.94 207.084 552.96 218.713 560.974 232.818C568.988 247.304 572.995 262.746 572.995 279.138C572.995 292.481 570.323 306.207 564.981 320.312C567.652 319.169 570.323 318.215 572.995 317.453C575.284 316.691 578.146 316.119 581.581 315.737C581.199 307.351 585.397 298.963 594.174 290.576C602.951 282.189 614.78 277.995 629.663 277.995C640.73 277.995 652.178 280.092 664.007 284.285C675.837 288.479 683.469 294.579 686.904 302.585C688.049 305.634 688.621 307.922 688.621 309.447C688.621 312.116 687.858 313.831 686.331 314.594C683.66 310.019 679.462 307.731 673.738 307.731C669.541 307.731 665.343 308.875 661.145 311.163C656.566 313.45 652.941 315.928 650.27 318.597C647.217 321.646 643.782 324.887 639.966 328.318C635.769 332.13 630.045 335.371 622.794 338.04C619.36 339.183 615.353 339.755 610.774 339.755C604.668 339.755 598.944 338.23 593.601 335.181C587.877 332.512 584.061 327.937 582.153 321.456C577.192 322.218 572.995 323.362 569.56 324.887C566.126 326.412 562.5 329.462 558.684 334.037C548 354.241 531.4 371.399 508.885 385.504C485.989 399.609 457.559 406.663 423.596 406.663C414.819 406.663 405.852 405.9 396.693 404.375C387.153 402.85 377.613 400.944 368.073 398.657C372.652 403.231 374.942 408.188 374.942 413.525C374.942 418.862 373.415 422.294 370.362 423.818C367.31 425.725 364.447 426.678 361.776 426.678C364.066 426.678 365.211 423.818 365.211 418.1C365.211 414.288 364.257 409.903 362.349 404.947C360.441 399.991 357.579 396.56 353.762 394.654C335.827 389.698 319.036 383.597 303.391 376.354C287.363 369.492 274.579 363.392 265.039 358.055C261.986 356.53 256.835 353.67 249.584 349.477C241.952 345.284 233.557 340.708 224.398 335.752C211.424 342.996 198.068 348.524 184.33 352.336C170.21 356.53 155.9 358.627 141.399 358.627C126.517 358.627 114.878 354.814 106.482 347.19C98.087 339.946 93.8893 331.94 93.8893 323.172C93.8893 314.403 98.4685 306.587 107.627 299.725C116.786 292.863 131.477 290.194 151.703 291.719C154.755 292.101 159.144 293.435 164.868 295.722C170.592 298.01 177.079 300.679 184.33 303.728L193.488 308.303C198.449 310.972 203.601 313.641 208.943 316.309C213.904 319.359 219.056 322.219 224.398 324.887C245.005 313.45 264.848 299.343 283.929 282.57C302.627 266.177 320.372 248.829 337.163 230.531C353.572 212.613 368.645 195.837 382.383 180.207L390.969 171.057C432.946 124.167 451.644 109.486 484.844 81.2756C517.662 53.4466 546.473 31.3328 571.277 14.9402V14.3683H572.422V13.7964C579.291 9.603 584.824 4.07453 589.022 -2.78741C593.983 -10.4118 596.082 -17.656 595.319 -24.5179C593.029 -23.3743 590.358 -22.8024 587.305 -22.8024C582.726 -22.8024 578.337 -24.1369 574.139 -26.8054C569.56 -29.474 566.126 -32.9054 563.836 -37.0988C560.783 -42.4359 559.066 -47.2019 558.684 -51.3953C557.921 -55.9699 557.349 -60.164 556.967 -63.9763C556.586 -68.9321 554.487 -74.2699 550.671 -79.9882C546.855 -85.7065 541.894 -87.613 535.788 -85.7068C535.788 -86.0881 536.17 -87.0412 536.933 -88.5661C537.315 -90.4722 539.032 -92.1879 542.085 -93.7128C544.756 -95.2377 547.999 -96.0003 551.816 -96.0003ZM144.261 303.157C133.195 303.157 125.181 305.444 120.22 310.019C114.878 314.975 112.206 320.122 112.206 325.459C112.206 331.559 114.687 337.087 119.648 342.043C124.609 346.999 131.859 349.477 141.399 349.477C153.611 349.477 165.822 347.761 178.033 344.33C190.245 340.899 202.265 336.324 214.095 330.606C209.134 327.937 204.364 325.268 199.785 322.6C194.824 320.312 190.054 318.215 185.475 316.309L176.888 312.306C167.348 307.732 160.479 305.063 156.282 304.3L150.558 303.157H144.261Z" fill="url(#paint0_linear_48_84)"/>
<path d="M519.754 210.641L420.076 310.319L320.396 210.639L420.074 110.961L519.754 210.641Z" fill="white"/>
<path d="M408.457 100.176L308.779 199.854L209.1 100.174L308.777 0.496385L408.457 100.176Z" fill="white"/>
<path d="M630.915 100.176L531.237 199.854L431.559 100.176L531.237 0.498511L630.915 100.176Z" fill="white"/>
<path d="M519.618 -10.2891L419.941 89.3887L320.263 -10.2891L419.941 -109.967L519.618 -10.2891Z" fill="white"/>
<path fill-rule="evenodd" clip-rule="evenodd" d="M185.692 -25.9087C184.067 -26.0598 182.221 -25.2759 180.152 -23.557C176.557 -20.0688 174.707 -14.78 174.603 -7.69037C173.958 -0.651144 174.667 6.51373 176.729 13.8048C178.791 21.0959 181.42 26.6647 184.616 30.5117C189.043 35.8384 194.454 39.3452 200.852 41.0325C206.708 42.6695 211.655 42.3106 215.693 39.9557L216.137 39.5874C220.317 44.6181 226.27 48.1751 233.996 50.2591C214.402 55.5355 195.299 62.9058 176.686 72.3692C157.531 81.7823 139.679 93.3646 123.131 107.116C119.88 109.817 116.752 112.666 113.748 115.663C110.497 118.364 107.517 121.09 104.808 123.842C89.5382 138.531 78.3784 153.057 71.3291 167.418C63.9843 182.026 60.2827 195.607 60.2243 208.161C59.92 220.42 62.7185 230.1 68.62 237.202C76.4887 246.672 89.2588 250.317 106.931 248.139C124.604 245.96 146.147 234.311 171.561 213.193L180.87 205.458C183.874 202.461 187.027 199.342 190.327 196.099C196.878 190.155 206.855 178.114 220.256 159.974C233.363 142.08 248.317 121.9 265.118 99.4351C262.404 108.193 260.65 116.904 259.856 125.568C258.41 144.942 258.577 152.056 260 157.377C255.816 158.353 251.95 160.314 248.404 163.261C244.267 166.699 240.695 171.418 237.688 177.418C234.681 183.418 233.101 190.234 232.948 197.865C232.745 206.038 234.51 215.076 238.243 224.98C241.731 234.588 246.549 243.09 252.696 250.489C258.843 257.887 265.534 262.332 272.769 263.824C275.722 264.371 278.183 264.327 280.152 263.691C281.58 263.005 282.59 262.416 283.181 261.925L284.511 260.82C282.099 260.323 279.91 258.891 277.943 256.523C274.5 252.38 273.347 247.085 274.484 240.638C275.375 233.895 277.102 228.458 279.665 224.327C281.932 220.443 284.519 216.042 287.427 211.124C289.793 206.156 291.324 199.882 292.018 192.301C292.415 187.97 292.148 183.44 291.216 178.711C289.743 173.932 287.408 169.619 284.211 165.772C279.785 160.446 273.782 157.43 266.203 156.725C265.467 152.834 265.324 146.95 265.773 139.074C266.221 131.197 267.889 112.39 270.062 103.581C271.938 95.0182 275.242 87.2708 279.972 80.3385L280.859 79.6019C280.613 79.3059 280.638 79.0352 280.933 78.7896C284.333 74.464 288.028 69.8928 292.018 65.0762C295.467 60.2091 299.04 55.4901 302.735 50.919C328.084 51.3659 352.643 54.4691 376.413 60.23L373.534 60.3717C361.623 59.2637 351.235 62.393 342.369 69.7597C336.754 74.4253 333.403 79.7111 332.316 85.617C331.229 91.5229 332.284 96.3993 335.48 100.246C337.939 103.206 341.432 105.305 345.96 106.545C349.109 107.931 351.718 107.764 353.787 106.045C354.969 105.062 354.945 103.832 353.716 102.352L352.978 101.464C349.337 99.4872 348.503 95.1776 350.477 88.535C352.451 81.8924 355.802 76.6067 360.53 72.6778C363.485 70.2222 367.375 67.9901 372.201 65.9816C376.78 63.6771 381.235 62.7263 385.567 63.1293C392.998 65.4588 400.674 68.0841 408.597 71.0055C415.978 73.8766 426.004 76.6803 433.04 80.3384L442.389 85.617C456.657 93.7706 459.895 90.3232 472.636 100.246C485.082 110.414 475.811 83.455 486.385 96.1797L483.635 88.535C456.899 63.3864 486.531 94.6264 461.087 76.931L447.656 69.3144C403.892 51.6332 359.767 39.2957 311.972 39.4912C317.49 32.9053 340.147 10.145 345.96 3.31347C351.773 -3.51803 357.562 -10.0788 363.325 -16.3688C367.463 -19.8066 372.583 -22.0607 378.688 -23.1311C384.251 -24.2519 388.779 -24.5134 392.274 -23.9153C400.05 -22.3728 405.659 -19.5302 409.101 -15.3873C411.069 -13.0199 411.805 -10.6305 411.311 -8.21901C410.817 -5.80754 411.234 -4.40357 412.563 -4.00691C413.646 -3.90618 414.926 -4.46978 416.404 -5.69756C417.881 -6.92535 418.94 -8.0555 419.581 -9.0881C424.657 -16.8074 424.49 -23.9219 419.08 -30.4322C414.162 -36.3507 406.485 -38.976 396.05 -38.3085C390.29 -38.0251 384.678 -36.3628 379.212 -33.3217C384.335 -38.5791 389.285 -43.443 394.063 -47.9134C398.841 -52.3838 403.742 -56.7062 408.766 -60.8806C420.882 -70.9484 432.652 -78.7275 444.075 -84.218C455.203 -89.4629 465.197 -91.264 474.055 -89.6207C478.533 -87.8389 481.879 -85.6164 484.092 -82.9531C486.797 -79.6979 488.246 -76.1501 488.44 -72.3094C488.388 -68.7646 486.639 -66.0603 483.192 -64.1966C481.469 -63.2647 480.828 -62.2322 481.27 -61.0989C481.466 -60.2615 482.524 -59.8901 484.444 -59.9845C487.151 -59.7327 489.687 -60.5891 492.051 -62.5535C493.233 -63.5357 493.996 -64.4204 494.342 -65.2074C496.46 -67.4678 497.151 -70.5434 496.416 -74.4345L498.26 -72.2152C501.211 -68.6641 506.868 -64.8614 515.233 -60.8067C523.598 -56.752 531.595 -54.643 539.224 -54.4794C545.23 -54.4668 550.005 -55.9339 553.551 -58.8806C556.506 -61.3361 558.305 -64.5819 558.948 -68.6178C559.393 -70.4878 559.049 -71.2024 557.916 -70.7616L552.82 -68.7782C549.669 -67.1601 545.608 -67.5377 540.639 -69.9114C535.964 -72.5306 532.447 -75.8611 530.088 -79.9033C527.924 -83.1081 525.638 -86.4607 523.229 -89.9615C521.115 -93.7077 518.706 -97.2082 516.001 -100.463C510.345 -107.27 504.885 -111.737 499.62 -113.865C493.863 -116.585 488.473 -117.359 483.452 -116.188C478.726 -115.262 474.59 -113.326 471.044 -110.379C467.497 -107.433 465.034 -104.385 463.653 -101.237L459.444 -99.9904C450.829 -98.3344 441.77 -94.8082 432.266 -89.4122C422.762 -84.0162 413.134 -77.2666 403.382 -69.1632L396.733 -63.6382C394.369 -61.6738 392.275 -59.6841 390.453 -57.6693C391.686 -62.1963 392.527 -66.8963 392.973 -71.7696C393.42 -76.6429 393.251 -80.7542 392.466 -84.1038C394.976 -84.6894 397.562 -86.0872 400.221 -88.2972C403.767 -91.2439 406.724 -95.2011 409.09 -100.169C411.21 -105.433 412.175 -111.486 411.983 -118.33C411.692 -124.091 410.097 -130.52 407.198 -137.616C404.299 -144.711 400.514 -151.07 395.842 -156.693C393.137 -159.948 390.259 -162.81 387.209 -165.278C383.864 -167.5 380.296 -168.788 376.506 -169.14C372.717 -169.493 369.935 -168.932 368.162 -167.459C367.867 -167.214 367.842 -166.943 368.088 -166.647L367.201 -165.91C369.613 -165.413 371.679 -164.128 373.4 -162.057C376.105 -158.802 377.234 -154.738 376.788 -149.864C376.045 -144.746 374.836 -140.489 373.16 -137.096C371.484 -133.702 369.783 -130.038 368.058 -126.102C366.037 -121.922 365.024 -116.828 365.019 -110.821C364.866 -103.19 367.125 -96.5637 371.797 -90.9411C376.224 -85.6145 381.587 -83.068 387.887 -83.301C388.869 -79.114 388.618 -73.4035 387.136 -66.1691C385.359 -58.6891 382.573 -52.1222 378.779 -46.4681C368.287 -36.2492 357.843 -25.0701 347.449 -12.9308C337.054 -0.791523 309.52 27.5221 298.83 39.9069C292.233 40.3855 285.76 41.0123 279.41 41.7868C272.518 42.5109 265.75 43.3831 259.104 44.4031L257.036 44.6204L255.338 45.2815L247.806 47.0384C237.37 47.7059 228.144 44.1175 220.126 36.2724C222.935 32.4379 224.168 27.9109 223.828 22.6913C222.946 17.4213 221.029 13.0109 218.078 9.45983C214.882 5.61283 211.734 2.72619 208.634 0.799543C205.239 -0.881554 202.115 -2.53733 199.261 -4.16802C197.686 -4.86061 196.137 -5.82395 194.612 -7.058C193.087 -8.29207 191.709 -9.64881 190.48 -11.1284C188.759 -13.1999 187.604 -15.4915 187.015 -18.0037C186.18 -20.8119 186.699 -23.4942 188.571 -26.0505C188.03 -26.1008 187.07 -26.0535 185.692 -25.9087ZM118.911 121.877L126.89 115.247C151.122 95.1117 177.369 79.8048 205.63 69.3276C233.35 58.8 261.337 52.8021 289.592 51.3348C277.521 66.8678 265.746 82.155 254.266 97.1969C242.245 112.188 230.864 126.147 220.124 139.074C215.249 141.624 210.646 142.697 206.315 142.294C200.31 142.282 195.586 140.204 192.144 136.061C190.668 134.286 190.005 132.586 190.154 130.961C190.551 126.63 189.567 125.446 187.203 127.41C185.43 128.884 183.926 131.884 182.693 136.411C181.213 140.642 181.948 144.533 184.899 148.084C187.604 151.339 191.392 153.193 196.265 153.647C200.596 154.05 205.027 153.369 209.557 151.606C204.63 157.701 199.876 163.403 195.294 168.71C190.467 173.722 185.812 178.341 181.33 182.566C179.211 184.826 177.118 186.815 175.049 188.534L168.844 193.691C149.931 209.407 133.73 217.866 120.243 219.069C106.755 220.271 96.8144 217.026 90.4211 209.332C83.536 201.046 81.6006 189.399 84.6141 174.388C87.3817 159.082 96.1299 144.059 110.858 129.32C113.272 126.814 115.956 124.333 118.911 121.877Z" fill="url(#paint1_linear_48_84)"/>
<path d="M448.002 457.993C432.074 523.059 427.131 561.914 423.002 634C418.532 562.432 411.849 524.202 393.34 459.112L420.249 431.219L448.002 457.993Z" fill="white"/>
<path d="M464.037 197.15C483.117 197.15 507.525 202.876 520.5 210.5L512 193.5C495.973 184.732 479 185.5 455.5 185.5C429 189 421.297 191.113 405.651 199.5C399.941 202.624 391 207.343 386.5 212.59C377 221.5 364.5 234.5 359.5 251L365.5 264.343C376 230.343 393.821 220.596 405.651 212.59C417.481 204.584 432.173 199.246 449.726 196.578C442.094 199.628 431.6 206.109 427.403 212.59C424.731 216.783 423.396 221.168 423.396 225.743C423.396 229.936 424.731 233.368 427.403 236.036C429.692 239.086 433.318 240.611 438.278 240.611C443.621 240.611 446.292 239.467 446.292 237.18C446.292 236.036 445.395 235.008 443.869 234.627C441.961 234.246 440.759 233.177 439.996 230.889C438.851 228.602 438.278 226.124 438.278 223.455C438.278 221.168 438.66 218.499 439.423 215.449C440.186 212.781 441.904 209.54 444.575 205.728C446.864 202.297 449.917 199.628 453.733 197.722C455.26 197.34 456.977 197.15 458.885 197.15H464.037Z" fill="#D02A1E"/>
</g>
<defs>
<linearGradient id="paint0_linear_48_84" x1="675.547" y1="353.225" x2="402.221" y2="63.4007" gradientUnits="userSpaceOnUse">
<stop offset="0.140001" stop-color="white"/>
<stop offset="0.534626" stop-color="#D02A1E"/>
</linearGradient>
<linearGradient id="paint1_linear_48_84" x1="467.448" y1="59.4085" x2="241.418" y2="-114.926" gradientUnits="userSpaceOnUse">
<stop offset="0.0811113" stop-color="white"/>
<stop offset="0.535729" stop-color="#D02A1E"/>
</linearGradient>
<clipPath id="clip0_48_84">
<rect width="853" height="634" fill="white" transform="matrix(-1 0 0 -1 853 634)"/>
</clipPath>
</defs>
</svg>
