<svg width="861" height="430" viewBox="0 0 861 430" fill="none" xmlns="http://www.w3.org/2000/svg">
<g clip-path="url(#clip0_25_57)">
<path d="M460.993 355.992C445.067 421.059 440.126 459.914 436 532C431.527 460.432 424.843 422.203 406.332 357.113L433.239 329.219L460.993 355.992Z" fill="white"/>
<path d="M458.199 304.066L433.75 329.411L408.405 304.962L432.854 279.618L458.199 304.066Z" fill="white"/>
<path d="M467.687 244.601L433.675 279.86L398.416 245.848L432.429 210.589L467.687 244.601Z" fill="white"/>
<path fill-rule="evenodd" clip-rule="evenodd" d="M283.122 155.864C274.726 155.864 265.568 153.004 255.646 147.286C246.106 141.567 239.046 135.467 234.467 128.986C229.506 121.743 227.026 114.308 227.026 106.684C227.026 97.5346 229.697 90.8622 235.039 86.6688C234.658 85.5251 234.467 84.3813 234.467 83.2376V79.8065C234.467 76.7567 234.849 73.5159 235.612 70.0849C236.375 66.6539 237.52 63.6037 239.046 60.9352L241.336 56.9322C227.216 64.1754 213.669 69.132 200.695 71.8005C188.102 74.8503 176.272 76.3753 165.206 76.3753C142.309 76.3753 121.703 72.5626 103.386 64.9382C85.4501 57.695 71.1399 46.2568 60.455 30.6267C50.1517 14.9966 45 -5.01999 45 -29.4182C45 -48.4792 48.816 -65.8272 56.4481 -81.4573C64.0803 -97.4686 73.8112 -111.385 85.6409 -123.203C87.549 -126.253 88.6938 -129.493 89.0754 -132.924C89.8386 -136.737 90.2202 -139.978 90.2202 -142.646C90.2202 -149.127 88.503 -155.037 85.0685 -160.374C81.6341 -166.092 77.818 -168.38 73.6204 -167.236C73.2388 -167.236 72.8572 -167.045 72.4756 -166.664H71.9032C69.9951 -166.664 69.0411 -167.427 69.0411 -168.951C69.0411 -171.62 70.7583 -173.717 74.1928 -175.242C78.0088 -177.91 82.0157 -179.245 86.2133 -179.245C91.5558 -179.245 95.9443 -176.767 99.3787 -171.811C102.813 -167.236 104.53 -161.136 104.53 -153.511C103.767 -147.031 102.05 -140.93 99.3787 -135.212C115.406 -148.174 132.769 -158.087 151.468 -164.949C170.166 -171.81 187.148 -175.242 202.412 -175.242C228.743 -175.242 247.823 -168.379 259.653 -154.655C271.483 -141.312 277.397 -126.062 277.397 -108.906C277.397 -95.1826 273.009 -81.4566 264.232 -67.7327C255.837 -54.3901 244.389 -43.3331 229.888 -34.565C215.768 -25.7968 200.313 -21.4123 183.523 -21.4123C173.601 -21.4123 163.679 -23.128 153.757 -26.559C153.376 -26.9402 152.994 -27.1308 152.613 -27.1308C152.231 -27.1308 151.849 -27.3215 151.468 -27.7027C145.362 -29.6088 139.638 -33.8027 134.296 -40.2836C129.335 -46.7644 126.854 -55.1524 126.854 -65.4453C126.854 -74.5945 128.762 -84.3171 132.578 -94.61C136.776 -105.284 142.309 -111.956 149.178 -114.625C151.468 -115.387 152.994 -115.769 153.757 -115.769C155.284 -115.769 156.429 -115.387 157.192 -114.625C158.337 -114.244 159.1 -113.863 159.482 -113.481C155.284 -111.575 153.185 -107.762 153.185 -102.044C153.185 -98.9944 153.948 -95.5629 155.475 -91.7507C157.383 -88.3197 159.291 -85.6508 161.199 -83.7447C163.87 -81.0762 166.541 -78.026 169.212 -74.595C172.265 -71.164 174.746 -66.3981 176.654 -60.2986C177.035 -58.7737 177.226 -57.2486 177.226 -55.7237C177.608 -54.5801 177.799 -53.2456 177.799 -51.7207C177.799 -47.1461 176.845 -42.7615 174.937 -38.568C173.029 -34.3746 169.976 -31.1337 165.778 -28.8464C168.068 -28.4652 170.166 -28.0839 172.074 -27.7027H178.943C194.208 -27.7027 208.136 -31.8966 220.729 -40.2836C233.322 -48.6705 243.435 -59.1554 251.067 -71.7357C259.08 -84.3161 263.087 -96.898 263.087 -109.478C263.087 -124.727 258.699 -137.881 249.922 -148.937C241.527 -160.373 225.69 -166.092 202.412 -166.092C181.805 -166.092 163.107 -161.708 146.316 -152.939C129.907 -144.553 115.597 -133.305 103.386 -119.2C91.1742 -105.095 81.8249 -89.4626 75.3376 -72.3076C68.8503 -55.5337 65.6067 -38.9485 65.6067 -22.556C65.6067 -6.92588 68.8503 7.56251 75.3376 20.9052C82.2065 34.6291 92.7006 45.686 106.82 54.0729C121.321 62.4598 140.02 66.8444 162.916 67.2256C156.81 65.3195 151.659 62.2694 147.461 58.0759C143.645 54.2637 141.737 49.879 141.737 44.9232C141.737 39.5861 143.454 35.7733 146.889 33.486C150.705 31.1987 154.33 30.0549 157.764 30.0549C160.054 30.0549 161.58 30.4362 162.344 31.1986C163.107 32.3423 162.153 33.6767 159.482 35.2016C156.81 36.7265 155.475 39.586 155.475 43.7795C155.475 47.5917 156.619 51.2138 158.909 54.6448C160.436 57.3133 162.916 59.7916 166.35 62.0789C170.166 64.7474 174.746 66.0819 180.088 66.0819H181.233C199.55 66.0819 218.058 61.6973 236.757 52.9292C255.455 44.161 274.154 32.5323 292.852 18.0459C311.551 3.55951 330.059 -12.4538 348.376 -29.9901C366.693 -47.5264 384.438 -65.2556 401.61 -83.1729C397.794 -82.0292 379.495 -103.528 374.153 -103.528V-102.956C369.955 -95.713 362.132 -92.0909 350.684 -92.0909C343.815 -92.0909 336.756 -93.9973 329.505 -97.8095C321.873 -102.003 314.432 -109.247 307.181 -119.54C300.312 -129.833 296.878 -139.365 296.878 -148.133V-151.564C297.259 -153.089 297.641 -154.423 298.023 -155.567C299.167 -158.998 300.503 -161.095 302.03 -161.858C303.556 -163.001 304.701 -163.573 305.464 -163.573C303.938 -156.711 306.418 -151.564 312.905 -148.133C319.774 -145.083 325.689 -143.558 330.65 -143.558H334.084C335.611 -143.939 336.946 -144.13 338.091 -144.13C341.144 -144.13 344.388 -143.749 347.822 -142.986C351.638 -142.605 355.645 -141.461 359.843 -139.555C365.185 -136.887 369.574 -132.693 373.008 -126.974C376.824 -121.637 378.16 -115.918 377.015 -109.818C385.792 -109.818 407.525 -90.6072 414.775 -96.3256C433.856 -116.53 451.982 -136.166 469.154 -155.227C486.708 -174.669 502.544 -191.636 516.664 -206.122C531.165 -221.371 547.001 -236.813 564.174 -252.443C581.346 -268.073 599.663 -281.608 619.125 -293.045C611.874 -297.238 605.196 -301.051 599.091 -304.482C592.985 -308.294 588.024 -311.153 584.208 -313.06C573.905 -318.778 559.976 -324.878 542.422 -331.359C524.868 -338.221 505.979 -343.94 485.754 -348.515C465.529 -353.471 446.067 -355.949 427.368 -355.949C400.656 -355.949 377.95 -350.039 359.252 -338.221C340.935 -326.785 327.006 -312.296 317.466 -294.76C308.308 -277.224 303.728 -259.304 303.728 -241.006C303.728 -226.519 306.781 -212.793 312.887 -199.832C319.374 -186.87 328.914 -176.385 341.507 -168.38C354.482 -160.755 370.509 -156.942 389.589 -156.942H394.741C396.649 -156.942 398.366 -157.133 399.893 -157.514C403.709 -159.42 406.762 -162.089 409.051 -165.52C411.722 -169.333 413.44 -172.573 414.203 -175.242C414.966 -178.292 415.348 -180.961 415.348 -183.248C415.348 -185.916 414.775 -188.395 413.63 -190.682C412.867 -192.969 411.532 -194.304 409.624 -194.685C408.097 -195.066 407.334 -195.829 407.334 -196.973C407.334 -199.26 410.005 -200.404 415.348 -200.404C420.309 -200.404 423.934 -198.879 426.223 -195.829C428.895 -193.16 430.23 -189.729 430.23 -185.535C430.23 -180.961 428.895 -176.576 426.223 -172.383C422.026 -165.902 416.111 -161.136 408.479 -158.086C426.033 -160.755 440.724 -166.093 452.554 -174.098C464.384 -182.104 473.161 -191.445 478.885 -202.119C484.991 -212.793 488.043 -223.278 488.043 -233.571C488.043 -246.914 484.037 -259.877 476.023 -272.458C468.009 -285.038 455.225 -292.473 437.672 -294.76H432.52C430.994 -294.76 429.276 -294.379 427.368 -293.616C423.934 -292.092 420.881 -289.613 418.21 -286.182C415.92 -283.133 414.775 -280.082 414.775 -277.033C414.775 -273.602 416.111 -271.123 418.782 -269.598C419.545 -269.217 419.927 -268.455 419.927 -267.311C419.927 -265.786 418.973 -265.024 417.065 -265.024C413.63 -265.024 410.196 -267.692 406.762 -273.03C405.998 -275.317 405.617 -277.223 405.617 -278.748C405.617 -279.892 405.998 -281.608 406.762 -283.895C405.235 -283.132 404.281 -282.37 403.9 -281.607C400.847 -278.939 395.504 -276.461 387.872 -274.173C380.24 -271.886 372.608 -270.742 364.976 -270.742H359.824C358.298 -271.123 356.581 -271.505 354.673 -271.886C349.712 -273.029 345.323 -275.317 341.507 -278.748C338.073 -282.56 336.355 -287.136 336.355 -292.473C336.355 -293.998 336.737 -294.76 337.5 -294.76C337.882 -294.76 339.79 -293.426 343.224 -290.757C345.132 -289.613 347.613 -289.042 350.666 -289.042C358.679 -289.042 365.548 -291.901 371.272 -297.619C377.76 -304.481 385.201 -310.391 393.596 -315.347C401.992 -320.303 409.624 -322.781 416.493 -322.781C425.651 -322.781 432.711 -320.303 437.672 -315.347C443.014 -310.772 446.639 -305.435 448.547 -299.335C464.575 -295.523 476.595 -287.516 484.609 -275.317C493.004 -263.499 497.202 -249.583 497.202 -233.571C497.202 -220.229 493.004 -206.884 484.609 -193.541C476.214 -180.199 464.002 -169.142 447.975 -160.374C432.329 -151.987 412.867 -147.793 389.589 -147.793C365.167 -147.793 344.942 -152.177 328.914 -160.946C312.887 -170.095 300.866 -181.724 292.852 -195.829C284.839 -210.315 280.832 -225.757 280.832 -242.149C280.832 -255.492 283.503 -269.218 288.846 -283.323C286.174 -282.179 283.503 -281.226 280.832 -280.464C278.542 -279.701 275.68 -279.129 272.246 -278.748C272.627 -270.361 268.43 -261.973 259.653 -253.586C250.876 -245.199 239.046 -241.006 224.164 -241.006C213.097 -241.006 201.649 -243.102 189.819 -247.296C177.989 -251.489 170.357 -257.59 166.923 -265.595C165.778 -268.645 165.206 -270.933 165.206 -272.458C165.206 -275.126 165.969 -276.842 167.495 -277.604C170.166 -273.03 174.364 -270.742 180.088 -270.742C184.286 -270.742 188.484 -271.886 192.681 -274.173C197.26 -276.461 200.886 -278.939 203.557 -281.607C206.61 -284.657 210.044 -287.898 213.86 -291.329C218.058 -295.141 223.782 -298.382 231.032 -301.051C234.467 -302.194 238.474 -302.766 243.053 -302.766C249.159 -302.766 254.883 -301.241 260.225 -298.191C265.949 -295.523 269.765 -290.948 271.673 -284.467C276.634 -285.229 280.832 -286.373 284.266 -287.898C287.701 -289.423 291.326 -292.473 295.142 -297.048C305.827 -317.252 322.427 -334.41 344.942 -348.515C367.838 -362.62 396.267 -369.673 430.23 -369.673C439.007 -369.673 447.975 -368.911 457.133 -367.386C466.674 -365.861 476.214 -363.955 485.754 -361.667C481.175 -366.242 478.885 -371.199 478.885 -376.536C478.885 -381.873 480.411 -385.304 483.464 -386.829C486.517 -388.735 489.379 -389.688 492.05 -389.688C489.761 -389.688 488.616 -386.829 488.616 -381.111C488.616 -377.298 489.57 -372.914 491.478 -367.958C493.386 -363.002 496.248 -359.571 500.064 -357.664C518 -352.709 534.79 -346.608 550.436 -339.365C566.463 -332.503 579.247 -326.403 588.787 -321.066C591.84 -319.541 596.992 -316.681 604.242 -312.488C611.874 -308.294 620.27 -303.719 629.428 -298.763C642.403 -306.006 655.759 -311.535 669.497 -315.347C683.616 -319.54 697.926 -321.637 712.427 -321.637C727.31 -321.637 738.949 -317.825 747.344 -310.2C755.739 -302.957 759.937 -294.95 759.937 -286.182C759.937 -277.414 755.358 -269.598 746.199 -262.736C737.041 -255.874 722.349 -253.205 702.124 -254.73C699.071 -255.111 694.683 -256.446 688.958 -258.733C683.234 -261.02 676.747 -263.689 669.497 -266.739L660.338 -271.314C655.377 -273.983 650.226 -276.651 644.883 -279.32C639.922 -282.37 634.771 -285.229 629.428 -287.898C608.822 -276.461 588.978 -262.354 569.898 -245.58C551.199 -229.188 533.454 -211.84 516.664 -193.541C500.255 -175.624 485.181 -158.848 471.444 -143.218L462.858 -134.068C420.881 -87.1779 383.293 -49.6225 350.093 -21.4123C317.275 6.41677 288.464 28.5306 263.66 44.9232V45.4951H262.515V46.0669C255.646 50.2604 250.113 55.7889 245.915 62.6508C240.954 70.2752 238.855 77.5194 239.619 84.3813C241.908 83.2377 244.579 82.6658 247.632 82.6658C252.212 82.6658 256.6 84.0002 260.798 86.6688C265.377 89.3373 268.811 92.7688 271.101 96.9622C274.154 102.299 275.871 107.065 276.253 111.259C277.016 115.833 277.588 120.027 277.97 123.84C278.352 128.795 280.45 134.133 284.266 139.852C288.082 145.57 293.043 147.476 299.149 145.57C299.149 145.951 298.767 146.904 298.004 148.429C297.623 150.335 295.905 152.051 292.852 153.576C290.181 155.101 286.938 155.864 283.122 155.864ZM709.565 -266.167C720.632 -266.167 728.645 -268.455 733.606 -273.03C738.949 -277.985 741.62 -283.133 741.62 -288.47C741.62 -294.569 739.14 -300.098 734.179 -305.054C729.218 -310.009 721.967 -312.488 712.427 -312.488C700.216 -312.488 688.005 -310.772 675.793 -307.341C663.582 -303.91 651.561 -299.335 639.732 -293.616C644.692 -290.948 649.462 -288.279 654.042 -285.61C659.003 -283.323 663.773 -281.226 668.352 -279.32L676.938 -275.317C686.478 -270.742 693.347 -268.073 697.545 -267.311L703.269 -266.167H709.565Z" fill="url(#paint0_linear_25_57)"/>
<path d="M444.543 -0.17627L544.221 -99.854L643.9 -0.174144L544.223 99.5036L444.543 -0.17627Z" fill="white"/>
<path d="M222.085 -0.17627L321.763 -99.854L421.441 -0.17627L321.763 99.5015L222.085 -0.17627Z" fill="white"/>
<path d="M333.382 110.289L433.059 10.6113L532.737 110.289L433.059 209.967L333.382 110.289Z" fill="white"/>
<path fill-rule="evenodd" clip-rule="evenodd" d="M691.375 197.82C692.999 197.971 694.845 197.187 696.914 195.468C700.51 191.98 702.359 186.691 702.463 179.602C703.108 172.562 702.4 165.397 700.338 158.106C698.276 150.815 695.646 145.246 692.45 141.399C688.024 136.073 682.612 132.566 676.214 130.879C670.358 129.242 665.411 129.601 661.373 131.955L660.929 132.324C656.749 127.293 650.796 123.736 643.07 121.652C662.664 116.376 681.768 109.005 700.381 99.5419C719.535 90.1288 737.387 78.5465 753.936 64.7953C757.186 62.0942 760.314 59.2453 763.319 56.2482C766.569 53.5471 769.549 50.8207 772.258 48.0693C787.528 33.3799 798.688 18.8546 805.737 4.49275C813.082 -10.1146 816.784 -23.6954 816.842 -36.2502C817.146 -48.509 814.348 -58.1891 808.446 -65.2912C800.577 -74.7608 787.807 -78.406 770.135 -76.2274C752.463 -74.0487 730.919 -62.4001 705.505 -41.2822L696.196 -33.5472C693.192 -30.5501 690.039 -27.4304 686.739 -24.1878C680.188 -18.2441 670.212 -6.20251 656.81 11.9371C643.704 29.8312 628.75 50.0108 611.948 72.476C614.662 63.7179 616.416 55.0071 617.21 46.3435C618.656 26.9692 618.489 19.8546 617.066 14.5343C621.251 13.5584 625.116 11.5971 628.662 8.65037C632.799 5.21258 636.371 0.493501 639.378 -5.50686C642.385 -11.5072 643.965 -18.3228 644.119 -25.9539C644.322 -34.1264 642.556 -43.1645 638.823 -53.0685C635.335 -62.6766 630.518 -71.1794 624.37 -78.5774C618.223 -85.9755 611.532 -90.4204 604.297 -91.9125C601.344 -92.4603 598.883 -92.4162 596.914 -91.7803C595.486 -91.094 594.476 -90.5051 593.885 -90.014L592.556 -88.9091C594.967 -88.4117 597.156 -86.9794 599.124 -84.612C602.566 -80.4691 603.719 -75.1741 602.582 -68.7268C601.691 -61.9834 599.964 -56.5466 597.402 -52.4162C595.135 -48.5314 592.547 -44.1304 589.639 -39.213C587.273 -34.2452 585.743 -27.971 585.048 -20.3903C584.651 -16.0585 584.918 -11.5284 585.85 -6.79994C587.323 -2.02108 589.658 2.29169 592.855 6.13868C597.281 11.4653 603.284 14.481 610.864 15.1861C611.599 19.0772 611.742 24.9609 611.293 32.8375C610.845 40.7141 609.177 59.5215 607.005 68.33C605.128 76.8929 601.824 84.6404 597.094 91.5726L596.207 92.3093C596.453 92.6052 596.428 92.876 596.133 93.1215C592.733 97.4471 589.039 102.018 585.048 106.835C581.599 111.702 578.027 116.421 574.332 120.992C548.982 120.545 524.423 117.442 500.653 111.681L503.532 111.539C515.443 112.647 525.832 109.518 534.697 102.151C540.312 97.4858 543.663 92.2 544.75 86.2941C545.837 80.3882 544.783 75.5118 541.586 71.6649C539.127 68.7056 535.634 66.6061 531.106 65.3657C527.957 63.9806 525.348 64.1475 523.279 65.8664C522.097 66.8486 522.121 68.0795 523.351 69.5591L524.088 70.4469C527.729 72.4239 528.563 76.7336 526.589 83.3761C524.615 90.0187 521.264 95.3044 516.536 99.2333C513.581 101.689 509.691 103.921 504.866 105.93C500.286 108.234 495.831 109.185 491.5 108.782C484.069 106.452 476.392 103.827 468.469 100.906C461.088 98.0346 451.063 95.2308 444.026 91.5727L434.677 86.2941C420.409 78.1405 417.171 81.5879 404.43 71.665C391.984 61.4966 401.255 88.4561 390.681 75.7314L393.431 83.3761C420.167 108.525 390.535 77.2847 415.979 94.9801L429.41 102.597C473.174 120.278 517.299 132.615 565.094 132.42C559.576 139.006 536.919 161.766 531.106 168.598C525.293 175.429 519.504 181.99 513.741 188.28C509.604 191.718 504.483 193.972 498.378 195.042C492.816 196.163 488.287 196.425 484.793 195.826C477.017 194.284 471.407 191.441 467.965 187.298C465.998 184.931 465.261 182.542 465.755 180.13C466.249 177.719 465.832 176.315 464.503 175.918C463.42 175.817 462.14 176.381 460.663 177.609C459.185 178.836 458.126 179.967 457.485 180.999C452.41 188.718 452.577 195.833 457.986 202.343C462.904 208.262 470.581 210.887 481.016 210.22C486.776 209.936 492.388 208.274 497.854 205.233C492.731 210.49 487.781 215.354 483.003 219.825C478.225 224.295 473.324 228.617 468.301 232.792C456.185 242.86 444.415 250.639 432.991 256.129C421.863 261.374 411.87 263.175 403.011 261.532C398.533 259.75 395.187 257.528 392.974 254.864C390.269 251.609 388.82 248.061 388.626 244.22C388.678 240.676 390.427 237.971 393.874 236.108C395.598 235.176 396.238 234.143 395.796 233.01C395.6 232.173 394.542 231.801 392.622 231.896C389.915 231.644 387.38 232.5 385.015 234.465C383.833 235.447 383.07 236.332 382.725 237.119C380.606 239.379 379.915 242.455 380.65 246.346L378.806 244.126C375.856 240.575 370.198 236.773 361.833 232.718C353.468 228.663 345.471 226.554 337.842 226.39C331.837 226.378 327.061 227.845 323.515 230.792C320.56 233.247 318.761 236.493 318.118 240.529C317.674 242.399 318.018 243.113 319.15 242.673L324.246 240.689C327.397 239.071 331.458 239.449 336.428 241.823C341.102 244.442 344.619 247.772 346.979 251.814C349.142 255.019 351.428 258.372 353.838 261.873C355.951 265.619 358.361 269.119 361.065 272.375C366.721 279.181 372.181 283.648 377.447 285.776C383.204 288.496 388.593 289.27 393.614 288.099C398.34 287.173 402.477 285.237 406.023 282.29C409.569 279.344 412.032 276.296 413.413 273.148L417.622 271.902C426.237 270.246 435.297 266.719 444.801 261.323C454.304 255.927 463.932 249.178 473.684 241.074L480.333 235.549C482.697 233.585 484.791 231.595 486.614 229.58C485.38 234.107 484.539 238.807 484.093 243.681C483.646 248.554 483.815 252.665 484.601 256.015C482.09 256.601 479.505 257.998 476.845 260.208C473.299 263.155 470.342 267.112 467.976 272.08C465.856 277.344 464.892 283.397 465.083 290.242C465.375 296.003 466.969 302.431 469.868 309.527C472.767 316.623 476.553 322.982 481.225 328.604C483.929 331.859 486.807 334.721 489.857 337.189C493.202 339.411 496.77 340.699 500.56 341.051C504.35 341.404 507.131 340.844 508.904 339.37C509.2 339.125 509.225 338.854 508.979 338.558L509.865 337.821C507.454 337.324 505.387 336.04 503.666 333.968C500.961 330.713 499.832 326.649 500.279 321.776C501.021 316.657 502.23 312.401 503.906 309.007C505.582 305.613 507.283 301.949 509.008 298.014C511.03 293.833 512.042 288.739 512.047 282.733C512.2 275.101 509.941 268.475 505.269 262.852C500.843 257.526 495.479 254.979 489.179 255.212C488.197 251.025 488.448 245.315 489.93 238.08C491.707 230.6 494.493 224.033 498.288 218.379C508.779 208.16 519.223 196.981 529.618 184.842C540.012 172.703 567.546 144.389 578.237 132.004C584.833 131.526 591.306 130.899 597.656 130.124C604.548 129.4 611.317 128.528 617.962 127.508L620.03 127.291L621.728 126.63L629.261 124.873C639.696 124.205 648.923 127.794 656.94 135.639C654.132 139.473 652.898 144 653.238 149.22C654.121 154.49 656.037 158.9 658.988 162.451C662.184 166.298 665.332 169.185 668.432 171.112C671.827 172.793 674.952 174.448 677.805 176.079C679.38 176.772 680.93 177.735 682.455 178.969C683.98 180.203 685.357 181.56 686.586 183.04C688.308 185.111 689.463 187.403 690.051 189.915C690.886 192.723 690.367 195.405 688.495 197.962C689.036 198.012 689.996 197.965 691.375 197.82ZM758.155 50.0338L750.176 56.6637C725.944 76.7994 699.697 92.1063 671.436 102.584C643.716 113.111 615.729 119.109 587.474 120.576C599.545 105.043 611.321 89.7561 622.8 74.7143C634.822 59.7227 646.202 45.7638 656.942 32.8375C661.817 30.2875 666.42 29.2138 670.751 29.6167C676.756 29.6293 681.48 31.7069 684.923 35.8498C686.398 37.6254 687.061 39.3253 686.912 40.9498C686.516 45.2816 687.499 46.4652 689.863 44.5008C691.636 43.0274 693.14 40.0273 694.374 35.5002C695.853 31.2691 695.118 27.3781 692.167 23.827C689.462 20.5719 685.674 18.7178 680.801 18.2645C676.47 17.8616 672.039 18.5417 667.509 20.3047C672.436 14.2099 677.19 8.50854 681.772 3.20075C686.599 -1.81112 691.254 -6.42954 695.737 -10.6544C697.855 -12.9147 699.948 -14.9042 702.017 -16.6231L708.223 -21.7798C727.135 -37.4955 743.336 -45.9548 756.824 -47.1575C770.312 -48.3602 780.252 -45.1147 786.645 -37.4208C793.53 -29.1349 795.466 -17.4874 792.452 -2.47708C789.685 12.8292 780.936 27.8519 766.208 42.5916C763.794 45.0975 761.11 47.5783 758.155 50.0338Z" fill="url(#paint1_linear_25_57)"/>
</g>
<defs>
<linearGradient id="paint0_linear_25_57" x1="159.39" y1="-293.362" x2="432.716" y2="-3.53719" gradientUnits="userSpaceOnUse">
<stop offset="0.140001" stop-color="white"/>
<stop offset="0.534626" stop-color="#D02A1E"/>
</linearGradient>
<linearGradient id="paint1_linear_25_57" x1="409.618" y1="112.503" x2="635.648" y2="286.837" gradientUnits="userSpaceOnUse">
<stop offset="0.0811113" stop-color="white"/>
<stop offset="0.535729" stop-color="#D02A1E"/>
</linearGradient>
<clipPath id="clip0_25_57">
<rect width="861" height="430" fill="white"/>
</clipPath>
</defs>
</svg>
