<svg width="861" height="430" viewBox="0 0 861 430" fill="none" xmlns="http://www.w3.org/2000/svg">
<g clip-path="url(#clip0_25_56)">
<path d="M408.474 125.805L433.311 100.84L458.276 125.677L433.439 150.642L408.474 125.805Z" fill="white"/>
<path d="M398.069 185.117L432.622 150.387L467.351 184.939L432.799 219.669L398.069 185.117Z" fill="white"/>
<path fill-rule="evenodd" clip-rule="evenodd" d="M283.122 585.864C274.726 585.864 265.568 583.004 255.646 577.286C246.106 571.567 239.046 565.467 234.467 558.986C229.506 551.743 227.026 544.308 227.026 536.684C227.026 527.535 229.697 520.862 235.039 516.669C234.658 515.525 234.467 514.381 234.467 513.238V509.807C234.467 506.757 234.849 503.516 235.612 500.085C236.375 496.654 237.52 493.604 239.046 490.935L241.336 486.932C227.216 494.175 213.669 499.132 200.695 501.8C188.102 504.85 176.272 506.375 165.206 506.375C142.309 506.375 121.703 502.563 103.386 494.938C85.4501 487.695 71.1399 476.257 60.455 460.627C50.1517 444.997 45 424.98 45 400.582C45 381.521 48.816 364.173 56.4481 348.543C64.0803 332.531 73.8112 318.615 85.6409 306.797C87.549 303.747 88.6938 300.507 89.0754 297.076C89.8386 293.263 90.2202 290.022 90.2202 287.354C90.2202 280.873 88.503 274.963 85.0685 269.626C81.6341 263.908 77.818 261.62 73.6204 262.764C73.2388 262.764 72.8572 262.955 72.4756 263.336H71.9032C69.9951 263.336 69.0411 262.573 69.0411 261.049C69.0411 258.38 70.7583 256.283 74.1928 254.758C78.0088 252.09 82.0157 250.755 86.2133 250.755C91.5558 250.755 95.9443 253.233 99.3787 258.189C102.813 262.764 104.53 268.864 104.53 276.489C103.767 282.969 102.05 289.07 99.3787 294.788C115.406 281.826 132.769 271.913 151.468 265.051C170.166 258.19 187.148 254.758 202.412 254.758C228.743 254.758 247.823 261.621 259.653 275.345C271.483 288.688 277.397 303.938 277.397 321.094C277.397 334.817 273.009 348.543 264.232 362.267C255.837 375.61 244.389 386.667 229.888 395.435C215.768 404.203 200.313 408.588 183.523 408.588C173.601 408.588 163.679 406.872 153.757 403.441C153.376 403.06 152.994 402.869 152.613 402.869C152.231 402.869 151.849 402.679 151.468 402.297C145.362 400.391 139.638 396.197 134.296 389.716C129.335 383.236 126.854 374.848 126.854 364.555C126.854 355.405 128.762 345.683 132.578 335.39C136.776 324.716 142.309 318.044 149.178 315.375C151.468 314.613 152.994 314.231 153.757 314.231C155.284 314.231 156.429 314.613 157.192 315.375C158.337 315.756 159.1 316.137 159.482 316.519C155.284 318.425 153.185 322.238 153.185 327.956C153.185 331.006 153.948 334.437 155.475 338.249C157.383 341.68 159.291 344.349 161.199 346.255C163.87 348.924 166.541 351.974 169.212 355.405C172.265 358.836 174.746 363.602 176.654 369.701C177.035 371.226 177.226 372.751 177.226 374.276C177.608 375.42 177.799 376.754 177.799 378.279C177.799 382.854 176.845 387.239 174.937 391.432C173.029 395.625 169.976 398.866 165.778 401.154C168.068 401.535 170.166 401.916 172.074 402.297H178.943C194.208 402.297 208.136 398.103 220.729 389.716C233.322 381.33 243.435 370.845 251.067 358.264C259.08 345.684 263.087 333.102 263.087 320.522C263.087 305.273 258.699 292.119 249.922 281.063C241.527 269.627 225.69 263.908 202.412 263.908C181.805 263.908 163.107 268.292 146.316 277.061C129.907 285.447 115.597 296.695 103.386 310.8C91.1742 324.905 81.8249 340.537 75.3376 357.692C68.8503 374.466 65.6067 391.051 65.6067 407.444C65.6067 423.074 68.8503 437.563 75.3376 450.905C82.2065 464.629 92.7006 475.686 106.82 484.073C121.321 492.46 140.02 496.844 162.916 497.226C156.81 495.32 151.659 492.269 147.461 488.076C143.645 484.264 141.737 479.879 141.737 474.923C141.737 469.586 143.454 465.773 146.889 463.486C150.705 461.199 154.33 460.055 157.764 460.055C160.054 460.055 161.58 460.436 162.344 461.199C163.107 462.342 162.153 463.677 159.482 465.202C156.81 466.727 155.475 469.586 155.475 473.779C155.475 477.592 156.619 481.214 158.909 484.645C160.436 487.313 162.916 489.792 166.35 492.079C170.166 494.747 174.746 496.082 180.088 496.082H181.233C199.55 496.082 218.058 491.697 236.757 482.929C255.455 474.161 274.154 462.532 292.852 448.046C311.551 433.56 330.059 417.546 348.376 400.01C366.693 382.474 384.438 364.744 401.61 346.827C397.794 347.971 379.495 326.472 374.153 326.472V327.044C369.955 334.287 362.132 337.909 350.684 337.909C343.815 337.909 336.756 336.003 329.505 332.191C321.873 327.997 314.432 320.753 307.181 310.46C300.312 300.167 296.878 290.635 296.878 281.867V278.436C297.259 276.911 297.641 275.577 298.023 274.433C299.167 271.002 300.503 268.905 302.03 268.142C303.556 266.999 304.701 266.427 305.464 266.427C303.938 273.289 306.418 278.436 312.905 281.867C319.774 284.917 325.689 286.442 330.65 286.442H334.084C335.611 286.061 336.946 285.87 338.091 285.87C341.144 285.87 344.388 286.251 347.822 287.014C351.638 287.395 355.645 288.539 359.843 290.445C365.185 293.113 369.574 297.307 373.008 303.026C376.824 308.363 378.16 314.082 377.015 320.182C385.792 320.182 407.525 339.393 414.775 333.674C433.856 313.47 451.982 293.834 469.154 274.773C486.708 255.331 502.544 238.364 516.664 223.878C531.165 208.629 547.001 193.187 564.174 177.557C581.346 161.927 599.663 148.392 619.125 136.955C611.874 132.762 605.196 128.949 599.091 125.518C592.985 121.706 588.024 118.847 584.208 116.94C573.905 111.222 559.976 105.122 542.422 98.641C524.868 91.779 505.979 86.0599 485.754 81.4853C465.529 76.5294 446.067 74.0511 427.368 74.0511C400.656 74.0511 377.95 79.9608 359.252 91.7787C340.935 103.215 327.006 117.704 317.466 135.24C308.308 152.776 303.728 170.696 303.728 188.994C303.728 203.481 306.781 217.207 312.887 230.168C319.374 243.13 328.914 253.615 341.507 261.62C354.482 269.245 370.509 273.058 389.589 273.058H394.741C396.649 273.058 398.366 272.867 399.893 272.486C403.709 270.58 406.762 267.911 409.051 264.48C411.722 260.667 413.44 257.427 414.203 254.758C414.966 251.708 415.348 249.039 415.348 246.752C415.348 244.084 414.775 241.605 413.63 239.318C412.867 237.031 411.532 235.696 409.624 235.315C408.097 234.934 407.334 234.171 407.334 233.027C407.334 230.74 410.005 229.596 415.348 229.596C420.309 229.596 423.934 231.121 426.223 234.171C428.895 236.84 430.23 240.271 430.23 244.465C430.23 249.039 428.895 253.424 426.223 257.617C422.026 264.098 416.111 268.864 408.479 271.914C426.033 269.245 440.724 263.907 452.554 255.902C464.384 247.896 473.161 238.555 478.885 227.881C484.991 217.207 488.043 206.722 488.043 196.429C488.043 183.086 484.037 170.123 476.023 157.542C468.009 144.962 455.225 137.527 437.672 135.24H432.52C430.994 135.24 429.276 135.621 427.368 136.384C423.934 137.908 420.881 140.387 418.21 143.818C415.92 146.867 414.775 149.918 414.775 152.967C414.775 156.398 416.111 158.877 418.782 160.402C419.545 160.783 419.927 161.545 419.927 162.689C419.927 164.214 418.973 164.976 417.065 164.976C413.63 164.976 410.196 162.308 406.762 156.97C405.998 154.683 405.617 152.777 405.617 151.252C405.617 150.108 405.998 148.392 406.762 146.105C405.235 146.868 404.281 147.63 403.9 148.393C400.847 151.061 395.504 153.539 387.872 155.827C380.24 158.114 372.608 159.258 364.976 159.258H359.824C358.298 158.877 356.581 158.495 354.673 158.114C349.712 156.971 345.323 154.683 341.507 151.252C338.073 147.44 336.355 142.864 336.355 137.527C336.355 136.002 336.737 135.24 337.5 135.24C337.882 135.24 339.79 136.574 343.224 139.243C345.132 140.387 347.613 140.958 350.666 140.958C358.679 140.958 365.548 138.099 371.272 132.381C377.76 125.519 385.201 119.609 393.596 114.653C401.992 109.697 409.624 107.219 416.493 107.219C425.651 107.219 432.711 109.697 437.672 114.653C443.014 119.228 446.639 124.565 448.547 130.665C464.575 134.477 476.595 142.484 484.609 154.683C493.004 166.501 497.202 180.417 497.202 196.429C497.202 209.771 493.004 223.116 484.609 236.459C476.214 249.801 464.002 260.858 447.975 269.626C432.329 278.013 412.867 282.207 389.589 282.207C365.167 282.207 344.942 277.823 328.914 269.054C312.887 259.905 300.866 248.276 292.852 234.171C284.839 219.685 280.832 204.243 280.832 187.851C280.832 174.508 283.503 160.782 288.846 146.677C286.174 147.821 283.503 148.774 280.832 149.536C278.542 150.299 275.68 150.871 272.246 151.252C272.627 159.639 268.43 168.027 259.653 176.414C250.876 184.801 239.046 188.994 224.164 188.994C213.097 188.994 201.649 186.898 189.819 182.704C177.989 178.511 170.357 172.41 166.923 164.405C165.778 161.355 165.206 159.067 165.206 157.542C165.206 154.874 165.969 153.158 167.495 152.396C170.166 156.97 174.364 159.258 180.088 159.258C184.286 159.258 188.484 158.114 192.681 155.827C197.26 153.539 200.886 151.061 203.557 148.393C206.61 145.343 210.044 142.102 213.86 138.671C218.058 134.859 223.782 131.618 231.032 128.949C234.467 127.806 238.474 127.234 243.053 127.234C249.159 127.234 254.883 128.759 260.225 131.809C265.949 134.477 269.765 139.052 271.673 145.533C276.634 144.771 280.832 143.627 284.266 142.102C287.701 140.577 291.326 137.527 295.142 132.952C305.827 112.748 322.427 95.5904 344.942 81.4853C367.838 67.3801 396.267 60.3265 430.23 60.3265C439.007 60.3265 447.975 61.0891 457.133 62.6139C466.674 64.1388 476.214 66.0452 485.754 68.3326C481.175 63.7579 478.885 58.8013 478.885 53.4642C478.885 48.1272 480.411 44.6957 483.464 43.1708C486.517 41.2647 489.379 40.3115 492.05 40.3115C489.761 40.3115 488.616 43.1711 488.616 48.8894C488.616 52.7016 489.57 57.0862 491.478 62.0421C493.386 66.998 496.248 70.4294 500.064 72.3355C518 77.2914 534.79 83.3918 550.436 90.635C566.463 97.4969 579.247 103.597 588.787 108.934C591.84 110.459 596.992 113.319 604.242 117.512C611.874 121.706 620.27 126.281 629.428 131.237C642.403 123.994 655.759 118.465 669.497 114.653C683.616 110.46 697.926 108.363 712.427 108.363C727.31 108.363 738.949 112.175 747.344 119.8C755.739 127.043 759.937 135.05 759.937 143.818C759.937 152.586 755.358 160.402 746.199 167.264C737.041 174.126 722.349 176.795 702.124 175.27C699.071 174.889 694.683 173.554 688.958 171.267C683.234 168.98 676.747 166.311 669.497 163.261L660.338 158.686C655.377 156.017 650.226 153.349 644.883 150.68C639.922 147.63 634.771 144.771 629.428 142.102C608.822 153.539 588.978 167.646 569.898 184.42C551.199 200.812 533.454 218.16 516.664 236.459C500.255 254.376 485.181 271.152 471.444 286.782L462.858 295.932C420.881 342.822 383.293 380.377 350.093 408.588C317.275 436.417 288.464 458.531 263.66 474.923V475.495H262.515V476.067C255.646 480.26 250.113 485.789 245.915 492.651C240.954 500.275 238.855 507.519 239.619 514.381C241.908 513.238 244.579 512.666 247.632 512.666C252.212 512.666 256.6 514 260.798 516.669C265.377 519.337 268.811 522.769 271.101 526.962C274.154 532.299 275.871 537.065 276.253 541.259C277.016 545.833 277.588 550.027 277.97 553.84C278.352 558.795 280.45 564.133 284.266 569.852C288.082 575.57 293.043 577.476 299.149 575.57C299.149 575.951 298.767 576.904 298.004 578.429C297.623 580.335 295.905 582.051 292.852 583.576C290.181 585.101 286.938 585.864 283.122 585.864ZM709.565 163.833C720.632 163.833 728.645 161.545 733.606 156.97C738.949 152.015 741.62 146.867 741.62 141.53C741.62 135.431 739.14 129.902 734.179 124.946C729.218 119.991 721.967 117.512 712.427 117.512C700.216 117.512 688.005 119.228 675.793 122.659C663.582 126.09 651.561 130.665 639.732 136.384C644.692 139.052 649.462 141.721 654.042 144.39C659.003 146.677 663.773 148.774 668.352 150.68L676.938 154.683C686.478 159.258 693.347 161.927 697.545 162.689L703.269 163.833H709.565Z" fill="url(#paint0_linear_25_56)"/>
<path d="M333.246 319.359L432.924 219.681L532.604 319.361L432.926 419.039L333.246 319.359Z" fill="white"/>
<path d="M444.543 429.824L544.221 330.146L643.9 429.826L544.223 529.504L444.543 429.824Z" fill="white"/>
<path d="M222.085 429.824L321.763 330.146L421.441 429.824L321.763 529.501L222.085 429.824Z" fill="white"/>
<path fill-rule="evenodd" clip-rule="evenodd" d="M691.375 627.82C692.999 627.971 694.845 627.187 696.914 625.468C700.51 621.98 702.359 616.691 702.463 609.602C703.108 602.562 702.4 595.397 700.338 588.106C698.276 580.815 695.646 575.246 692.45 571.399C688.024 566.073 682.612 562.566 676.214 560.879C670.358 559.242 665.411 559.601 661.373 561.955L660.929 562.324C656.749 557.293 650.796 553.736 643.07 551.652C662.664 546.376 681.768 539.005 700.381 529.542C719.535 520.129 737.387 508.546 753.936 494.795C757.186 492.094 760.314 489.245 763.319 486.248C766.569 483.547 769.549 480.821 772.258 478.069C787.528 463.38 798.688 448.855 805.737 434.493C813.082 419.885 816.784 406.305 816.842 393.75C817.146 381.491 814.348 371.811 808.446 364.709C800.577 355.239 787.807 351.594 770.135 353.773C752.463 355.951 730.919 367.6 705.505 388.718L696.196 396.453C693.192 399.45 690.039 402.57 686.739 405.812C680.188 411.756 670.212 423.797 656.81 441.937C643.704 459.831 628.75 480.011 611.948 502.476C614.662 493.718 616.416 485.007 617.21 476.343C618.656 456.969 618.489 449.855 617.066 444.534C621.251 443.558 625.116 441.597 628.662 438.65C632.799 435.213 636.371 430.494 639.378 424.493C642.385 418.493 643.965 411.677 644.119 404.046C644.322 395.874 642.556 386.835 638.823 376.931C635.335 367.323 630.518 358.821 624.37 351.423C618.223 344.025 611.532 339.58 604.297 338.087C601.344 337.54 598.883 337.584 596.914 338.22C595.486 338.906 594.476 339.495 593.885 339.986L592.556 341.091C594.967 341.588 597.156 343.021 599.124 345.388C602.566 349.531 603.719 354.826 602.582 361.273C601.691 368.017 599.964 373.453 597.402 377.584C595.135 381.469 592.547 385.87 589.639 390.787C587.273 395.755 585.743 402.029 585.048 409.61C584.651 413.942 584.918 418.472 585.85 423.2C587.323 427.979 589.658 432.292 592.855 436.139C597.281 441.465 603.284 444.481 610.864 445.186C611.599 449.077 611.742 454.961 611.293 462.838C610.845 470.714 609.177 489.521 607.005 498.33C605.128 506.893 601.824 514.64 597.094 521.573L596.207 522.309C596.453 522.605 596.428 522.876 596.133 523.122C592.733 527.447 589.039 532.018 585.048 536.835C581.599 541.702 578.027 546.421 574.332 550.992C548.982 550.545 524.423 547.442 500.653 541.681L503.532 541.539C515.443 542.647 525.832 539.518 534.697 532.151C540.312 527.486 543.663 522.2 544.75 516.294C545.837 510.388 544.783 505.512 541.586 501.665C539.127 498.706 535.634 496.606 531.106 495.366C527.957 493.981 525.348 494.148 523.279 495.866C522.097 496.849 522.121 498.08 523.351 499.559L524.088 500.447C527.729 502.424 528.563 506.734 526.589 513.376C524.615 520.019 521.264 525.304 516.536 529.233C513.581 531.689 509.691 533.921 504.866 535.93C500.286 538.234 495.831 539.185 491.5 538.782C484.069 536.452 476.392 533.827 468.469 530.906C461.088 528.035 451.063 525.231 444.026 521.573L434.677 516.294C420.409 508.141 417.171 511.588 404.43 501.665C391.984 491.497 401.255 518.456 390.681 505.731L393.431 513.376C420.167 538.525 390.535 507.285 415.979 524.98L429.41 532.597C473.174 550.278 517.299 562.615 565.094 562.42C559.576 569.006 536.919 591.766 531.106 598.598C525.293 605.429 519.504 611.99 513.741 618.28C509.604 621.718 504.483 623.972 498.378 625.042C492.816 626.163 488.287 626.425 484.793 625.826C477.017 624.284 471.407 621.441 467.965 617.298C465.998 614.931 465.261 612.542 465.755 610.13C466.249 607.719 465.832 606.315 464.503 605.918C463.42 605.817 462.14 606.381 460.663 607.609C459.185 608.836 458.126 609.967 457.485 610.999C452.41 618.718 452.577 625.833 457.986 632.343C462.904 638.262 470.581 640.887 481.016 640.22C486.776 639.936 492.388 638.274 497.854 635.233C492.731 640.49 487.781 645.354 483.003 649.825C478.225 654.295 473.324 658.617 468.301 662.792C456.185 672.86 444.415 680.639 432.991 686.129C421.863 691.374 411.87 693.175 403.011 691.532C398.533 689.75 395.187 687.528 392.974 684.864C390.269 681.609 388.82 678.061 388.626 674.22C388.678 670.676 390.427 667.971 393.874 666.108C395.598 665.176 396.238 664.143 395.796 663.01C395.6 662.173 394.542 661.801 392.622 661.896C389.915 661.644 387.38 662.5 385.015 664.465C383.833 665.447 383.07 666.332 382.725 667.119C380.606 669.379 379.915 672.455 380.65 676.346L378.806 674.126C375.856 670.575 370.198 666.773 361.833 662.718C353.468 658.663 345.471 656.554 337.842 656.39C331.837 656.378 327.061 657.845 323.515 660.792C320.56 663.247 318.761 666.493 318.118 670.529C317.674 672.399 318.018 673.113 319.15 672.673L324.246 670.689C327.397 669.071 331.458 669.449 336.428 671.823C341.102 674.442 344.619 677.772 346.979 681.814C349.142 685.019 351.428 688.372 353.838 691.873C355.951 695.619 358.361 699.119 361.065 702.375C366.721 709.181 372.181 713.648 377.447 715.776C383.204 718.496 388.593 719.27 393.614 718.099C398.34 717.173 402.477 715.237 406.023 712.29C409.569 709.344 412.032 706.296 413.413 703.148L417.622 701.902C426.237 700.246 435.297 696.719 444.801 691.323C454.304 685.927 463.932 679.178 473.684 671.074L480.333 665.549C482.697 663.585 484.791 661.595 486.614 659.58C485.38 664.107 484.539 668.807 484.093 673.681C483.646 678.554 483.815 682.665 484.601 686.015C482.09 686.601 479.505 687.998 476.845 690.208C473.299 693.155 470.342 697.112 467.976 702.08C465.856 707.344 464.892 713.397 465.083 720.242C465.375 726.003 466.969 732.431 469.868 739.527C472.767 746.623 476.553 752.982 481.225 758.604C483.929 761.859 486.807 764.721 489.857 767.189C493.202 769.411 496.77 770.699 500.56 771.051C504.35 771.404 507.131 770.844 508.904 769.37C509.2 769.125 509.225 768.854 508.979 768.558L509.865 767.821C507.454 767.324 505.387 766.04 503.666 763.968C500.961 760.713 499.832 756.649 500.279 751.776C501.021 746.657 502.23 742.401 503.906 739.007C505.582 735.613 507.283 731.949 509.008 728.014C511.03 723.833 512.042 718.739 512.047 712.733C512.2 705.101 509.941 698.475 505.269 692.852C500.843 687.526 495.479 684.979 489.179 685.212C488.197 681.025 488.448 675.315 489.93 668.08C491.707 660.6 494.493 654.033 498.288 648.379C508.779 638.16 519.223 626.981 529.618 614.842C540.012 602.703 567.546 574.389 578.237 562.004C584.833 561.526 591.306 560.899 597.656 560.124C604.548 559.4 611.317 558.528 617.962 557.508L620.03 557.291L621.728 556.63L629.261 554.873C639.696 554.205 648.923 557.794 656.94 565.639C654.132 569.473 652.898 574 653.238 579.22C654.121 584.49 656.037 588.9 658.988 592.451C662.184 596.298 665.332 599.185 668.432 601.112C671.827 602.793 674.952 604.448 677.805 606.079C679.38 606.772 680.93 607.735 682.455 608.969C683.98 610.203 685.357 611.56 686.586 613.04C688.308 615.111 689.463 617.403 690.051 619.915C690.886 622.723 690.367 625.405 688.495 627.962C689.036 628.012 689.996 627.965 691.375 627.82ZM758.155 480.034L750.176 486.664C725.944 506.799 699.697 522.106 671.436 532.584C643.716 543.111 615.729 549.109 587.474 550.576C599.545 535.043 611.321 519.756 622.8 504.714C634.822 489.723 646.202 475.764 656.942 462.838C661.817 460.287 666.42 459.214 670.751 459.617C676.756 459.629 681.48 461.707 684.923 465.85C686.398 467.625 687.061 469.325 686.912 470.95C686.516 475.282 687.499 476.465 689.863 474.501C691.636 473.027 693.14 470.027 694.374 465.5C695.853 461.269 695.118 457.378 692.167 453.827C689.462 450.572 685.674 448.718 680.801 448.264C676.47 447.862 672.039 448.542 667.509 450.305C672.436 444.21 677.19 438.509 681.772 433.201C686.599 428.189 691.254 423.57 695.737 419.346C697.855 417.085 699.948 415.096 702.017 413.377L708.223 408.22C727.135 392.505 743.336 384.045 756.824 382.843C770.312 381.64 780.252 384.885 786.645 392.579C793.53 400.865 795.466 412.513 792.452 427.523C789.685 442.829 780.936 457.852 766.208 472.592C763.794 475.098 761.11 477.578 758.155 480.034Z" fill="url(#paint1_linear_25_56)"/>
<path d="M388.9 272.557C369.82 272.557 353.793 268.744 340.818 261.12L328.225 268.554C344.253 277.322 364.478 281.707 388.9 281.707C412.178 281.707 431.64 277.513 447.286 269.126C452.996 266.002 462.071 260.233 466.813 256.528C475.38 249.834 478.516 244.547 483.92 235.958L480.012 225.73C474.288 236.405 459.116 249.111 447.286 257.117C435.456 265.123 420.764 270.46 403.211 273.129C410.843 270.079 421.337 263.598 425.534 257.117C428.206 252.923 429.541 248.539 429.541 243.964C429.541 239.771 428.206 236.339 425.534 233.671C423.245 230.621 419.62 229.096 414.659 229.096C409.316 229.096 406.645 230.24 406.645 232.527C406.645 233.671 407.542 234.698 409.068 235.08C410.976 235.461 412.178 236.53 412.941 238.817C414.086 241.105 414.659 243.583 414.659 246.252C414.659 248.539 414.277 251.208 413.514 254.258C412.751 256.926 411.033 260.167 408.362 263.979C406.073 267.41 403.02 270.079 399.204 271.985C397.677 272.366 395.96 272.557 394.052 272.557H388.9Z" fill="#D02A1E"/>
<path d="M404.998 72.0067C420.926 6.94067 425.869 -31.9141 429.998 -104C434.468 -32.4322 441.151 5.7977 459.66 70.8879L432.751 98.7808L404.998 72.0067Z" fill="white"/>
</g>
<defs>
<linearGradient id="paint0_linear_25_56" x1="159.39" y1="136.638" x2="432.716" y2="426.463" gradientUnits="userSpaceOnUse">
<stop offset="0.140001" stop-color="white"/>
<stop offset="0.534626" stop-color="#D02A1E"/>
</linearGradient>
<linearGradient id="paint1_linear_25_56" x1="409.618" y1="542.503" x2="635.648" y2="716.837" gradientUnits="userSpaceOnUse">
<stop offset="0.0811113" stop-color="white"/>
<stop offset="0.535729" stop-color="#D02A1E"/>
</linearGradient>
<clipPath id="clip0_25_56">
<rect width="861" height="430" fill="white"/>
</clipPath>
</defs>
</svg>
