<svg width="1024" height="1024" viewBox="0 0 1024 1024" fill="none" xmlns="http://www.w3.org/2000/svg">
<rect width="1024" height="1024" fill="black"/>
<g clip-path="url(#clip0_13_1056)">
<path d="M504.616 131.85C510.489 108.75 512.364 94.9186 514.043 69.216C515.437 94.8038 517.715 108.507 524.141 131.897L514.452 141.636L504.616 131.85Z" fill="white"/>
<path d="M495.73 159.929L514.077 141.488L532.518 159.835L514.171 178.276L495.73 159.929Z" fill="white"/>
<path d="M488.044 203.741L513.567 178.087L539.221 203.61L513.698 229.264L488.044 203.741Z" fill="white"/>
<path d="M524.009 637.45C518.493 660.638 516.832 674.497 515.55 700.222C513.761 674.659 511.272 660.992 504.486 637.704L514.023 627.817L524.009 637.45Z" fill="white"/>
<path d="M532.461 609.237L514.401 627.959L495.679 609.899L513.739 591.177L532.461 609.237Z" fill="white"/>
<path d="M539.469 565.312L514.346 591.356L488.301 566.232L513.425 540.188L539.469 565.312Z" fill="white"/>
<path fill-rule="evenodd" clip-rule="evenodd" d="M403.135 499.763C396.934 499.763 390.168 497.651 382.84 493.427C375.792 489.203 370.578 484.697 367.195 479.91C363.531 474.559 361.698 469.067 361.698 463.435C361.698 456.677 363.672 451.748 367.618 448.651C367.336 447.806 367.195 446.961 367.195 446.116V443.582C367.195 441.329 367.477 438.935 368.041 436.401C368.604 433.866 369.45 431.613 370.578 429.642L372.269 426.685C361.839 432.035 351.832 435.697 342.248 437.668C332.946 439.921 324.208 441.047 316.033 441.047C299.12 441.047 283.899 438.231 270.368 432.599C257.12 427.248 246.549 418.799 238.657 407.254C231.046 395.708 227.24 380.922 227.24 362.9C227.24 348.82 230.059 336.006 235.697 324.46C241.335 312.633 248.523 302.353 257.261 293.624C258.67 291.371 259.516 288.977 259.798 286.442C260.362 283.626 260.643 281.233 260.643 279.261C260.643 274.474 259.375 270.109 256.838 266.166C254.301 261.942 251.482 260.253 248.382 261.097C248.1 261.097 247.818 261.238 247.536 261.52H247.113C245.704 261.52 244.999 260.957 244.999 259.83C244.999 257.859 246.267 256.31 248.804 255.184C251.623 253.212 254.583 252.227 257.684 252.227C261.63 252.227 264.872 254.057 267.409 257.718C269.946 261.097 271.214 265.603 271.214 271.235C270.65 276.023 269.382 280.529 267.409 284.753C279.248 275.178 292.073 267.856 305.886 262.787C319.698 257.718 332.242 255.184 343.517 255.184C362.967 255.184 377.061 260.253 385.799 270.391C394.538 280.246 398.907 291.512 398.907 304.184C398.907 314.321 395.665 324.461 389.182 334.598C382.98 344.454 374.524 352.621 363.812 359.098C353.383 365.575 341.967 368.814 329.564 368.814C322.235 368.814 314.906 367.546 307.577 365.012C307.295 364.731 307.013 364.59 306.731 364.59C306.449 364.59 306.168 364.449 305.886 364.167C301.376 362.759 297.147 359.661 293.201 354.874C289.536 350.087 287.704 343.891 287.704 336.288C287.704 329.529 289.114 322.348 291.932 314.744C295.033 306.86 299.12 301.931 304.194 299.96C305.886 299.397 307.013 299.115 307.577 299.115C308.704 299.115 309.55 299.397 310.114 299.96C310.96 300.241 311.523 300.523 311.805 300.805C308.704 302.213 307.154 305.029 307.154 309.253C307.154 311.506 307.718 314.041 308.845 316.857C310.255 319.391 311.664 321.362 313.074 322.77C315.047 324.742 317.02 326.995 318.993 329.529C321.248 332.063 323.08 335.584 324.49 340.089C324.772 341.216 324.913 342.342 324.913 343.469C325.195 344.314 325.336 345.299 325.336 346.426C325.336 349.805 324.631 353.044 323.221 356.141C321.812 359.239 319.557 361.633 316.456 363.322C318.148 363.604 319.698 363.886 321.107 364.167H326.181C337.456 364.167 347.745 361.069 357.047 354.874C366.349 348.679 373.819 340.934 379.457 331.641C385.376 322.348 388.336 313.054 388.336 303.762C388.336 292.498 385.095 282.781 378.611 274.615C372.41 266.167 360.712 261.942 343.517 261.942C328.295 261.942 314.483 265.181 302.08 271.658C289.959 277.853 279.389 286.161 270.368 296.58C261.348 307 254.442 318.547 249.65 331.219C244.858 343.609 242.462 355.86 242.462 367.969C242.462 379.515 244.858 390.217 249.65 400.073C254.724 410.21 262.476 418.378 272.905 424.573C283.617 430.768 297.429 434.007 314.342 434.289C309.832 432.881 306.027 430.627 302.926 427.53C300.107 424.714 298.698 421.475 298.698 417.814C298.698 413.872 299.966 411.055 302.503 409.366C305.322 407.676 308 406.831 310.537 406.831C312.228 406.831 313.356 407.113 313.919 407.676C314.483 408.521 313.778 409.507 311.805 410.633C309.832 411.76 308.845 413.872 308.845 416.969C308.845 419.785 309.691 422.461 311.382 424.995C312.51 426.967 314.342 428.797 316.879 430.487C319.698 432.458 323.08 433.444 327.027 433.444H327.872C341.403 433.444 355.074 430.205 368.886 423.728C382.699 417.251 396.511 408.661 410.323 397.961C424.135 387.26 437.807 375.431 451.337 362.478C464.867 349.524 477.975 336.428 490.66 323.193C487.841 324.038 474.324 308.157 470.378 308.157V308.579C467.277 313.93 461.498 316.605 453.042 316.605C447.968 316.605 442.753 315.197 437.397 312.381C431.76 309.283 426.263 303.932 420.907 296.329C415.833 288.726 413.297 281.685 413.297 275.208V272.674C413.578 271.547 413.86 270.562 414.142 269.717C414.988 267.183 415.974 265.634 417.102 265.07C418.229 264.226 419.075 263.803 419.639 263.803C418.511 268.872 420.344 272.674 425.136 275.208C430.209 277.461 434.579 278.588 438.243 278.588H440.78C441.908 278.306 442.894 278.165 443.74 278.165C445.995 278.165 448.391 278.447 450.928 279.01C453.747 279.292 456.706 280.137 459.807 281.545C463.753 283.516 466.995 286.614 469.532 290.838C472.351 294.78 473.337 299.005 472.492 303.51C478.975 303.51 495.029 317.701 500.385 313.477C514.479 298.552 527.868 284.048 540.553 269.968C553.519 255.607 565.218 243.074 575.647 232.373C586.359 221.109 598.057 209.703 610.742 198.157C623.426 186.612 636.957 176.614 651.333 168.166C645.977 165.068 641.044 162.252 636.534 159.717C632.024 156.901 628.359 154.789 625.54 153.381C617.93 149.157 607.641 144.651 594.674 139.864C581.708 134.795 567.754 130.57 552.815 127.191C537.875 123.53 523.499 121.7 509.687 121.7C489.955 121.7 473.183 126.065 459.371 134.795C445.84 143.243 435.552 153.945 428.505 166.898C421.739 179.852 418.357 193.089 418.357 206.606C418.357 217.306 420.612 227.445 425.122 237.02C429.914 246.594 436.961 254.339 446.263 260.253C455.847 265.885 467.686 268.701 481.78 268.701H485.586C486.995 268.701 488.264 268.56 489.391 268.278C492.21 266.871 494.465 264.899 496.156 262.365C498.129 259.549 499.398 257.155 499.962 255.184C500.525 252.931 500.807 250.959 500.807 249.27C500.807 247.299 500.385 245.468 499.539 243.778C498.975 242.089 497.989 241.103 496.579 240.821C495.452 240.54 494.888 239.976 494.888 239.132C494.888 237.442 496.861 236.597 500.807 236.597C504.472 236.597 507.15 237.724 508.841 239.977C510.814 241.948 511.801 244.482 511.801 247.58C511.801 250.959 510.814 254.198 508.841 257.296C505.74 262.083 501.371 265.603 495.733 267.856C508.7 265.885 519.553 261.942 528.291 256.028C537.029 250.115 543.513 243.215 547.741 235.33C552.251 227.445 554.506 219.7 554.506 212.097C554.506 202.241 551.546 192.665 545.627 183.373C539.707 174.08 530.264 168.588 517.297 166.898H513.492C512.365 166.898 511.096 167.18 509.687 167.743C507.15 168.87 504.895 170.7 502.921 173.235C501.23 175.487 500.385 177.74 500.385 179.993C500.385 182.528 501.371 184.358 503.344 185.485C503.908 185.766 504.19 186.33 504.19 187.174C504.19 188.301 503.485 188.864 502.076 188.864C499.539 188.864 497.002 186.893 494.465 182.95C493.901 181.261 493.619 179.852 493.619 178.726C493.619 177.881 493.901 176.614 494.465 174.924C493.337 175.487 492.633 176.051 492.351 176.614C490.096 178.585 486.149 180.416 480.512 182.105C474.874 183.795 469.237 184.64 463.599 184.64H459.793C458.666 184.358 457.397 184.077 455.988 183.795C452.324 182.95 449.082 181.26 446.263 178.726C443.726 175.91 442.458 172.53 442.458 168.588C442.458 167.462 442.74 166.898 443.303 166.898C443.585 166.898 444.995 167.884 447.532 169.855C448.941 170.7 450.773 171.122 453.028 171.122C458.948 171.122 464.022 169.01 468.25 164.786C473.042 159.717 478.539 155.352 484.74 151.691C490.941 148.031 496.579 146.2 501.653 146.2C508.418 146.2 513.633 148.031 517.297 151.691C521.244 155.07 523.922 159.013 525.331 163.519C537.17 166.335 546.05 172.249 551.969 181.261C558.17 189.99 561.271 200.27 561.271 212.097C561.271 221.953 558.17 231.81 551.969 241.666C545.768 251.522 536.747 259.69 524.908 266.166C513.351 272.362 498.975 275.46 481.78 275.46C463.74 275.46 448.8 272.221 436.961 265.744C425.122 258.986 416.243 250.396 410.323 239.977C404.404 229.276 401.444 217.87 401.444 205.761C401.444 195.905 403.417 185.766 407.363 175.347C405.39 176.191 403.417 176.896 401.444 177.459C399.753 178.022 397.638 178.444 395.101 178.726C395.383 184.921 392.283 191.117 385.799 197.312C379.316 203.508 370.578 206.606 359.584 206.606C351.41 206.606 342.953 205.057 334.215 201.959C325.476 198.861 319.839 194.355 317.302 188.442C316.456 186.189 316.033 184.499 316.033 183.373C316.033 181.401 316.597 180.134 317.725 179.571C319.698 182.95 322.799 184.64 327.027 184.64C330.128 184.64 333.228 183.795 336.329 182.105C339.712 180.416 342.389 178.585 344.363 176.614C346.618 174.361 349.155 171.967 351.973 169.433C355.074 166.617 359.302 164.223 364.658 162.252C367.195 161.407 370.155 160.984 373.537 160.984C378.048 160.984 382.276 162.111 386.222 164.364C390.45 166.335 393.269 169.715 394.679 174.502C398.343 173.939 401.444 173.094 403.981 171.967C406.518 170.841 409.196 168.588 412.014 165.209C419.907 150.284 432.169 137.61 448.8 127.191C465.713 116.772 486.713 111.562 511.801 111.562C518.284 111.562 524.908 112.125 531.673 113.251C538.721 114.378 545.768 115.786 552.815 117.476C549.432 114.096 547.741 110.435 547.741 106.493C547.741 102.55 548.868 100.016 551.123 98.8891C553.378 97.4811 555.493 96.777 557.466 96.777C555.774 96.777 554.929 98.8893 554.929 103.113C554.929 105.929 555.633 109.168 557.043 112.829C558.452 116.49 560.566 119.024 563.385 120.432C576.634 124.093 589.037 128.599 600.594 133.95C612.433 139.019 621.876 143.525 628.923 147.467C631.178 148.594 634.983 150.706 640.339 153.803C645.977 156.901 652.178 160.281 658.943 163.941C668.527 158.591 678.393 154.507 688.541 151.691C698.971 148.594 709.541 147.045 720.253 147.045C731.246 147.045 739.844 149.861 746.045 155.493C752.247 160.843 755.347 166.758 755.347 173.235C755.347 179.711 751.965 185.485 745.199 190.554C738.434 195.622 727.582 197.594 712.642 196.468C710.387 196.186 707.145 195.2 702.917 193.511C698.689 191.821 693.897 189.85 688.541 187.597L681.776 184.217C678.111 182.246 674.306 180.275 670.36 178.304C666.695 176.051 662.89 173.939 658.943 171.967C643.722 180.415 629.064 190.836 614.97 203.226C601.158 215.335 588.05 228.15 575.647 241.666C563.526 254.901 552.392 267.293 542.244 278.839L535.902 285.598C504.895 320.234 477.129 347.976 452.605 368.814C428.364 389.37 407.081 405.705 388.759 417.814V418.237H387.913V418.659C382.84 421.757 378.752 425.84 375.652 430.909C371.987 436.541 370.437 441.892 371 446.961C372.692 446.116 374.665 445.694 376.92 445.694C380.303 445.694 383.544 446.68 386.645 448.651C390.028 450.622 392.564 453.157 394.256 456.254C396.511 460.197 397.779 463.717 398.061 466.815C398.625 470.194 399.048 473.292 399.33 476.108C399.612 479.769 401.162 483.712 403.981 487.936C406.8 492.16 410.464 493.568 414.974 492.16C414.974 492.441 414.692 493.145 414.129 494.272C413.847 495.68 412.578 496.947 410.323 498.074C408.35 499.2 405.954 499.763 403.135 499.763ZM718.139 188.019C726.313 188.019 732.233 186.329 735.897 182.95C739.844 179.289 741.817 175.487 741.817 171.545C741.817 167.039 739.985 162.956 736.32 159.295C732.656 155.634 727.3 153.803 720.253 153.803C711.233 153.803 702.212 155.071 693.192 157.605C684.172 160.14 675.293 163.519 666.554 167.743C670.219 169.714 673.742 171.686 677.125 173.657C680.789 175.347 684.313 176.896 687.695 178.304L694.038 181.261C701.085 184.64 706.159 186.611 709.259 187.174L713.488 188.019H718.139Z" fill="url(#paint0_linear_13_1056)"/>
<path d="M440.161 302.903L513.791 229.273L587.422 302.904L513.792 376.534L440.161 302.903Z" fill="white"/>
<path d="M522.373 384.5L596.003 310.871L669.634 384.502L596.004 458.132L522.373 384.5Z" fill="white"/>
<path d="M358.049 384.5L431.679 310.871L505.308 384.5L431.679 458.13L358.049 384.5Z" fill="white"/>
<path d="M440.261 466.099L513.891 392.469L587.52 466.099L513.891 539.728L440.261 466.099Z" fill="white"/>
<path fill-rule="evenodd" clip-rule="evenodd" d="M704.702 530.755C705.902 530.867 707.265 530.288 708.793 529.018C711.45 526.442 712.816 522.535 712.892 517.298C713.369 512.098 712.846 506.806 711.323 501.42C709.799 496.034 707.857 491.921 705.496 489.079C702.227 485.144 698.229 482.554 693.503 481.307C689.177 480.098 685.523 480.363 682.54 482.103L682.213 482.375C679.125 478.659 674.728 476.031 669.02 474.492C683.494 470.594 697.605 465.15 711.354 458.16C725.503 451.207 738.69 442.651 750.914 432.493C753.315 430.498 755.626 428.394 757.845 426.18C760.246 424.184 762.447 422.171 764.449 420.138C775.728 409.288 783.972 398.558 789.179 387.949C794.604 377.159 797.338 367.127 797.382 357.853C797.606 348.798 795.539 341.648 791.18 336.401C785.367 329.407 775.934 326.714 762.88 328.323C749.826 329.933 733.913 338.537 715.14 354.136L708.264 359.85C706.044 362.064 703.716 364.368 701.278 366.764C696.439 371.154 689.069 380.049 679.17 393.448C669.488 406.666 658.442 421.572 646.032 438.167C648.036 431.697 649.332 425.263 649.918 418.863C650.987 404.552 650.863 399.297 649.812 395.367C652.903 394.646 655.758 393.197 658.378 391.02C661.434 388.481 664.072 384.995 666.293 380.563C668.515 376.13 669.682 371.096 669.795 365.459C669.945 359.422 668.641 352.746 665.883 345.43C663.307 338.333 659.748 332.052 655.207 326.587C650.666 321.123 645.724 317.839 640.38 316.737C638.199 316.332 636.381 316.365 634.926 316.835C633.871 317.342 633.125 317.777 632.689 318.139L631.707 318.956C633.488 319.323 635.105 320.381 636.558 322.13C639.101 325.19 639.953 329.101 639.113 333.864C638.455 338.845 637.179 342.861 635.286 345.912C633.612 348.782 631.7 352.032 629.553 355.665C627.805 359.334 626.674 363.969 626.161 369.569C625.868 372.769 626.065 376.115 626.753 379.608C627.842 383.138 629.566 386.323 631.928 389.165C635.197 393.1 639.631 395.327 645.23 395.848C645.774 398.722 645.879 403.069 645.548 408.887C645.216 414.705 643.984 428.598 642.38 435.104C640.993 441.429 638.553 447.152 635.059 452.273L634.404 452.817C634.586 453.036 634.567 453.236 634.349 453.417C631.838 456.612 629.109 459.989 626.161 463.547C623.613 467.142 620.974 470.628 618.245 474.005C599.52 473.674 581.379 471.382 563.82 467.127L565.947 467.022C574.746 467.841 582.419 465.529 588.968 460.087C593.115 456.641 595.591 452.737 596.394 448.374C597.197 444.011 596.418 440.409 594.057 437.568C592.24 435.382 589.66 433.831 586.315 432.915C583.989 431.891 582.062 432.015 580.534 433.284C579.661 434.01 579.678 434.919 580.587 436.012L581.131 436.668C583.821 438.128 584.437 441.312 582.979 446.219C581.521 451.125 579.045 455.03 575.553 457.932C573.37 459.746 570.496 461.394 566.932 462.878C563.549 464.58 560.258 465.283 557.059 464.985C551.57 463.264 545.899 461.325 540.047 459.167C534.595 457.046 527.189 454.975 521.992 452.273L515.086 448.374C504.546 442.351 502.155 444.898 492.743 437.568C483.549 430.057 490.397 449.971 482.587 440.572L484.618 446.219C504.367 464.795 482.479 441.719 501.274 454.79L511.195 460.416C543.522 473.477 576.116 482.59 611.421 482.446C607.346 487.311 590.609 504.123 586.315 509.17C582.021 514.216 577.745 519.062 573.488 523.708C570.432 526.248 566.649 527.913 562.14 528.704C558.031 529.531 554.686 529.725 552.105 529.283C546.361 528.143 542.217 526.044 539.674 522.983C538.221 521.235 537.677 519.47 538.042 517.688C538.407 515.907 538.099 514.87 537.117 514.577C536.317 514.503 535.372 514.919 534.28 515.826C533.189 516.733 532.407 517.568 531.933 518.33C528.184 524.032 528.307 529.288 532.303 534.097C535.936 538.469 541.607 540.408 549.315 539.915C553.57 539.705 557.715 538.478 561.753 536.231C557.969 540.115 554.312 543.707 550.783 547.01C547.253 550.312 543.633 553.505 539.922 556.588C530.973 564.025 522.278 569.771 513.84 573.827C505.62 577.701 498.238 579.032 491.694 577.818C488.387 576.502 485.915 574.86 484.281 572.893C482.283 570.488 481.212 567.867 481.069 565.03C481.107 562.412 482.399 560.414 484.945 559.038C486.218 558.349 486.692 557.587 486.365 556.749C486.22 556.131 485.439 555.857 484.021 555.926C482.021 555.74 480.148 556.373 478.402 557.824C477.528 558.55 476.964 559.203 476.71 559.784C475.145 561.454 474.634 563.726 475.177 566.6L473.815 564.961C471.635 562.338 467.456 559.529 461.277 556.534C455.098 553.538 449.191 551.981 443.556 551.86C439.12 551.85 435.592 552.934 432.973 555.111C430.79 556.925 429.461 559.322 428.986 562.303C428.658 563.685 428.912 564.213 429.748 563.887L433.513 562.422C435.841 561.227 438.84 561.506 442.511 563.259C445.964 565.194 448.562 567.654 450.305 570.64C451.903 573.007 453.592 575.484 455.371 578.07C456.933 580.837 458.712 583.423 460.71 585.827C464.888 590.855 468.921 594.154 472.811 595.726C477.063 597.735 481.044 598.307 484.754 597.442C488.245 596.759 491.3 595.328 493.919 593.152C496.539 590.975 498.358 588.724 499.378 586.399L502.488 585.478C508.851 584.254 515.543 581.65 522.564 577.664C529.584 573.678 536.696 568.692 543.899 562.706L548.811 558.625C550.557 557.174 552.103 555.704 553.45 554.216C552.538 557.56 551.918 561.032 551.588 564.632C551.258 568.231 551.383 571.268 551.963 573.743C550.108 574.175 548.199 575.208 546.234 576.84C543.614 579.017 541.431 581.94 539.683 585.61C538.116 589.498 537.404 593.969 537.546 599.025C537.761 603.281 538.939 608.029 541.08 613.271C543.222 618.512 546.018 623.209 549.469 627.363C551.467 629.767 553.593 631.881 555.845 633.704C558.317 635.346 560.952 636.297 563.752 636.557C566.551 636.817 568.606 636.404 569.915 635.315C570.134 635.134 570.152 634.934 569.97 634.715L570.625 634.171C568.844 633.804 567.317 632.855 566.046 631.325C564.048 628.92 563.214 625.918 563.544 622.318C564.092 618.537 564.985 615.393 566.223 612.886C567.461 610.38 568.718 607.673 569.992 604.766C571.485 601.678 572.233 597.915 572.237 593.478C572.35 587.841 570.681 582.946 567.23 578.793C563.96 574.859 559.999 572.978 555.345 573.15C554.62 570.057 554.805 565.839 555.899 560.495C557.212 554.969 559.27 550.119 562.073 545.942C569.823 538.394 577.537 530.136 585.216 521.169C592.894 512.202 613.233 491.287 621.129 482.139C626.002 481.785 630.784 481.322 635.474 480.75C640.565 480.215 645.565 479.571 650.474 478.818L652.001 478.657L653.256 478.169L658.82 476.871C666.528 476.378 673.343 479.029 679.266 484.824C677.191 487.656 676.28 491 676.532 494.856C677.183 498.748 678.599 502.006 680.778 504.629C683.14 507.471 685.465 509.603 687.755 511.027C690.263 512.268 692.57 513.491 694.678 514.696C695.842 515.208 696.986 515.919 698.113 516.831C699.239 517.742 700.257 518.745 701.165 519.837C702.436 521.368 703.289 523.06 703.724 524.916C704.341 526.99 703.958 528.972 702.575 530.86C702.975 530.897 703.684 530.862 704.702 530.755ZM754.031 421.589L748.137 426.487C730.237 441.36 710.849 452.667 689.974 460.407C669.497 468.183 648.824 472.614 627.953 473.697C636.87 462.224 645.568 450.931 654.048 439.82C662.927 428.746 671.334 418.435 679.267 408.887C682.868 407.003 686.269 406.21 689.468 406.508C693.904 406.517 697.393 408.052 699.936 411.112C701.026 412.424 701.516 413.679 701.406 414.879C701.113 418.079 701.839 418.953 703.585 417.502C704.895 416.414 706.006 414.198 706.917 410.854C708.01 407.728 707.467 404.854 705.287 402.231C703.289 399.827 700.491 398.457 696.891 398.122C693.692 397.824 690.419 398.327 687.073 399.629C690.712 395.127 694.224 390.916 697.609 386.995C701.175 383.293 704.613 379.881 707.924 376.76C709.489 375.091 711.035 373.621 712.563 372.351L717.147 368.542C731.118 356.934 743.084 350.685 753.047 349.796C763.011 348.908 770.353 351.305 775.076 356.989C780.162 363.109 781.591 371.713 779.365 382.801C777.321 394.107 770.859 405.204 759.98 416.092C758.197 417.943 756.214 419.775 754.031 421.589Z" fill="url(#paint1_linear_13_1056)"/>
<path d="M481.271 268.331C467.177 268.331 455.338 265.515 445.754 259.883L436.452 265.374C448.291 271.851 463.231 275.09 481.271 275.09C498.466 275.09 512.842 271.992 524.399 265.797C528.617 263.489 535.321 259.228 538.823 256.491C545.152 251.546 547.468 247.641 551.46 241.297L548.573 233.742C544.345 241.626 533.138 251.012 524.399 256.926C515.661 262.84 504.809 266.783 491.842 268.754C497.48 266.501 505.231 261.713 508.332 256.926C510.305 253.828 511.292 250.59 511.292 247.21C511.292 244.113 510.305 241.578 508.332 239.607C506.641 237.354 503.963 236.228 500.298 236.228C496.352 236.228 494.379 237.073 494.379 238.762C494.379 239.607 495.041 240.366 496.169 240.648C497.578 240.929 498.466 241.719 499.03 243.409C499.876 245.098 500.298 246.929 500.298 248.9C500.298 250.59 500.016 252.561 499.453 254.814C498.889 256.785 497.62 259.179 495.647 261.995C493.956 264.529 491.701 266.501 488.882 267.909C487.755 268.191 486.486 268.331 485.077 268.331H481.271Z" fill="#D02A1E"/>
</g>
<path d="M104.56 862.08C100.707 862.08 96.8533 861.627 93 860.72C89.26 859.813 85.7467 858.34 82.46 856.3C78.38 853.807 75.15 850.407 72.77 846.1C70.39 841.907 69.2 837.487 69.2 832.84C69.2 832.047 69.37 831.593 69.71 831.48C70.05 831.707 70.3333 832.217 70.56 833.01C70.7867 833.69 71.1267 834.03 71.58 834.03C72.1467 834.03 72.6 833.633 72.94 832.84C73.28 831.933 73.5067 831.367 73.62 831.14C74.1867 829.893 74.64 828.93 74.98 828.25C75.32 827.57 76.1133 826.833 77.36 826.04C77.8133 825.813 78.55 825.473 79.57 825.02C80.7033 824.567 81.78 824.17 82.8 823.83C83.9333 823.377 84.67 823.15 85.01 823.15C85.1233 823.15 85.18 823.207 85.18 823.32C85.18 823.547 84.5 823.943 83.14 824.51C81.8933 825.077 80.59 825.983 79.23 827.23C77.9833 828.363 77.36 830.007 77.36 832.16C77.36 832.5 77.4733 833.123 77.7 834.03C79.74 841.963 83.7067 847.687 89.6 851.2C95.4933 854.827 102.293 856.64 110 856.64C117.027 856.64 123.997 855.45 130.91 853.07C137.823 850.69 144.397 847.517 150.63 843.55C156.863 839.697 162.417 835.39 167.29 830.63C171.937 826.21 176.47 821.733 180.89 817.2C185.423 812.553 189.787 807.85 193.98 803.09L163.55 801.56C162.87 801.56 162.19 801.56 161.51 801.56C160.83 801.447 160.15 801.39 159.47 801.39C156.863 801.39 153.803 801.73 150.29 802.41C146.777 802.977 144.17 804.393 142.47 806.66C141.677 807.793 141.053 809.097 140.6 810.57C140.147 812.043 139.693 813.46 139.24 814.82C138.56 814.593 137.937 814.197 137.37 813.63C136.803 812.95 136.52 812.213 136.52 811.42C136.52 810.173 137.143 808.927 138.39 807.68C139.75 806.433 141.223 805.357 142.81 804.45C144.397 803.43 145.7 802.637 146.72 802.07C150.347 800.143 154.087 798.557 157.94 797.31C161.793 796.063 165.817 795.44 170.01 795.44C174.997 795.44 179.927 795.61 184.8 795.95C189.787 796.177 194.717 796.403 199.59 796.63C207.297 787.563 214.663 778.327 221.69 768.92C228.83 759.513 236.537 750.56 244.81 742.06C238.577 739.453 231.72 737.073 224.24 734.92C216.873 732.653 209.337 730.897 201.63 729.65C194.037 728.29 186.84 727.61 180.04 727.61C175.96 727.61 171.54 728.007 166.78 728.8C162.133 729.48 157.77 730.84 153.69 732.88C149.61 734.807 146.323 737.64 143.83 741.38C141.79 744.213 140.77 747.5 140.77 751.24C140.77 756 142.187 760.023 145.02 763.31C147.853 766.483 151.367 768.863 155.56 770.45C159.753 772.037 163.947 772.83 168.14 772.83C169.84 772.83 171.427 772.49 172.9 771.81C174.373 771.017 175.677 770.053 176.81 768.92C177.15 769.033 177.32 769.26 177.32 769.6C177.32 769.713 177.263 769.883 177.15 770.11C177.15 770.223 177.15 770.393 177.15 770.62C175.677 772.773 173.693 774.247 171.2 775.04C168.707 775.72 166.213 776.06 163.72 776.06C158.96 776.06 154.313 775.153 149.78 773.34C145.36 771.527 141.677 768.807 138.73 765.18C135.897 761.553 134.48 757.077 134.48 751.75C134.48 749.483 134.763 747.33 135.33 745.29C136.01 743.137 136.917 741.097 138.05 739.17C140.77 734.637 144.397 731.123 148.93 728.63C153.463 726.137 158.337 724.38 163.55 723.36C168.763 722.227 173.807 721.66 178.68 721.66C186.273 721.66 194.093 722.51 202.14 724.21C210.187 725.91 218.12 728.12 225.94 730.84C233.873 733.447 241.297 736.167 248.21 739C249.343 738.093 250.76 737.13 252.46 736.11C254.16 734.977 255.747 734.41 257.22 734.41C258.807 734.41 260.053 734.92 260.96 735.94C261.867 736.847 262.32 738.093 262.32 739.68C262.32 740.133 262.263 740.643 262.15 741.21C262.037 741.663 261.923 742.173 261.81 742.74C261.47 744.667 261.017 745.913 260.45 746.48C259.883 747.047 259.26 747.5 258.58 747.84C258.013 748.067 257.277 748.917 256.37 750.39C254.67 753.223 252.687 757.417 250.42 762.97C248.267 768.41 246.057 774.53 243.79 781.33C241.523 788.017 239.427 794.817 237.5 801.73C235.573 808.53 233.987 814.82 232.74 820.6C231.607 826.38 231.04 831.027 231.04 834.54C231.04 836.013 231.153 837.6 231.38 839.3C231.72 841 232.343 842.417 233.25 843.55C234.27 844.797 235.743 845.42 237.67 845.42C239.257 845.42 240.617 844.967 241.75 844.06C242.883 843.267 243.96 842.303 244.98 841.17C245.32 840.943 245.49 841.113 245.49 841.68V842.02C245.49 843.72 244.47 845.193 242.43 846.44C240.503 847.8 238.293 848.82 235.8 849.5C233.42 850.18 231.493 850.52 230.02 850.52C226.167 850.52 223.787 849.273 222.88 846.78C221.973 844.4 221.52 841.567 221.52 838.28C221.52 834.087 221.973 829.497 222.88 824.51C223.787 819.523 224.92 814.593 226.28 809.72C227.753 804.733 229.17 800.2 230.53 796.12L223.39 802.92C221.123 803.147 218.857 803.317 216.59 803.43C214.323 803.43 212.057 803.43 209.79 803.43C207.977 803.43 206.163 803.43 204.35 803.43C202.65 803.43 200.893 803.373 199.08 803.26C193.413 809.607 187.633 815.953 181.74 822.3C175.847 828.647 169.387 834.257 162.36 839.13C157.033 842.87 151.14 846.497 144.68 850.01C138.333 853.523 131.76 856.413 124.96 858.68C118.16 860.947 111.36 862.08 104.56 862.08ZM218.12 797.48C220.273 797.48 222.37 797.423 224.41 797.31C226.45 797.083 228.49 796.687 230.53 796.12C233.703 786.827 237.217 777.703 241.07 768.75C245.037 759.797 248.493 750.673 251.44 741.38L204.52 796.97C206.787 797.083 209.053 797.197 211.32 797.31C213.587 797.423 215.853 797.48 218.12 797.48ZM405.712 862.08C401.859 862.08 398.006 861.627 394.152 860.72C390.412 859.813 386.899 858.34 383.612 856.3C379.532 853.807 376.302 850.407 373.922 846.1C371.542 841.907 370.352 837.487 370.352 832.84C370.352 832.047 370.522 831.593 370.862 831.48C371.202 831.707 371.486 832.217 371.712 833.01C371.939 833.69 372.279 834.03 372.732 834.03C373.299 834.03 373.752 833.633 374.092 832.84C374.432 831.933 374.659 831.367 374.772 831.14C375.339 829.893 375.792 828.93 376.132 828.25C376.472 827.57 377.266 826.833 378.512 826.04C378.966 825.813 379.702 825.473 380.722 825.02C381.856 824.567 382.932 824.17 383.952 823.83C385.086 823.377 385.822 823.15 386.162 823.15C386.276 823.15 386.332 823.207 386.332 823.32C386.332 823.547 385.652 823.943 384.292 824.51C383.046 825.077 381.742 825.983 380.382 827.23C379.136 828.363 378.512 830.007 378.512 832.16C378.512 832.5 378.626 833.123 378.852 834.03C380.892 841.963 384.859 847.687 390.752 851.2C396.646 854.827 403.446 856.64 411.152 856.64C418.179 856.64 425.149 855.45 432.062 853.07C438.976 850.69 445.549 847.517 451.782 843.55C458.016 839.697 463.569 835.39 468.442 830.63C473.089 826.21 477.622 821.733 482.042 817.2C486.576 812.553 490.939 807.85 495.132 803.09L464.702 801.56C464.022 801.56 463.342 801.56 462.662 801.56C461.982 801.447 461.302 801.39 460.622 801.39C458.016 801.39 454.956 801.73 451.442 802.41C447.929 802.977 445.322 804.393 443.622 806.66C442.829 807.793 442.206 809.097 441.752 810.57C441.299 812.043 440.846 813.46 440.392 814.82C439.712 814.593 439.089 814.197 438.522 813.63C437.956 812.95 437.672 812.213 437.672 811.42C437.672 810.173 438.296 808.927 439.542 807.68C440.902 806.433 442.376 805.357 443.962 804.45C445.549 803.43 446.852 802.637 447.872 802.07C451.499 800.143 455.239 798.557 459.092 797.31C462.946 796.063 466.969 795.44 471.162 795.44C476.149 795.44 481.079 795.61 485.952 795.95C490.939 796.177 495.869 796.403 500.742 796.63C508.449 787.563 515.816 778.327 522.842 768.92C529.982 759.513 537.689 750.56 545.962 742.06C539.729 739.453 532.872 737.073 525.392 734.92C518.026 732.653 510.489 730.897 502.782 729.65C495.189 728.29 487.992 727.61 481.192 727.61C477.112 727.61 472.692 728.007 467.932 728.8C463.286 729.48 458.922 730.84 454.842 732.88C450.762 734.807 447.476 737.64 444.982 741.38C442.942 744.213 441.922 747.5 441.922 751.24C441.922 756 443.339 760.023 446.172 763.31C449.006 766.483 452.519 768.863 456.712 770.45C460.906 772.037 465.099 772.83 469.292 772.83C470.992 772.83 472.579 772.49 474.052 771.81C475.526 771.017 476.829 770.053 477.962 768.92C478.302 769.033 478.472 769.26 478.472 769.6C478.472 769.713 478.416 769.883 478.302 770.11C478.302 770.223 478.302 770.393 478.302 770.62C476.829 772.773 474.846 774.247 472.352 775.04C469.859 775.72 467.366 776.06 464.872 776.06C460.112 776.06 455.466 775.153 450.932 773.34C446.512 771.527 442.829 768.807 439.882 765.18C437.049 761.553 435.632 757.077 435.632 751.75C435.632 749.483 435.916 747.33 436.482 745.29C437.162 743.137 438.069 741.097 439.202 739.17C441.922 734.637 445.549 731.123 450.082 728.63C454.616 726.137 459.489 724.38 464.702 723.36C469.916 722.227 474.959 721.66 479.832 721.66C487.426 721.66 495.246 722.51 503.292 724.21C511.339 725.91 519.272 728.12 527.092 730.84C535.026 733.447 542.449 736.167 549.362 739C550.496 738.093 551.912 737.13 553.612 736.11C555.312 734.977 556.899 734.41 558.372 734.41C559.959 734.41 561.206 734.92 562.112 735.94C563.019 736.847 563.472 738.093 563.472 739.68C563.472 740.133 563.416 740.643 563.302 741.21C563.189 741.663 563.076 742.173 562.962 742.74C562.622 744.667 562.169 745.913 561.602 746.48C561.036 747.047 560.412 747.5 559.732 747.84C559.166 748.067 558.429 748.917 557.522 750.39C555.822 753.223 553.839 757.417 551.572 762.97C549.419 768.41 547.209 774.53 544.942 781.33C542.676 788.017 540.579 794.817 538.652 801.73C536.726 808.53 535.139 814.82 533.892 820.6C532.759 826.38 532.192 831.027 532.192 834.54C532.192 836.013 532.306 837.6 532.532 839.3C532.872 841 533.496 842.417 534.402 843.55C535.422 844.797 536.896 845.42 538.822 845.42C540.409 845.42 541.769 844.967 542.902 844.06C544.036 843.267 545.112 842.303 546.132 841.17C546.472 840.943 546.642 841.113 546.642 841.68V842.02C546.642 843.72 545.622 845.193 543.582 846.44C541.656 847.8 539.446 848.82 536.952 849.5C534.572 850.18 532.646 850.52 531.172 850.52C527.319 850.52 524.939 849.273 524.032 846.78C523.126 844.4 522.672 841.567 522.672 838.28C522.672 834.087 523.126 829.497 524.032 824.51C524.939 819.523 526.072 814.593 527.432 809.72C528.906 804.733 530.322 800.2 531.682 796.12L524.542 802.92C522.276 803.147 520.009 803.317 517.742 803.43C515.476 803.43 513.209 803.43 510.942 803.43C509.129 803.43 507.316 803.43 505.502 803.43C503.802 803.43 502.046 803.373 500.232 803.26C494.566 809.607 488.786 815.953 482.892 822.3C476.999 828.647 470.539 834.257 463.512 839.13C458.186 842.87 452.292 846.497 445.832 850.01C439.486 853.523 432.912 856.413 426.112 858.68C419.312 860.947 412.512 862.08 405.712 862.08ZM519.272 797.48C521.426 797.48 523.522 797.423 525.562 797.31C527.602 797.083 529.642 796.687 531.682 796.12C534.856 786.827 538.369 777.703 542.222 768.75C546.189 759.797 549.646 750.673 552.592 741.38L505.672 796.97C507.939 797.083 510.206 797.197 512.472 797.31C514.739 797.423 517.006 797.48 519.272 797.48Z" fill="white"/>
<path d="M244.738 843.21C244.512 843.21 244.398 843.153 244.398 843.04C244.398 842.587 244.625 842.133 245.078 841.68C245.418 841.34 245.702 841 245.928 840.66C246.948 838.96 248.082 836.07 249.328 831.99C250.688 827.797 251.992 823.207 253.238 818.22C254.598 813.233 255.788 808.587 256.808 804.28C257.942 799.86 258.735 796.517 259.188 794.25C259.415 793.343 259.642 792.153 259.868 790.68C260.208 789.207 260.605 787.733 261.058 786.26C261.512 784.787 262.022 783.823 262.588 783.37C263.608 782.463 265.138 781.67 267.178 780.99C269.218 780.31 271.258 779.8 273.298 779.46C275.452 779.007 277.208 778.78 278.568 778.78C278.795 778.78 279.078 778.893 279.418 779.12C279.758 779.347 279.985 779.573 280.098 779.8L280.268 780.31C280.155 780.65 279.985 780.82 279.758 780.82C279.532 780.707 279.305 780.65 279.078 780.65C276.925 780.65 274.942 781.897 273.128 784.39C271.315 786.77 269.728 789.717 268.368 793.23C267.008 796.743 265.818 800.143 264.798 803.43C263.892 806.603 263.268 808.983 262.928 810.57C264.062 807.963 265.535 805.017 267.348 801.73C269.275 798.33 271.485 795.1 273.978 792.04C276.472 788.867 279.192 786.26 282.138 784.22C285.085 782.067 288.202 780.99 291.488 780.99C291.942 780.99 292.678 781.103 293.698 781.33C294.832 781.443 295.852 781.727 296.758 782.18C297.778 782.52 298.288 782.973 298.288 783.54L298.118 783.71H297.948L296.928 783.37C297.268 784.163 297.495 784.957 297.608 785.75C297.722 786.543 297.778 787.337 297.778 788.13C297.778 788.81 297.552 790.283 297.098 792.55C296.758 794.817 296.248 796.97 295.568 799.01C295.002 800.937 294.378 801.9 293.698 801.9C293.245 801.9 293.018 801.73 293.018 801.39C293.018 800.823 293.188 799.917 293.528 798.67C293.982 797.31 294.208 796.063 294.208 794.93C294.208 792.89 293.698 791.247 292.678 790C291.658 788.753 290.128 788.13 288.088 788.13C284.688 788.13 281.402 789.603 278.228 792.55C275.055 795.383 272.165 798.953 269.558 803.26C266.952 807.453 264.742 811.703 262.928 816.01C261.115 820.317 259.868 823.83 259.188 826.55C258.735 828.023 258.338 829.95 257.998 832.33C257.658 834.597 256.808 836.183 255.448 837.09C255.108 837.203 254.032 837.77 252.218 838.79C250.518 839.81 248.875 840.773 247.288 841.68C245.588 842.7 244.738 843.21 244.738 843.21ZM324.48 767.9C323.574 767.9 322.157 767.56 320.23 766.88C318.417 766.087 317.51 765.123 317.51 763.99C317.51 763.877 317.51 763.82 317.51 763.82C317.624 763.707 317.68 763.593 317.68 763.48C318.247 762.347 319.494 761.667 321.42 761.44C323.46 761.213 324.99 760.873 326.01 760.42C328.277 759.513 330.487 758.777 332.64 758.21C334.794 757.643 336.834 756.623 338.76 755.15C339.214 755.377 339.44 755.603 339.44 755.83C339.44 756.283 338.93 756.907 337.91 757.7C337.004 758.493 336.38 759.173 336.04 759.74C335.587 760.42 334.567 761.44 332.98 762.8C331.507 764.047 329.92 765.237 328.22 766.37C326.52 767.39 325.274 767.9 324.48 767.9ZM295.75 841.51C293.937 841.51 292.69 841.057 292.01 840.15C291.33 839.243 290.99 837.94 290.99 836.24C290.99 832.5 291.727 827.967 293.2 822.64C294.787 817.313 296.544 811.93 298.47 806.49C300.397 800.937 301.927 796.007 303.06 791.7C303.514 790.113 304.59 789.037 306.29 788.47C308.104 787.79 309.634 786.997 310.88 786.09C312.694 784.843 314.62 783.823 316.66 783.03C318.7 782.123 320.854 781.67 323.12 781.67C323.687 781.67 324.027 781.783 324.14 782.01C324.367 782.237 324.48 782.407 324.48 782.52C324.48 783.2 324.084 783.54 323.29 783.54C321.704 783.54 320.06 784.503 318.36 786.43C316.66 788.243 314.96 790.623 313.26 793.57C311.56 796.517 310.03 799.577 308.67 802.75C307.31 805.923 306.12 808.87 305.1 811.59C304.08 814.197 303.4 816.123 303.06 817.37C302.494 819.183 301.927 821.337 301.36 823.83C300.794 826.21 300.51 828.42 300.51 830.46C300.51 831.253 300.624 832.217 300.85 833.35C301.077 834.37 301.757 834.88 302.89 834.88C303.684 834.88 304.534 834.597 305.44 834.03C307.934 832.557 310.37 830.573 312.75 828.08C315.244 825.473 317.51 822.697 319.55 819.75C321.704 816.69 323.404 813.913 324.65 811.42C324.877 811.533 324.99 811.76 324.99 812.1C324.99 812.78 324.594 813.8 323.8 815.16C323.007 816.407 322.1 817.767 321.08 819.24C320.06 820.713 319.097 822.017 318.19 823.15C317.397 824.283 317 824.963 317 825.19C316.887 826.097 316.717 826.777 316.49 827.23C316.264 827.57 315.924 828.193 315.47 829.1C314.11 830.46 312.297 832.16 310.03 834.2C307.764 836.127 305.384 837.827 302.89 839.3C300.397 840.773 298.017 841.51 295.75 841.51ZM268.273 888.26C267.479 888.26 266.176 887.977 264.363 887.41C262.436 886.843 260.679 886.107 259.093 885.2C257.393 884.293 256.543 883.387 256.543 882.48C256.543 882.253 256.769 882.14 257.223 882.14C257.676 882.367 258.129 882.48 258.583 882.48C258.809 882.48 259.149 882.367 259.603 882.14C259.149 881.46 258.923 880.78 258.923 880.1C258.923 879.533 259.093 879.193 259.433 879.08L257.903 875.85C257.676 875.283 257.109 874.433 256.203 873.3C255.296 872.167 254.843 871.373 254.843 870.92C254.843 870.24 254.899 869.73 255.013 869.39C257.393 872.677 259.489 875.283 261.303 877.21C263.003 879.137 265.043 880.497 267.423 881.29C269.803 882.197 273.146 882.65 277.453 882.65C281.646 882.65 285.726 880.893 289.693 877.38C293.546 873.98 297.229 869.56 300.743 864.12C304.143 858.793 307.259 853.07 310.093 846.95C312.926 840.83 315.363 835.107 317.403 829.78C319.443 824.34 321.029 820.033 322.163 816.86C323.976 811.647 325.676 806.433 327.263 801.22C328.963 796.007 330.663 790.793 332.363 785.58L323.183 786.09C323.069 785.977 323.013 785.75 323.013 785.41C323.013 784.73 323.466 783.937 324.373 783.03C325.279 782.123 326.299 781.387 327.433 780.82C328.566 780.14 329.416 779.8 329.983 779.8H334.403C335.876 775.607 337.633 770.96 339.673 765.86C341.826 760.76 344.263 755.66 346.983 750.56C349.816 745.46 352.989 740.813 356.503 736.62C360.129 732.313 364.153 728.857 368.573 726.25C372.993 723.643 377.866 722.34 383.193 722.34C383.759 722.34 384.949 722.453 386.763 722.68C388.689 722.907 390.503 723.247 392.203 723.7C393.903 724.04 394.753 724.607 394.753 725.4C394.753 725.627 394.696 725.74 394.583 725.74C394.583 725.74 394.526 725.74 394.413 725.74C394.413 725.74 394.413 725.683 394.413 725.57L393.223 725.4C393.676 726.42 393.903 727.78 393.903 729.48C393.903 730.273 393.789 731.293 393.563 732.54C393.449 733.673 393.223 734.58 392.883 735.26C392.769 735.487 392.373 736.223 391.693 737.47C391.013 738.603 390.333 739.68 389.653 740.7C388.973 741.72 388.576 742.23 388.463 742.23C388.349 742.117 388.293 742.003 388.293 741.89C388.293 741.777 388.689 740.983 389.483 739.51C390.276 737.923 390.673 736.337 390.673 734.75C390.673 732.143 389.539 729.99 387.273 728.29C385.119 726.477 382.853 725.57 380.473 725.57C377.299 725.57 374.069 726.987 370.783 729.82C367.609 732.653 364.549 736.337 361.603 740.87C358.656 745.403 355.936 750.163 353.443 755.15C351.063 760.137 348.966 764.897 347.153 769.43C345.339 773.85 343.979 777.363 343.073 779.97H351.743C353.329 779.97 354.859 779.97 356.333 779.97C357.806 779.857 359.279 779.743 360.753 779.63L361.093 779.8L360.583 780.31C360.243 780.65 359.393 781.16 358.033 781.84C356.673 782.52 355.313 783.2 353.953 783.88C352.593 784.447 351.629 784.787 351.063 784.9C349.589 785.127 347.946 785.24 346.133 785.24C344.433 785.24 342.789 785.24 341.203 785.24C340.069 788.98 338.823 792.72 337.463 796.46C336.216 800.087 334.969 803.713 333.723 807.34C331.003 815.047 328.226 822.697 325.393 830.29C322.673 837.883 319.443 845.137 315.703 852.05C311.849 859.077 307.033 865.707 301.253 871.94C297.059 876.473 292.129 880.327 286.463 883.5C280.683 886.673 274.619 888.26 268.273 888.26ZM536.881 888.94C536.314 888.94 535.067 888.827 533.141 888.6C531.101 888.373 529.231 887.977 527.531 887.41C525.717 886.957 524.811 886.39 524.811 885.71C524.811 885.71 524.811 885.653 524.811 885.54C524.811 885.427 524.867 885.37 524.981 885.37C525.094 885.37 525.151 885.37 525.151 885.37C525.151 885.483 525.151 885.54 525.151 885.54L526.341 885.71C525.887 884.69 525.661 883.387 525.661 881.8C525.661 881.007 525.774 879.987 526.001 878.74C526.114 877.607 526.341 876.643 526.681 875.85C526.794 875.623 527.191 874.943 527.871 873.81C528.551 872.677 529.287 871.6 530.081 870.58C530.761 869.56 531.157 869.05 531.271 869.05V869.22C531.271 869.333 530.874 870.127 530.081 871.6C529.287 873.187 528.891 874.773 528.891 876.36C528.891 878.173 529.571 879.873 530.931 881.46C532.177 883.047 533.764 884.293 535.691 885.2C537.617 886.22 539.431 886.73 541.131 886.73C544.417 886.73 547.591 885.37 550.651 882.65C553.711 879.93 556.657 876.36 559.491 871.94C562.324 867.52 564.931 862.647 567.311 857.32C569.804 851.993 572.014 846.667 573.941 841.34C575.867 836.013 577.567 831.083 579.041 826.55C580.514 822.017 581.647 818.447 582.441 815.84C582.441 815.727 582.441 815.67 582.441 815.67C582.554 815.557 582.611 815.443 582.611 815.33C582.611 814.99 582.497 814.82 582.271 814.82C582.157 814.82 581.987 814.933 581.761 815.16C578.247 819.807 574.621 824.397 570.881 828.93C567.254 833.35 562.891 837.033 557.791 839.98C556.997 840.433 556.091 840.887 555.071 841.34C554.051 841.793 553.087 842.02 552.181 842.02C550.027 842.02 548.951 840.207 548.951 836.58C548.951 834.087 549.687 830.97 551.161 827.23C552.747 823.377 554.561 819.24 556.601 814.82C558.754 810.4 560.567 806.093 562.041 801.9C563.627 797.593 564.421 793.74 564.421 790.34C564.421 789.887 564.307 789.377 564.081 788.81C563.967 788.243 563.627 787.96 563.061 787.96C562.267 787.96 561.191 788.527 559.831 789.66C558.471 790.68 557.054 791.983 555.581 793.57C554.107 795.157 552.804 796.687 551.671 798.16C550.651 799.633 549.971 800.767 549.631 801.56C549.177 801.333 548.951 801.05 548.951 800.71C548.951 799.69 549.914 798.103 551.841 795.95C553.881 793.683 556.261 791.36 558.981 788.98C561.701 786.487 564.307 784.39 566.801 782.69C569.294 780.99 571.051 780.14 572.071 780.14C573.317 780.14 574.111 780.99 574.451 782.69C574.904 784.39 575.131 785.693 575.131 786.6C575.131 788.753 574.621 791.473 573.601 794.76C572.694 797.933 571.504 801.39 570.031 805.13C568.557 808.757 567.084 812.213 565.611 815.5C564.251 818.673 563.117 821.337 562.211 823.49C561.984 824.283 561.474 825.587 560.681 827.4C560.001 829.1 559.661 830.46 559.661 831.48C559.661 833.18 560.284 834.03 561.531 834.03C562.777 834.03 564.251 833.293 565.951 831.82C567.764 830.233 569.067 828.987 569.861 828.08C574.734 822.753 578.927 816.747 582.441 810.06C586.067 803.373 589.014 796.573 591.281 789.66C591.621 788.753 591.791 788.13 591.791 787.79C591.904 787.337 592.414 786.827 593.321 786.26C593.661 786.033 594.681 785.41 596.381 784.39C598.194 783.37 599.951 782.407 601.651 781.5C603.351 780.48 604.201 779.97 604.201 779.97C604.314 779.97 604.371 780.083 604.371 780.31C604.371 780.65 604.201 781.047 603.861 781.5C603.521 781.953 603.237 782.293 603.011 782.52C602.104 783.993 601.141 785.977 600.121 788.47C599.214 790.963 598.307 793.457 597.401 795.95C596.607 798.443 595.927 800.54 595.361 802.24C593.094 809.04 590.884 815.84 588.731 822.64C586.577 829.44 584.311 836.183 581.931 842.87C580.231 847.63 577.964 852.673 575.131 858C572.411 863.327 569.181 868.313 565.441 872.96C561.701 877.72 557.451 881.573 552.691 884.52C547.931 887.467 542.661 888.94 536.881 888.94ZM604.543 841.34C602.73 841.34 601.54 840.66 600.973 839.3C600.52 837.827 600.293 836.353 600.293 834.88C600.293 829.553 601.313 823.83 603.353 817.71C605.393 811.59 608.057 805.753 611.343 800.2C614.63 794.533 618.2 789.887 622.053 786.26C624.32 784.22 626.53 782.747 628.683 781.84C630.837 780.82 633.5 780.31 636.673 780.31C638.487 780.31 640.3 780.423 642.113 780.65C643.927 780.877 645.74 781.16 647.553 781.5C653.22 768.92 658.49 756.17 663.363 743.25C664.383 740.643 666.083 738.49 668.463 736.79C670.39 735.543 672.77 734.523 675.603 733.73C678.437 732.937 680.93 732.54 683.083 732.54C683.31 732.54 683.593 732.653 683.933 732.88C684.273 733.107 684.5 733.333 684.613 733.56V734.07C684.5 734.41 684.33 734.58 684.103 734.58C683.877 734.467 683.65 734.41 683.423 734.41C681.837 734.41 679.967 735.6 677.813 737.98C675.773 740.36 673.563 743.477 671.183 747.33C668.917 751.183 666.65 755.433 664.383 760.08C662.117 764.613 659.963 769.09 657.923 773.51C655.997 777.817 654.297 781.727 652.823 785.24C651.463 788.64 650.443 791.133 649.763 792.72C648.97 794.873 647.893 797.65 646.533 801.05C645.173 804.45 643.87 808.077 642.623 811.93C641.377 815.783 640.3 819.41 639.393 822.81C638.487 826.21 638.033 829.043 638.033 831.31C638.033 831.99 638.147 832.783 638.373 833.69C638.6 834.597 639.167 835.05 640.073 835.05C640.64 835.05 641.093 834.937 641.433 834.71C641.887 834.483 642.34 834.257 642.793 834.03C645.4 832.557 647.893 830.573 650.273 828.08C652.767 825.473 655.033 822.697 657.073 819.75C659.113 816.69 660.757 813.913 662.003 811.42C662.23 811.533 662.343 811.76 662.343 812.1C662.343 812.893 661.663 814.31 660.303 816.35C659.057 818.277 657.753 820.147 656.393 821.96C655.147 823.66 654.467 824.737 654.353 825.19C654.24 825.983 654.07 826.663 653.843 827.23C653.617 827.683 653.277 828.307 652.823 829.1C651.35 830.573 649.48 832.273 647.213 834.2C644.947 836.127 642.567 837.827 640.073 839.3C637.693 840.66 635.37 841.34 633.103 841.34C629.59 841.34 627.833 839.47 627.833 835.73C627.833 833.463 628.287 830.857 629.193 827.91C630.213 824.963 631.347 822.017 632.593 819.07C633.953 816.123 635.143 813.63 636.163 811.59C634.917 813.403 632.99 815.953 630.383 819.24C627.89 822.527 625.057 825.87 621.883 829.27C618.823 832.67 615.763 835.56 612.703 837.94C609.643 840.207 606.923 841.34 604.543 841.34ZM612.023 834.03C613.27 834.03 614.8 833.237 616.613 831.65C618.54 830.063 620.523 828.137 622.563 825.87C624.717 823.49 626.587 821.28 628.173 819.24C629.873 817.087 631.063 815.5 631.743 814.48C633.103 812.44 634.633 809.833 636.333 806.66C638.033 803.487 639.507 800.257 640.753 796.97C642.113 793.683 642.793 790.907 642.793 788.64C642.793 785.127 641.093 783.37 637.693 783.37C635.54 783.37 633.33 784.277 631.063 786.09C628.91 787.903 627.153 789.547 625.793 791.02C624.32 792.833 622.62 795.44 620.693 798.84C618.88 802.24 617.18 805.923 615.593 809.89C614.007 813.857 612.647 817.653 611.513 821.28C610.493 824.907 609.983 827.91 609.983 830.29C609.983 830.97 610.097 831.763 610.323 832.67C610.55 833.577 611.117 834.03 612.023 834.03ZM689.07 841.51C687.03 841.51 685.67 840.943 684.99 839.81C684.31 838.563 683.97 837.033 683.97 835.22C683.97 832.273 684.424 828.987 685.33 825.36C686.35 821.62 687.257 818.333 688.05 815.5C685.104 820.033 681.704 824.51 677.85 828.93C673.997 833.35 669.577 836.863 664.59 839.47C663.797 839.923 662.89 840.377 661.87 840.83C660.85 841.17 659.887 841.34 658.98 841.34C657.394 841.34 656.317 840.773 655.75 839.64C655.297 838.507 655.07 837.317 655.07 836.07V835.39C655.07 833.577 655.41 831.763 656.09 829.95C656.77 828.023 657.394 826.21 657.96 824.51C658.867 821.903 659.944 818.673 661.19 814.82C662.55 810.853 663.74 806.887 664.76 802.92C665.894 798.953 666.46 795.723 666.46 793.23C666.46 792.21 666.29 791.247 665.95 790.34C665.724 789.433 664.987 788.923 663.74 788.81C663.74 788.81 663.627 788.81 663.4 788.81C663.287 788.81 663.23 788.753 663.23 788.64C663.23 788.3 663.797 787.96 664.93 787.62C666.177 787.167 667.65 786.713 669.35 786.26C671.05 785.807 672.637 785.467 674.11 785.24C675.584 784.9 676.547 784.73 677 784.73C677.227 784.73 677.624 784.787 678.19 784.9C678.87 785.013 679.21 785.353 679.21 785.92C679.21 786.147 679.154 786.317 679.04 786.43C677.907 789.15 676.604 792.38 675.13 796.12C673.657 799.86 672.184 803.827 670.71 808.02C669.35 812.1 668.217 816.123 667.31 820.09C666.404 823.943 665.95 827.4 665.95 830.46C665.95 831.027 666.064 831.593 666.29 832.16C666.517 832.727 666.97 833.01 667.65 833.01C668.897 833.01 670.427 832.273 672.24 830.8C674.167 829.327 675.527 828.193 676.32 827.4C680.514 822.98 684.31 817.597 687.71 811.25C691.11 804.903 693.717 798.84 695.53 793.06C696.097 791.36 696.664 790.17 697.23 789.49C697.797 788.697 698.817 787.733 700.29 786.6C702.104 785.353 704.087 784.22 706.24 783.2C708.507 782.18 710.774 781.67 713.04 781.67C713.267 781.67 713.55 781.84 713.89 782.18C714.23 782.407 714.4 782.69 714.4 783.03C714.4 783.257 714.23 783.427 713.89 783.54C713.664 783.54 713.437 783.54 713.21 783.54C711.737 783.54 710.207 784.447 708.62 786.26C707.034 788.073 705.504 790.397 704.03 793.23C702.557 796.063 701.197 799.01 699.95 802.07C698.817 805.13 697.797 807.963 696.89 810.57C696.097 813.063 695.53 814.933 695.19 816.18C694.737 818.333 694.227 820.487 693.66 822.64C693.207 824.793 692.98 827.003 692.98 829.27C692.98 830.177 693.094 831.367 693.32 832.84C693.66 834.2 694.51 834.88 695.87 834.88C696.664 834.88 697.457 834.597 698.25 834.03C700.744 832.557 703.124 830.573 705.39 828.08C707.657 825.473 709.754 822.697 711.68 819.75C713.607 816.69 715.137 813.913 716.27 811.42C716.497 811.533 716.61 811.76 716.61 812.1C716.61 813.007 715.987 814.48 714.74 816.52C713.607 818.447 712.417 820.317 711.17 822.13C710.037 823.83 709.414 824.85 709.3 825.19C709.187 825.983 709.017 826.663 708.79 827.23C708.677 827.683 708.45 828.307 708.11 829.1C706.75 830.573 704.937 832.273 702.67 834.2C700.517 836.127 698.25 837.827 695.87 839.3C693.49 840.773 691.224 841.51 689.07 841.51ZM704.768 843.21C704.541 843.21 704.428 843.153 704.428 843.04C704.428 842.587 704.654 842.133 705.108 841.68C705.448 841.34 705.731 841 705.958 840.66C706.978 838.96 708.111 836.07 709.358 831.99C710.718 827.797 712.021 823.207 713.268 818.22C714.628 813.233 715.818 808.587 716.838 804.28C717.971 799.86 718.764 796.517 719.218 794.25C719.444 793.343 719.671 792.153 719.898 790.68C720.238 789.207 720.634 787.733 721.088 786.26C721.541 784.787 722.051 783.823 722.618 783.37C723.638 782.463 725.168 781.67 727.208 780.99C729.248 780.31 731.288 779.8 733.328 779.46C735.481 779.007 737.238 778.78 738.598 778.78C738.824 778.78 739.108 778.893 739.448 779.12C739.788 779.347 740.014 779.573 740.128 779.8L740.298 780.31C740.184 780.65 740.014 780.82 739.788 780.82C739.561 780.707 739.334 780.65 739.108 780.65C736.954 780.65 734.971 781.897 733.158 784.39C731.344 786.77 729.758 789.717 728.398 793.23C727.038 796.743 725.848 800.143 724.828 803.43C723.921 806.603 723.298 808.983 722.958 810.57C724.091 807.963 725.564 805.017 727.378 801.73C729.304 798.33 731.514 795.1 734.008 792.04C736.501 788.867 739.221 786.26 742.168 784.22C745.114 782.067 748.231 780.99 751.518 780.99C751.971 780.99 752.708 781.103 753.728 781.33C754.861 781.443 755.881 781.727 756.788 782.18C757.808 782.52 758.318 782.973 758.318 783.54L758.148 783.71H757.978L756.958 783.37C757.298 784.163 757.524 784.957 757.638 785.75C757.751 786.543 757.808 787.337 757.808 788.13C757.808 788.81 757.581 790.283 757.128 792.55C756.788 794.817 756.278 796.97 755.598 799.01C755.031 800.937 754.408 801.9 753.728 801.9C753.274 801.9 753.048 801.73 753.048 801.39C753.048 800.823 753.218 799.917 753.558 798.67C754.011 797.31 754.238 796.063 754.238 794.93C754.238 792.89 753.728 791.247 752.708 790C751.688 788.753 750.158 788.13 748.118 788.13C744.718 788.13 741.431 789.603 738.258 792.55C735.084 795.383 732.194 798.953 729.588 803.26C726.981 807.453 724.771 811.703 722.958 816.01C721.144 820.317 719.898 823.83 719.218 826.55C718.764 828.023 718.368 829.95 718.028 832.33C717.688 834.597 716.838 836.183 715.478 837.09C715.138 837.203 714.061 837.77 712.248 838.79C710.548 839.81 708.904 840.773 707.318 841.68C705.618 842.7 704.768 843.21 704.768 843.21ZM755.95 841.34C754.136 841.34 752.946 840.66 752.38 839.3C751.926 837.827 751.7 836.353 751.7 834.88C751.7 829.553 752.72 823.83 754.76 817.71C756.8 811.59 759.463 805.753 762.75 800.2C766.036 794.533 769.606 789.887 773.46 786.26C777.54 782.52 782.356 780.65 787.91 780.65C790.176 780.65 792.386 780.933 794.54 781.5C796.806 781.953 799.016 782.633 801.17 783.54C803.096 782.18 805.193 780.99 807.46 779.97C809.726 778.95 812.05 778.44 814.43 778.44C814.996 778.44 815.45 778.78 815.79 779.46V779.97C815.79 780.31 815.62 780.48 815.28 780.48C815.053 780.367 814.826 780.31 814.6 780.31C812.786 780.31 810.803 781.727 808.65 784.56C806.496 787.28 804.343 790.793 802.19 795.1C800.036 799.407 798.053 803.94 796.24 808.7C794.54 813.46 793.123 817.823 791.99 821.79C790.97 825.757 790.46 828.76 790.46 830.8C790.46 831.593 790.573 832.5 790.8 833.52C791.14 834.54 791.82 835.05 792.84 835.05C793.406 835.05 793.86 834.937 794.2 834.71C794.653 834.483 795.106 834.257 795.56 834.03C798.053 832.557 800.49 830.573 802.87 828.08C805.363 825.473 807.63 822.697 809.67 819.75C811.823 816.69 813.58 813.913 814.94 811.42C815.053 811.533 815.11 811.76 815.11 812.1C815.11 812.78 814.713 813.8 813.92 815.16C813.126 816.407 812.22 817.767 811.2 819.24C810.18 820.713 809.216 822.017 808.31 823.15C807.516 824.283 807.12 824.963 807.12 825.19C807.006 825.983 806.836 826.663 806.61 827.23C806.383 827.683 806.043 828.307 805.59 829.1C804.116 830.573 802.246 832.273 799.98 834.2C797.713 836.127 795.333 837.827 792.84 839.3C790.46 840.66 788.136 841.34 785.87 841.34C782.356 841.34 780.6 839.47 780.6 835.73C780.6 833.463 781.053 830.857 781.96 827.91C782.98 824.85 784.113 821.847 785.36 818.9C786.72 815.84 787.91 813.29 788.93 811.25C788.93 811.137 788.93 810.967 788.93 810.74C788.93 810.513 788.873 810.4 788.76 810.4C788.646 810.4 788.476 810.513 788.25 810.74C786.89 812.553 784.906 815.16 782.3 818.56C779.693 821.96 776.803 825.417 773.63 828.93C770.57 832.33 767.453 835.277 764.28 837.77C761.106 840.15 758.33 841.34 755.95 841.34ZM763.43 834.03C764.676 834.03 766.206 833.237 768.02 831.65C769.946 829.95 771.93 827.967 773.97 825.7C776.123 823.32 777.993 821.053 779.58 818.9C781.28 816.747 782.47 815.16 783.15 814.14C784.51 812.1 786.04 809.55 787.74 806.49C789.553 803.43 791.083 800.257 792.33 796.97C793.69 793.683 794.37 790.907 794.37 788.64C794.37 785.127 792.613 783.37 789.1 783.37C787.06 783.37 784.906 784.277 782.64 786.09C780.373 787.903 778.56 789.547 777.2 791.02C775.726 792.833 774.026 795.44 772.1 798.84C770.286 802.24 768.586 805.923 767 809.89C765.413 813.857 764.053 817.653 762.92 821.28C761.9 824.907 761.39 827.91 761.39 830.29C761.39 830.97 761.503 831.763 761.73 832.67C761.956 833.577 762.523 834.03 763.43 834.03ZM802.879 843.21C802.765 843.21 802.709 843.153 802.709 843.04C802.709 842.587 802.935 842.133 803.389 841.68C803.729 841.227 803.955 840.887 804.069 840.66C804.862 839.413 805.825 837.317 806.959 834.37C807.979 831.31 808.999 827.91 810.019 824.17C811.152 820.317 812.172 816.463 813.079 812.61C814.099 808.643 815.005 805.017 815.799 801.73C816.592 798.443 817.159 795.95 817.499 794.25C817.725 793.343 817.952 792.153 818.179 790.68C818.405 789.207 818.745 787.733 819.199 786.26C819.652 784.787 820.162 783.823 820.729 783.37C821.862 782.463 823.392 781.67 825.319 780.99C827.359 780.31 829.455 779.8 831.609 779.46C833.762 779.007 835.519 778.78 836.879 778.78C837.105 778.78 837.389 778.893 837.729 779.12C838.069 779.347 838.295 779.573 838.409 779.8V780.31C838.409 780.65 838.295 780.82 838.069 780.82C837.842 780.707 837.615 780.65 837.389 780.65C834.895 780.65 832.685 782.067 830.759 784.9C828.832 787.62 827.189 791.02 825.829 795.1C824.469 799.067 823.335 802.92 822.429 806.66C821.522 810.4 820.842 813.233 820.389 815.16C824.015 808.927 828.152 802.977 832.799 797.31C837.559 791.53 843.112 786.883 849.459 783.37C850.252 782.917 851.159 782.463 852.179 782.01C853.199 781.443 854.105 781.16 854.899 781.16C856.372 781.16 857.279 781.84 857.619 783.2C857.959 784.447 858.129 785.637 858.129 786.77C858.129 788.243 857.619 790.397 856.599 793.23C855.579 796.063 854.389 798.897 853.029 801.73C851.782 804.45 850.819 806.603 850.139 808.19C849.459 810.003 848.665 812.327 847.759 815.16C846.852 817.993 846.059 820.827 845.379 823.66C844.699 826.493 844.359 828.873 844.359 830.8C844.359 831.593 844.472 832.5 844.699 833.52C844.925 834.54 845.549 835.05 846.569 835.05C847.135 835.05 847.589 834.937 847.929 834.71C848.382 834.483 848.835 834.257 849.289 834.03C851.895 832.557 854.389 830.573 856.769 828.08C859.262 825.473 861.529 822.697 863.569 819.75C865.609 816.69 867.309 813.913 868.669 811.42C868.782 811.533 868.839 811.76 868.839 812.1C868.839 812.78 868.442 813.8 867.649 815.16C866.855 816.407 865.949 817.767 864.929 819.24C863.909 820.713 862.945 822.017 862.039 823.15C861.245 824.283 860.849 824.963 860.849 825.19C860.735 825.983 860.565 826.663 860.339 827.23C860.112 827.683 859.829 828.307 859.489 829.1C858.129 830.46 856.145 832.16 853.539 834.2C851.045 836.127 848.439 837.883 845.719 839.47C843.112 840.943 840.789 841.68 838.749 841.68C836.935 841.68 835.689 841 835.009 839.64C834.442 838.167 834.159 836.637 834.159 835.05C834.159 831.99 834.782 828.363 836.029 824.17C837.275 819.863 838.749 815.613 840.449 811.42C842.149 807.113 843.565 803.487 844.699 800.54C845.039 799.633 845.549 798.217 846.229 796.29C847.022 794.363 847.419 793.003 847.419 792.21C847.419 791.643 847.305 791.02 847.079 790.34C846.965 789.66 846.455 789.32 845.549 789.32C844.415 789.32 842.942 790.057 841.129 791.53C839.429 793.003 838.125 794.193 837.219 795.1C832.345 800.54 828.152 806.603 824.639 813.29C821.125 819.863 818.179 826.663 815.799 833.69C815.459 834.597 815.232 835.277 815.119 835.73C815.119 836.07 814.665 836.523 813.759 837.09C813.419 837.317 812.342 837.94 810.529 838.96C808.829 839.98 807.185 840.943 805.599 841.85C803.899 842.757 802.992 843.21 802.879 843.21Z" fill="#D02A1E"/>
<path d="M259.12 947.48C257.253 947.48 255.493 947.133 253.84 946.44C252.187 945.747 250.747 944.8 249.52 943.6L251.84 940.88C252.853 941.813 254 942.573 255.28 943.16C256.56 943.72 257.92 944 259.36 944C261.013 944 262.293 943.653 263.2 942.96C264.107 942.267 264.56 941.387 264.56 940.32C264.56 939.467 264.36 938.787 263.96 938.28C263.56 937.773 263.013 937.347 262.32 937C261.653 936.653 260.88 936.307 260 935.96L256.32 934.32C255.44 933.973 254.56 933.52 253.68 932.96C252.827 932.373 252.12 931.64 251.56 930.76C251 929.853 250.72 928.76 250.72 927.48C250.72 926.12 251.093 924.907 251.84 923.84C252.587 922.747 253.627 921.893 254.96 921.28C256.293 920.64 257.827 920.32 259.56 920.32C261.187 920.32 262.707 920.627 264.12 921.24C265.533 921.827 266.747 922.613 267.76 923.6L265.68 926.16C264.827 925.413 263.893 924.84 262.88 924.44C261.893 924.013 260.72 923.8 259.36 923.8C258 923.8 256.893 924.107 256.04 924.72C255.187 925.333 254.76 926.173 254.76 927.24C254.76 928.013 254.973 928.64 255.4 929.12C255.853 929.6 256.427 930 257.12 930.32C257.84 930.64 258.573 930.96 259.32 931.28L262.88 932.84C263.973 933.267 264.947 933.787 265.8 934.4C266.68 934.987 267.373 935.72 267.88 936.6C268.387 937.48 268.64 938.56 268.64 939.84C268.64 941.253 268.253 942.547 267.48 943.72C266.733 944.867 265.64 945.787 264.2 946.48C262.787 947.147 261.093 947.48 259.12 947.48ZM289.784 947.48C288.078 947.48 286.478 947.08 284.984 946.28C283.518 945.48 282.318 944.32 281.384 942.8C280.478 941.253 280.024 939.4 280.024 937.24C280.024 935.08 280.478 933.24 281.384 931.72C282.318 930.173 283.518 929 284.984 928.2C286.478 927.373 288.078 926.96 289.784 926.96C291.491 926.96 293.078 927.373 294.544 928.2C296.038 929 297.238 930.173 298.144 931.72C299.078 933.24 299.544 935.08 299.544 937.24C299.544 939.4 299.078 941.253 298.144 942.8C297.238 944.32 296.038 945.48 294.544 946.28C293.078 947.08 291.491 947.48 289.784 947.48ZM289.784 944.24C290.931 944.24 291.931 943.947 292.784 943.36C293.638 942.773 294.291 941.96 294.744 940.92C295.224 939.88 295.464 938.653 295.464 937.24C295.464 935.853 295.224 934.64 294.744 933.6C294.291 932.533 293.638 931.707 292.784 931.12C291.931 930.533 290.931 930.24 289.784 930.24C288.638 930.24 287.638 930.533 286.784 931.12C285.931 931.707 285.264 932.533 284.784 933.6C284.331 934.64 284.104 935.853 284.104 937.24C284.104 938.653 284.331 939.88 284.784 940.92C285.264 941.96 285.931 942.773 286.784 943.36C287.638 943.947 288.638 944.24 289.784 944.24ZM317.969 947V926.08C317.969 924.533 318.249 923.16 318.809 921.96C319.395 920.76 320.275 919.827 321.449 919.16C322.649 918.493 324.182 918.16 326.049 918.16C327.062 918.16 328.035 918.253 328.969 918.44C329.929 918.627 330.862 918.907 331.769 919.28L330.889 922.2C330.142 921.88 329.422 921.653 328.729 921.52C328.062 921.387 327.315 921.32 326.489 921.32C324.889 921.32 323.715 921.733 322.969 922.56C322.249 923.36 321.889 924.507 321.889 926V947H317.969ZM312.489 930.64V927.64L318.089 927.44H329.689V930.64H312.489ZM355.073 947.48C353.1 947.48 351.54 947.133 350.393 946.44C349.273 945.747 348.473 944.787 347.993 943.56C347.513 942.333 347.273 940.907 347.273 939.28V930.64H341.913V927.68L347.433 927.44L347.953 921.28H351.233V927.44H360.473V930.64H351.233V939.28C351.233 940.373 351.38 941.307 351.673 942.08C351.966 942.827 352.46 943.387 353.153 943.76C353.846 944.107 354.78 944.28 355.953 944.28C356.833 944.28 357.633 944.213 358.353 944.08C359.073 943.92 359.766 943.72 360.433 943.48L361.233 946.36C360.353 946.653 359.406 946.907 358.393 947.12C357.406 947.36 356.3 947.48 355.073 947.48ZM374.417 947L370.417 927.44H374.337L376.337 938.2C376.524 939.107 376.684 940.013 376.817 940.92C376.951 941.827 377.071 942.747 377.177 943.68H377.337C377.471 942.747 377.631 941.827 377.817 940.92C378.004 940.013 378.191 939.107 378.377 938.2L380.497 929.04H384.017L386.097 938.2C386.284 939.107 386.484 940.013 386.697 940.92C386.937 941.827 387.111 942.747 387.217 943.68H387.377C387.537 942.747 387.671 941.827 387.777 940.92C387.884 940.013 388.017 939.107 388.177 938.2L390.177 927.44H393.857L389.977 947H385.057L383.137 938.44C382.977 937.72 382.817 936.88 382.657 935.92C382.524 934.96 382.377 933.88 382.217 932.68H382.057C381.924 933.8 381.777 934.84 381.617 935.8C381.484 936.733 381.337 937.613 381.177 938.44L379.297 947H374.417ZM410.562 947.48C409.309 947.48 408.175 947.253 407.162 946.8C406.175 946.32 405.389 945.667 404.802 944.84C404.242 943.987 403.962 942.987 403.962 941.84C403.962 939.653 405.029 937.987 407.162 936.84C409.322 935.693 412.855 934.933 417.762 934.56C417.735 933.76 417.549 933.027 417.202 932.36C416.882 931.693 416.362 931.173 415.642 930.8C414.949 930.4 414.029 930.2 412.882 930.2C412.082 930.2 411.295 930.307 410.522 930.52C409.749 930.707 409.002 930.973 408.282 931.32C407.562 931.667 406.882 932.027 406.242 932.4L404.762 929.72C405.482 929.293 406.309 928.867 407.242 928.44C408.175 927.987 409.175 927.627 410.242 927.36C411.335 927.093 412.442 926.96 413.562 926.96C415.375 926.96 416.882 927.293 418.082 927.96C419.282 928.627 420.189 929.573 420.802 930.8C421.415 932.027 421.722 933.507 421.722 935.24V947H418.482L418.162 944.48H418.042C417.002 945.28 415.829 945.987 414.522 946.6C413.215 947.187 411.895 947.48 410.562 947.48ZM411.682 944.32C412.722 944.32 413.749 944.093 414.762 943.64C415.775 943.187 416.775 942.547 417.762 941.72V937.08C415.202 937.267 413.189 937.56 411.722 937.96C410.282 938.36 409.269 938.867 408.682 939.48C408.095 940.067 407.802 940.76 407.802 941.56C407.802 942.2 407.975 942.733 408.322 943.16C408.695 943.56 409.175 943.853 409.762 944.04C410.349 944.227 410.989 944.32 411.682 944.32ZM437.226 947V927.44H440.506L440.826 932H440.946C441.96 930.4 443.2 929.16 444.666 928.28C446.133 927.4 447.733 926.96 449.466 926.96C450.213 926.96 450.893 927.027 451.506 927.16C452.12 927.293 452.72 927.493 453.306 927.76L452.426 931.16C451.76 930.92 451.186 930.76 450.706 930.68C450.226 930.573 449.613 930.52 448.866 930.52C447.453 930.52 446.093 930.92 444.786 931.72C443.48 932.52 442.28 933.907 441.186 935.88V947H437.226ZM475.691 947.48C473.717 947.48 471.917 947.08 470.291 946.28C468.691 945.48 467.424 944.307 466.491 942.76C465.557 941.213 465.091 939.36 465.091 937.2C465.091 935.067 465.557 933.24 466.491 931.72C467.451 930.2 468.691 929.027 470.211 928.2C471.731 927.373 473.357 926.96 475.091 926.96C477.011 926.96 478.637 927.36 479.971 928.16C481.304 928.933 482.317 930.013 483.011 931.4C483.731 932.76 484.091 934.36 484.091 936.2C484.091 936.6 484.077 937 484.051 937.4C484.024 937.773 483.984 938.093 483.931 938.36H467.851V935.44H481.451L480.571 936.4C480.571 934.293 480.091 932.72 479.131 931.68C478.171 930.613 476.864 930.08 475.211 930.08C474.064 930.08 473.011 930.36 472.051 930.92C471.117 931.453 470.371 932.253 469.811 933.32C469.251 934.36 468.971 935.653 468.971 937.2C468.971 938.8 469.277 940.133 469.891 941.2C470.531 942.24 471.384 943.027 472.451 943.56C473.544 944.093 474.797 944.36 476.211 944.36C477.304 944.36 478.304 944.213 479.211 943.92C480.117 943.6 481.011 943.173 481.891 942.64L483.291 945.16C482.304 945.827 481.171 946.387 479.891 946.84C478.611 947.267 477.211 947.48 475.691 947.48ZM527.379 947V920.8H534.019C536.633 920.8 538.846 921.293 540.659 922.28C542.499 923.267 543.899 924.733 544.859 926.68C545.819 928.6 546.299 930.973 546.299 933.8C546.299 936.627 545.819 939.027 544.859 941C543.899 942.973 542.526 944.467 540.739 945.48C538.953 946.493 536.779 947 534.219 947H527.379ZM531.379 943.76H533.779C535.619 943.76 537.153 943.387 538.379 942.64C539.633 941.867 540.579 940.747 541.219 939.28C541.859 937.813 542.179 935.987 542.179 933.8C542.179 931.613 541.859 929.8 541.219 928.36C540.579 926.92 539.633 925.84 538.379 925.12C537.153 924.4 535.619 924.04 533.779 924.04H531.379V943.76ZM568.044 947.48C566.07 947.48 564.27 947.08 562.644 946.28C561.044 945.48 559.777 944.307 558.844 942.76C557.91 941.213 557.444 939.36 557.444 937.2C557.444 935.067 557.91 933.24 558.844 931.72C559.804 930.2 561.044 929.027 562.564 928.2C564.084 927.373 565.71 926.96 567.444 926.96C569.364 926.96 570.99 927.36 572.324 928.16C573.657 928.933 574.67 930.013 575.364 931.4C576.084 932.76 576.444 934.36 576.444 936.2C576.444 936.6 576.43 937 576.404 937.4C576.377 937.773 576.337 938.093 576.284 938.36H560.204V935.44H573.804L572.924 936.4C572.924 934.293 572.444 932.72 571.484 931.68C570.524 930.613 569.217 930.08 567.564 930.08C566.417 930.08 565.364 930.36 564.404 930.92C563.47 931.453 562.724 932.253 562.164 933.32C561.604 934.36 561.324 935.653 561.324 937.2C561.324 938.8 561.63 940.133 562.244 941.2C562.884 942.24 563.737 943.027 564.804 943.56C565.897 944.093 567.15 944.36 568.564 944.36C569.657 944.36 570.657 944.213 571.564 943.92C572.47 943.6 573.364 943.173 574.244 942.64L575.644 945.16C574.657 945.827 573.524 946.387 572.244 946.84C570.964 947.267 569.564 947.48 568.044 947.48ZM595.468 947L587.468 927.44H591.468L595.588 938.08C595.961 939.04 596.321 940.013 596.668 941C597.015 941.96 597.348 942.92 597.668 943.88H597.828C598.175 942.92 598.508 941.96 598.828 941C599.148 940.013 599.495 939.04 599.868 938.08L603.988 927.44H607.788L599.948 947H595.468ZM629.613 947.48C627.639 947.48 625.839 947.08 624.213 946.28C622.613 945.48 621.346 944.307 620.413 942.76C619.479 941.213 619.013 939.36 619.013 937.2C619.013 935.067 619.479 933.24 620.413 931.72C621.373 930.2 622.613 929.027 624.133 928.2C625.653 927.373 627.279 926.96 629.013 926.96C630.933 926.96 632.559 927.36 633.893 928.16C635.226 928.933 636.239 930.013 636.933 931.4C637.653 932.76 638.013 934.36 638.013 936.2C638.013 936.6 637.999 937 637.973 937.4C637.946 937.773 637.906 938.093 637.853 938.36H621.773V935.44H635.373L634.493 936.4C634.493 934.293 634.013 932.72 633.053 931.68C632.093 930.613 630.786 930.08 629.133 930.08C627.986 930.08 626.933 930.36 625.973 930.92C625.039 931.453 624.293 932.253 623.733 933.32C623.173 934.36 622.893 935.653 622.893 937.2C622.893 938.8 623.199 940.133 623.813 941.2C624.453 942.24 625.306 943.027 626.373 943.56C627.466 944.093 628.719 944.36 630.133 944.36C631.226 944.36 632.226 944.213 633.133 943.92C634.039 943.6 634.933 943.173 635.813 942.64L637.213 945.16C636.226 945.827 635.093 946.387 633.813 946.84C632.533 947.267 631.133 947.48 629.613 947.48ZM663.317 947.48C661.157 947.48 659.504 946.853 658.357 945.6C657.21 944.32 656.637 942.507 656.637 940.16V921.84H650.117V918.64H660.597V940.4C660.597 941.76 660.944 942.747 661.637 943.36C662.33 943.947 663.197 944.24 664.237 944.24C664.77 944.24 665.317 944.173 665.877 944.04C666.464 943.907 667.104 943.693 667.797 943.4L668.757 946.36C667.824 946.68 666.957 946.947 666.157 947.16C665.384 947.373 664.437 947.48 663.317 947.48ZM689.981 947.48C688.275 947.48 686.675 947.08 685.181 946.28C683.715 945.48 682.515 944.32 681.581 942.8C680.675 941.253 680.221 939.4 680.221 937.24C680.221 935.08 680.675 933.24 681.581 931.72C682.515 930.173 683.715 929 685.181 928.2C686.675 927.373 688.275 926.96 689.981 926.96C691.688 926.96 693.275 927.373 694.741 928.2C696.235 929 697.435 930.173 698.341 931.72C699.275 933.24 699.741 935.08 699.741 937.24C699.741 939.4 699.275 941.253 698.341 942.8C697.435 944.32 696.235 945.48 694.741 946.28C693.275 947.08 691.688 947.48 689.981 947.48ZM689.981 944.24C691.128 944.24 692.128 943.947 692.981 943.36C693.835 942.773 694.488 941.96 694.941 940.92C695.421 939.88 695.661 938.653 695.661 937.24C695.661 935.853 695.421 934.64 694.941 933.6C694.488 932.533 693.835 931.707 692.981 931.12C692.128 930.533 691.128 930.24 689.981 930.24C688.835 930.24 687.835 930.533 686.981 931.12C686.128 931.707 685.461 932.533 684.981 933.6C684.528 934.64 684.301 935.853 684.301 937.24C684.301 938.653 684.528 939.88 684.981 940.92C685.461 941.96 686.128 942.773 686.981 943.36C687.835 943.947 688.835 944.24 689.981 944.24ZM712.286 955V927.44H715.526L715.846 929.84H715.966C716.846 929.013 717.859 928.333 719.006 927.8C720.152 927.24 721.312 926.96 722.486 926.96C724.219 926.96 725.672 927.373 726.846 928.2C728.046 929.027 728.952 930.187 729.566 931.68C730.206 933.173 730.526 934.92 730.526 936.92C730.526 939.16 730.112 941.067 729.286 942.64C728.459 944.213 727.379 945.413 726.046 946.24C724.712 947.067 723.272 947.48 721.726 947.48C720.846 947.48 719.899 947.267 718.886 946.84C717.899 946.413 716.992 945.827 716.166 945.08H716.046L716.246 948.6V955H712.286ZM720.966 944.2C722.006 944.2 722.939 943.92 723.766 943.36C724.592 942.8 725.246 941.987 725.726 940.92C726.206 939.827 726.446 938.507 726.446 936.96C726.446 935.6 726.259 934.427 725.886 933.44C725.539 932.427 725.006 931.653 724.286 931.12C723.566 930.56 722.606 930.28 721.406 930.28C720.606 930.28 719.766 930.493 718.886 930.92C718.006 931.32 717.126 931.987 716.246 932.92V942.16C717.072 942.88 717.912 943.4 718.766 943.72C719.619 944.04 720.352 944.2 720.966 944.2ZM752.75 947.48C750.777 947.48 748.977 947.08 747.35 946.28C745.75 945.48 744.483 944.307 743.55 942.76C742.617 941.213 742.15 939.36 742.15 937.2C742.15 935.067 742.617 933.24 743.55 931.72C744.51 930.2 745.75 929.027 747.27 928.2C748.79 927.373 750.417 926.96 752.15 926.96C754.07 926.96 755.697 927.36 757.03 928.16C758.363 928.933 759.377 930.013 760.07 931.4C760.79 932.76 761.15 934.36 761.15 936.2C761.15 936.6 761.137 937 761.11 937.4C761.083 937.773 761.043 938.093 760.99 938.36H744.91V935.44H758.51L757.63 936.4C757.63 934.293 757.15 932.72 756.19 931.68C755.23 930.613 753.923 930.08 752.27 930.08C751.123 930.08 750.07 930.36 749.11 930.92C748.177 931.453 747.43 932.253 746.87 933.32C746.31 934.36 746.03 935.653 746.03 937.2C746.03 938.8 746.337 940.133 746.95 941.2C747.59 942.24 748.443 943.027 749.51 943.56C750.603 944.093 751.857 944.36 753.27 944.36C754.363 944.36 755.363 944.213 756.27 943.92C757.177 943.6 758.07 943.173 758.95 942.64L760.35 945.16C759.363 945.827 758.23 946.387 756.95 946.84C755.67 947.267 754.27 947.48 752.75 947.48ZM775.854 947V927.44H779.134L779.454 932H779.574C780.588 930.4 781.828 929.16 783.294 928.28C784.761 927.4 786.361 926.96 788.094 926.96C788.841 926.96 789.521 927.027 790.134 927.16C790.748 927.293 791.348 927.493 791.934 927.76L791.054 931.16C790.388 930.92 789.814 930.76 789.334 930.68C788.854 930.573 788.241 930.52 787.494 930.52C786.081 930.52 784.721 930.92 783.414 931.72C782.108 932.52 780.908 933.907 779.814 935.88V947H775.854Z" fill="#999999"/>
<path d="M872.41 796.05C872.037 796.05 871.687 795.77 871.36 795.21C871.08 794.65 870.94 794.207 870.94 793.88C870.94 793.553 871.08 793.203 871.36 792.83C871.64 792.457 871.92 792.223 872.2 792.13C872.387 791.897 872.76 791.617 873.32 791.29C873.88 790.963 874.463 790.66 875.07 790.38C875.677 790.1 876.097 789.96 876.33 789.96C876.377 789.96 876.4 789.983 876.4 790.03C876.447 790.03 876.47 790.03 876.47 790.03L876.54 790.1C876.54 790.147 876.377 790.357 876.05 790.73C875.77 791.057 875.583 791.267 875.49 791.36C875.257 791.687 875.047 792.06 874.86 792.48C874.72 792.9 874.603 793.32 874.51 793.74C874.37 794.16 874.113 794.65 873.74 795.21C873.413 795.77 872.97 796.05 872.41 796.05ZM887.697 795.14C886.95 795.14 886.46 794.86 886.227 794.3C886.04 793.693 885.947 793.087 885.947 792.48C885.947 790.287 886.367 787.93 887.207 785.41C888.047 782.89 889.143 780.487 890.497 778.2C891.85 775.867 893.32 773.953 894.907 772.46C895.84 771.62 896.75 771.013 897.637 770.64C898.523 770.22 899.62 770.01 900.927 770.01C901.673 770.01 902.42 770.057 903.167 770.15C903.913 770.243 904.66 770.36 905.407 770.5C907.74 765.32 909.91 760.07 911.917 754.75C912.337 753.677 913.037 752.79 914.017 752.09C914.81 751.577 915.79 751.157 916.957 750.83C918.123 750.503 919.15 750.34 920.037 750.34C920.13 750.34 920.247 750.387 920.387 750.48C920.527 750.573 920.62 750.667 920.667 750.76V750.97C920.62 751.11 920.55 751.18 920.457 751.18C920.363 751.133 920.27 751.11 920.177 751.11C919.523 751.11 918.753 751.6 917.867 752.58C917.027 753.56 916.117 754.843 915.137 756.43C914.203 758.017 913.27 759.767 912.337 761.68C911.403 763.547 910.517 765.39 909.677 767.21C908.883 768.983 908.183 770.593 907.577 772.04C907.017 773.44 906.597 774.467 906.317 775.12C905.99 776.007 905.547 777.15 904.987 778.55C904.427 779.95 903.89 781.443 903.377 783.03C902.863 784.617 902.42 786.11 902.047 787.51C901.673 788.91 901.487 790.077 901.487 791.01C901.487 791.29 901.533 791.617 901.627 791.99C901.72 792.363 901.953 792.55 902.327 792.55C902.56 792.55 902.747 792.503 902.887 792.41C903.073 792.317 903.26 792.223 903.447 792.13C904.52 791.523 905.547 790.707 906.527 789.68C907.553 788.607 908.487 787.463 909.327 786.25C910.167 784.99 910.843 783.847 911.357 782.82C911.45 782.867 911.497 782.96 911.497 783.1C911.497 783.427 911.217 784.01 910.657 784.85C910.143 785.643 909.607 786.413 909.047 787.16C908.533 787.86 908.253 788.303 908.207 788.49C908.16 788.817 908.09 789.097 907.997 789.33C907.903 789.517 907.763 789.773 907.577 790.1C906.97 790.707 906.2 791.407 905.267 792.2C904.333 792.993 903.353 793.693 902.327 794.3C901.347 794.86 900.39 795.14 899.457 795.14C898.01 795.14 897.287 794.37 897.287 792.83C897.287 791.897 897.473 790.823 897.847 789.61C898.267 788.397 898.733 787.183 899.247 785.97C899.807 784.757 900.297 783.73 900.717 782.89C900.203 783.637 899.41 784.687 898.337 786.04C897.31 787.393 896.143 788.77 894.837 790.17C893.577 791.57 892.317 792.76 891.057 793.74C889.797 794.673 888.677 795.14 887.697 795.14ZM890.777 792.13C891.29 792.13 891.92 791.803 892.667 791.15C893.46 790.497 894.277 789.703 895.117 788.77C896.003 787.79 896.773 786.88 897.427 786.04C898.127 785.153 898.617 784.5 898.897 784.08C899.457 783.24 900.087 782.167 900.787 780.86C901.487 779.553 902.093 778.223 902.607 776.87C903.167 775.517 903.447 774.373 903.447 773.44C903.447 771.993 902.747 771.27 901.347 771.27C900.46 771.27 899.55 771.643 898.617 772.39C897.73 773.137 897.007 773.813 896.447 774.42C895.84 775.167 895.14 776.24 894.347 777.64C893.6 779.04 892.9 780.557 892.247 782.19C891.593 783.823 891.033 785.387 890.567 786.88C890.147 788.373 889.937 789.61 889.937 790.59C889.937 790.87 889.983 791.197 890.077 791.57C890.17 791.943 890.403 792.13 890.777 792.13ZM916.902 795.28C914.195 795.28 912.842 793.903 912.842 791.15C912.842 789.097 913.262 786.903 914.102 784.57C914.942 782.19 916.039 779.927 917.392 777.78C918.745 775.587 920.169 773.813 921.662 772.46C923.435 770.92 925.512 770.15 927.892 770.15C928.452 770.15 929.129 770.22 929.922 770.36C930.762 770.5 931.485 770.78 932.092 771.2C932.699 771.573 933.002 772.133 933.002 772.88C933.002 773.953 932.605 775.19 931.812 776.59C931.019 777.943 930.295 779.04 929.642 779.88C929.875 779.927 930.155 779.997 930.482 780.09C930.855 780.183 931.042 780.37 931.042 780.65C931.042 780.79 930.925 780.86 930.692 780.86C930.272 780.86 929.852 780.813 929.432 780.72C929.012 780.627 928.592 780.58 928.172 780.58C926.585 780.58 924.952 780.813 923.272 781.28C921.639 781.747 920.075 782.237 918.582 782.75C918.115 783.87 917.695 785.107 917.322 786.46C916.995 787.813 916.832 789.097 916.832 790.31C916.832 791.197 916.995 791.99 917.322 792.69C917.695 793.39 918.395 793.74 919.422 793.74C920.682 793.74 921.965 793.39 923.272 792.69C924.625 791.943 925.909 791.01 927.122 789.89C928.382 788.723 929.502 787.51 930.482 786.25C931.462 784.99 932.232 783.847 932.792 782.82C932.839 782.867 932.862 782.96 932.862 783.1C932.862 783.52 932.605 784.103 932.092 784.85C931.579 785.55 931.042 786.25 930.482 786.95C929.969 787.65 929.665 788.163 929.572 788.49C929.525 788.817 929.432 789.097 929.292 789.33C929.199 789.563 929.082 789.82 928.942 790.1C928.149 790.893 927.005 791.71 925.512 792.55C924.065 793.343 922.549 793.997 920.962 794.51C919.422 795.023 918.069 795.28 916.902 795.28ZM919.562 780.51C920.775 780.277 921.965 780.09 923.132 779.95C924.345 779.81 925.559 779.74 926.772 779.74C927.145 779.74 927.519 779.74 927.892 779.74C928.265 779.74 928.639 779.763 929.012 779.81C929.385 779.017 929.689 778.153 929.922 777.22C930.202 776.287 930.342 775.377 930.342 774.49C930.342 773.79 930.202 773.09 929.922 772.39C929.642 771.643 929.035 771.27 928.102 771.27C927.215 771.27 926.305 771.643 925.372 772.39C924.485 773.137 923.762 773.813 923.202 774.42C922.455 775.307 921.779 776.287 921.172 777.36C920.612 778.387 920.075 779.437 919.562 780.51ZM939.941 795.07C939.195 795.07 938.658 794.837 938.331 794.37C938.051 793.903 937.888 793.343 937.841 792.69C937.841 792.037 937.841 791.43 937.841 790.87C937.841 789.983 937.911 788.7 938.051 787.02C938.238 785.293 938.495 783.497 938.821 781.63C939.148 779.717 939.568 777.99 940.081 776.45C940.641 774.863 941.295 773.79 942.041 773.23C942.788 772.67 943.721 772.25 944.841 771.97C946.008 771.643 947.035 771.48 947.921 771.48C948.015 771.48 948.131 771.527 948.271 771.62C948.411 771.713 948.505 771.807 948.551 771.9V772.11C948.505 772.25 948.435 772.32 948.341 772.32C948.295 772.273 948.225 772.25 948.131 772.25C947.245 772.25 946.428 772.693 945.681 773.58C944.935 774.467 944.281 775.54 943.721 776.8C943.161 778.06 942.695 779.297 942.321 780.51C941.995 781.723 941.761 782.657 941.621 783.31C941.435 784.197 941.295 785.107 941.201 786.04C941.108 786.973 941.061 787.907 941.061 788.84C941.061 789.307 941.108 789.913 941.201 790.66C941.341 791.36 941.738 791.71 942.391 791.71C943.045 791.71 943.768 791.36 944.561 790.66C945.401 789.96 946.055 789.377 946.521 788.91C948.621 786.67 950.325 784.197 951.631 781.49C952.938 778.783 954.058 776.007 954.991 773.16C955.131 772.74 955.295 772.367 955.481 772.04C955.668 771.713 955.971 771.433 956.391 771.2C956.578 771.107 956.835 770.99 957.161 770.85C957.488 770.663 957.745 770.57 957.931 770.57C958.211 770.57 958.351 770.757 958.351 771.13C958.351 771.643 958.118 772.367 957.651 773.3C957.231 774.233 956.905 774.933 956.671 775.4C956.158 776.333 955.458 777.617 954.571 779.25C953.685 780.837 952.658 782.54 951.491 784.36C950.325 786.18 949.088 787.907 947.781 789.54C946.475 791.127 945.145 792.457 943.791 793.53C942.438 794.557 941.155 795.07 939.941 795.07Z" fill="white"/>
<defs>
<linearGradient id="paint0_linear_13_1056" x1="311.737" y1="167.931" x2="513.637" y2="382.018" gradientUnits="userSpaceOnUse">
<stop offset="0.140001" stop-color="white"/>
<stop offset="0.534626" stop-color="#D02A1E"/>
</linearGradient>
<linearGradient id="paint1_linear_13_1056" x1="496.575" y1="467.734" x2="663.538" y2="596.51" gradientUnits="userSpaceOnUse">
<stop offset="0.0811113" stop-color="white"/>
<stop offset="0.535729" stop-color="#D02A1E"/>
</linearGradient>
<clipPath id="clip0_13_1056">
<rect width="636" height="636" fill="white" transform="translate(194 67)"/>
</clipPath>
</defs>
</svg>
